<svg xmlns="http://www.w3.org/2000/svg" width="1200" height="760" viewBox="0 0 1200 760">
  <rect width="1200" height="760" fill="#f8fafc"/>
  <rect x="60" y="40" width="1080" height="680" rx="12" fill="#ffffff" stroke="#cbd5e1" stroke-width="2"/>
  <rect x="100" y="80" width="1000" height="60" rx="8" fill="#e2e8f0"/>
  <text x="120" y="118" font-size="28" fill="#0f172a" font-family="Arial, sans-serif">ìÓåü•?;b (/review)</text>

  <text x="120" y="185" font-size="22" fill="#0f172a" font-family="Arial, sans-serif">qW„YU</text>
  <rect x="360" y="155" width="240" height="48" rx="6" fill="#f1f5f9" stroke="#94a3b8"/>
  <text x="385" y="186" font-size="20" fill="#334155" font-family="Arial, sans-serif">15 ’xž</text>

  <text x="120" y="255" font-size="22" fill="#0f172a" font-family="Arial, sans-serif">§Š„YU</text>
  <rect x="360" y="225" width="240" height="48" rx="6" fill="#f1f5f9" stroke="#94a3b8"/>
  <text x="385" y="256" font-size="20" fill="#334155" font-family="Arial, sans-serif">15 ’xž</text>

  <text x="120" y="325" font-size="22" fill="#0f172a" font-family="Arial, sans-serif">—€³¦</text>
  <rect x="360" y="295" width="240" height="48" rx="6" fill="#f1f5f9" stroke="#94a3b8"/>
  <text x="385" y="326" font-size="20" fill="#334155" font-family="Arial, sans-serif">15 ’xž</text>

  <text x="120" y="395" font-size="22" fill="#0f172a" font-family="Arial, sans-serif">³áóÈ</text>
  <rect x="360" y="365" width="660" height="180" rx="8" fill="#f8fafc" stroke="#94a3b8"/>
  <text x="385" y="404" font-size="18" fill="#64748b" font-family="Arial, sans-serif">û500‡Wå…	</text>

  <rect x="760" y="590" width="140" height="52" rx="8" fill="#2563eb"/>
  <text x="808" y="623" font-size="22" fill="#ffffff" font-family="Arial, sans-serif">•?</text>
  <rect x="920" y="590" width="140" height="52" rx="8" fill="#e2e8f0" stroke="#94a3b8"/>
  <text x="952" y="623" font-size="22" fill="#334155" font-family="Arial, sans-serif">Öˆ</text>
</svg>
