<svg aria-roledescription="er" role="graphics-document document" viewBox="0 0 831.59375 1158.5" height="1158.5" class="erDiagram" xmlns="http://www.w3.org/2000/svg" width="831.59375" id="container"><style>#container{font-family:"trebuchet ms",verdana,arial,sans-serif;font-size:16px;fill:#333;}@keyframes edge-animation-frame{from{stroke-dashoffset:0;}}@keyframes dash{to{stroke-dashoffset:0;}}#container .edge-animation-slow{stroke-dasharray:9,5!important;stroke-dashoffset:900;animation:dash 50s linear infinite;stroke-linecap:round;}#container .edge-animation-fast{stroke-dasharray:9,5!important;stroke-dashoffset:900;animation:dash 20s linear infinite;stroke-linecap:round;}#container .error-icon{fill:#552222;}#container .error-text{fill:#552222;stroke:#552222;}#container .edge-thickness-normal{stroke-width:1px;}#container .edge-thickness-thick{stroke-width:3.5px;}#container .edge-pattern-solid{stroke-dasharray:0;}#container .edge-thickness-invisible{stroke-width:0;fill:none;}#container .edge-pattern-dashed{stroke-dasharray:3;}#container .edge-pattern-dotted{stroke-dasharray:2;}#container .marker{fill:#333333;stroke:#333333;}#container .marker.cross{stroke:#333333;}#container svg{font-family:"trebuchet ms",verdana,arial,sans-serif;font-size:16px;}#container p{margin:0;}#container .entityBox{fill:#ECECFF;stroke:#9370DB;}#container .relationshipLabelBox{fill:hsl(80, 100%, 96.2745098039%);opacity:0.7;background-color:hsl(80, 100%, 96.2745098039%);}#container .relationshipLabelBox rect{opacity:0.5;}#container .labelBkg{background-color:rgba(248.6666666666, 255, 235.9999999999, 0.5);}#container .edgeLabel .label{fill:#9370DB;font-size:14px;}#container .label{font-family:"trebuchet ms",verdana,arial,sans-serif;color:#333;}#container .edge-pattern-dashed{stroke-dasharray:8,8;}#container .node rect,#container .node circle,#container .node ellipse,#container .node polygon{fill:#ECECFF;stroke:#9370DB;stroke-width:1px;}#container .relationshipLine{stroke:#333333;stroke-width:1;fill:none;}#container .marker{fill:none!important;stroke:#333333!important;stroke-width:1;}#container :root{--mermaid-font-family:"trebuchet ms",verdana,arial,sans-serif;}</style><g><defs><marker orient="auto" markerHeight="18" markerWidth="18" refY="9" refX="0" class="marker onlyOne er" id="container_er-onlyOneStart"><path d="M9,0 L9,18 M15,0 L15,18"></path></marker></defs><defs><marker orient="auto" markerHeight="18" markerWidth="18" refY="9" refX="18" class="marker onlyOne er" id="container_er-onlyOneEnd"><path d="M3,0 L3,18 M9,0 L9,18"></path></marker></defs><defs><marker orient="auto" markerHeight="18" markerWidth="30" refY="9" refX="0" class="marker zeroOrOne er" id="container_er-zeroOrOneStart"><circle r="6" cy="9" cx="21" fill="white"></circle><path d="M9,0 L9,18"></path></marker></defs><defs><marker orient="auto" markerHeight="18" markerWidth="30" refY="9" refX="30" class="marker zeroOrOne er" id="container_er-zeroOrOneEnd"><circle r="6" cy="9" cx="9" fill="white"></circle><path d="M21,0 L21,18"></path></marker></defs><defs><marker orient="auto" markerHeight="36" markerWidth="45" refY="18" refX="18" class="marker oneOrMore er" id="container_er-oneOrMoreStart"><path d="M0,18 Q 18,0 36,18 Q 18,36 0,18 M42,9 L42,27"></path></marker></defs><defs><marker orient="auto" markerHeight="36" markerWidth="45" refY="18" refX="27" class="marker oneOrMore er" id="container_er-oneOrMoreEnd"><path d="M3,9 L3,27 M9,18 Q27,0 45,18 Q27,36 9,18"></path></marker></defs><defs><marker orient="auto" markerHeight="36" markerWidth="57" refY="18" refX="18" class="marker zeroOrMore er" id="container_er-zeroOrMoreStart"><circle r="6" cy="18" cx="48" fill="white"></circle><path d="M0,18 Q18,0 36,18 Q18,36 0,18"></path></marker></defs><defs><marker orient="auto" markerHeight="36" markerWidth="57" refY="18" refX="39" class="marker zeroOrMore er" id="container_er-zeroOrMoreEnd"><circle r="6" cy="18" cx="9" fill="white"></circle><path d="M21,18 Q39,0 57,18 Q39,36 21,18"></path></marker></defs><g class="root"><g class="clusters"></g><g class="edgePaths"><path marker-end="url(#container_er-oneOrMoreEnd)" marker-start="url(#container_er-onlyOneStart)" style="undefined;" class="edge-thickness-normal edge-pattern-solid relationshipLine" id="id_entity-PET-0_entity-ORDER-1_0" d="M109.078,643.375L109.078,655.354C109.078,667.333,109.078,691.292,109.078,711.688C109.078,732.083,109.078,748.917,109.078,757.333L109.078,765.75"></path><path marker-end="url(#container_er-zeroOrMoreEnd)" marker-start="url(#container_er-onlyOneStart)" style="undefined;" class="edge-thickness-normal edge-pattern-solid relationshipLine" id="id_entity-PET-0_entity-PETTAG-2_1" d="M210.156,523.45L273.419,555.417C336.681,587.383,463.206,651.317,542.128,713.075C621.051,774.833,652.371,834.417,668.031,864.208L683.691,894"></path><path marker-end="url(#container_er-zeroOrMoreEnd)" marker-start="url(#container_er-onlyOneStart)" style="undefined;" class="edge-thickness-normal edge-pattern-solid relationshipLine" id="id_entity-TAG-3_entity-PETTAG-2_2" d="M754.648,536.5L754.648,566.292C754.648,596.083,754.648,655.667,750.079,715.25C745.51,774.833,736.372,834.417,731.803,864.208L727.233,894"></path><path marker-end="url(#container_er-zeroOrMoreEnd)" marker-start="url(#container_er-onlyOneStart)" style="undefined;" class="edge-thickness-normal edge-pattern-solid relationshipLine" id="id_entity-CATEGORY-4_entity-PET-0_3" d="M109.078,179L109.078,187.417C109.078,195.833,109.078,212.667,109.078,233.063C109.078,253.458,109.078,277.417,109.078,289.396L109.078,301.375"></path><path marker-end="url(#container_er-zeroOrMoreEnd)" marker-start="url(#container_er-onlyOneStart)" style="undefined;" class="edge-thickness-normal edge-pattern-solid relationshipLine" id="id_entity-USER-5_entity-ORDER-1_4" d="M447.93,664.75L447.93,673.167C447.93,681.583,447.93,698.417,407.725,735.65C367.521,772.884,287.112,830.518,246.908,859.334L206.703,888.151"></path></g><g class="edgeLabels"><g transform="translate(109.078125, 715.25)" class="edgeLabel"><g transform="translate(-40.109375, -10.5)" class="label"><foreignObject height="21" width="80.21875"><div style="display: table-cell; white-space: nowrap; line-height: 1.5; max-width: 200px; text-align: center;" class="labelBkg" xmlns="http://www.w3.org/1999/xhtml"><span class="edgeLabel"><p>is ordered in</p></span></div></foreignObject></g></g><g transform="translate(589.73046875, 715.25)" class="edgeLabel"><g transform="translate(-11.109375, -10.5)" class="label"><foreignObject height="21" width="22.21875"><div style="display: table-cell; white-space: nowrap; line-height: 1.5; max-width: 200px; text-align: center;" class="labelBkg" xmlns="http://www.w3.org/1999/xhtml"><span class="edgeLabel"><p>has</p></span></div></foreignObject></g></g><g transform="translate(754.6484375, 715.25)" class="edgeLabel"><g transform="translate(-43.390625, -10.5)" class="label"><foreignObject height="21" width="86.78125"><div style="display: table-cell; white-space: nowrap; line-height: 1.5; max-width: 200px; text-align: center;" class="labelBkg" xmlns="http://www.w3.org/1999/xhtml"><span class="edgeLabel"><p>is assigned to</p></span></div></foreignObject></g></g><g transform="translate(109.078125, 229.5)" class="edgeLabel"><g transform="translate(-28.65625, -10.5)" class="label"><foreignObject height="21" width="57.3125"><div style="display: table-cell; white-space: nowrap; line-height: 1.5; max-width: 200px; text-align: center;" class="labelBkg" xmlns="http://www.w3.org/1999/xhtml"><span class="edgeLabel"><p>classifies</p></span></div></foreignObject></g></g><g transform="translate(447.9296875, 715.25)" class="edgeLabel"><g transform="translate(-20.2734375, -10.5)" class="label"><foreignObject height="21" width="40.546875"><div style="display: table-cell; white-space: nowrap; line-height: 1.5; max-width: 200px; text-align: center;" class="labelBkg" xmlns="http://www.w3.org/1999/xhtml"><span class="edgeLabel"><p>places</p></span></div></foreignObject></g></g></g><g class="nodes"><g transform="translate(109.078125, 472.375)" id="entity-PET-0" class="node default"><g style=""><path fill="#ECECFF" stroke-width="0" stroke="none" d="M-101.078125 -171 L101.078125 -171 L101.078125 171 L-101.078125 171"></path><path fill="none" stroke-width="1.3" stroke="#9370DB" d="M-101.078125 -171 C-57.20299994893644 -171, -13.327874897872874 -171, 101.078125 -171 M-101.078125 -171 C-35.33928310814946 -171, 30.39955878370108 -171, 101.078125 -171 M101.078125 -171 C101.078125 -55.67312713571562, 101.078125 59.653745728568765, 101.078125 171 M101.078125 -171 C101.078125 -78.90673955798943, 101.078125 13.18652088402115, 101.078125 171 M101.078125 171 C27.000748117107534 171, -47.07662876578493 171, -101.078125 171 M101.078125 171 C37.455845308344074 171, -26.166434383311852 171, -101.078125 171 M-101.078125 171 C-101.078125 94.32297299469823, -101.078125 17.645945989396466, -101.078125 -171 M-101.078125 171 C-101.078125 71.82796981042667, -101.078125 -27.34406037914667, -101.078125 -171"></path></g><g class="row-rect-odd" style=""><path fill="hsl(240, 100%, 100%)" stroke-width="0" stroke="none" d="M-101.078125 -42.75 L101.078125 -42.75 L101.078125 0 L-101.078125 0"></path><path fill="none" stroke-width="1.3" stroke="#9370DB" d="M-101.078125 -42.75 C-60.543500042467805 -42.75, -20.00887508493561 -42.75, 101.078125 -42.75 M-101.078125 -42.75 C-60.058503325302546 -42.75, -19.03888165060509 -42.75, 101.078125 -42.75 M101.078125 -42.75 C101.078125 -28.085629942032153, 101.078125 -13.421259884064305, 101.078125 0 M101.078125 -42.75 C101.078125 -31.11884111772804, 101.078125 -19.48768223545608, 101.078125 0 M101.078125 0 C25.319557246516226 0, -50.43901050696755 0, -101.078125 0 M101.078125 0 C38.04052385084351 0, -24.997077298312973 0, -101.078125 0 M-101.078125 0 C-101.078125 -9.942403050896266, -101.078125 -19.88480610179253, -101.078125 -42.75 M-101.078125 0 C-101.078125 -14.382117964943182, -101.078125 -28.764235929886365, -101.078125 -42.75"></path></g><g class="row-rect-even" style=""><path fill="hsl(240, 100%, 97.2745098039%)" stroke-width="0" stroke="none" d="M-101.078125 0 L101.078125 0 L101.078125 42.75 L-101.078125 42.75"></path><path fill="none" stroke-width="1.3" stroke="#9370DB" d="M-101.078125 0 C-33.558093380012025 0, 33.96193823997595 0, 101.078125 0 M-101.078125 0 C-59.71839647335457 0, -18.358667946709133 0, 101.078125 0 M101.078125 0 C101.078125 15.82303851499128, 101.078125 31.64607702998256, 101.078125 42.75 M101.078125 0 C101.078125 10.23866414349842, 101.078125 20.47732828699684, 101.078125 42.75 M101.078125 42.75 C44.01010063557591 42.75, -13.05792372884818 42.75, -101.078125 42.75 M101.078125 42.75 C42.260052227302175 42.75, -16.55802054539565 42.75, -101.078125 42.75 M-101.078125 42.75 C-101.078125 28.574670086685735, -101.078125 14.399340173371467, -101.078125 0 M-101.078125 42.75 C-101.078125 32.752154856802356, -101.078125 22.75430971360471, -101.078125 0"></path></g><g class="row-rect-odd" style=""><path fill="hsl(240, 100%, 100%)" stroke-width="0" stroke="none" d="M-101.078125 42.75 L101.078125 42.75 L101.078125 85.5 L-101.078125 85.5"></path><path fill="none" stroke-width="1.3" stroke="#9370DB" d="M-101.078125 42.75 C-35.92011120016166 42.75, 29.237902599676687 42.75, 101.078125 42.75 M-101.078125 42.75 C-40.735416774217946 42.75, 19.60729145156411 42.75, 101.078125 42.75 M101.078125 42.75 C101.078125 51.3610878448918, 101.078125 59.9721756897836, 101.078125 85.5 M101.078125 42.75 C101.078125 58.647877229169104, 101.078125 74.54575445833821, 101.078125 85.5 M101.078125 85.5 C40.90646959815909 85.5, -19.265185803681817 85.5, -101.078125 85.5 M101.078125 85.5 C23.547384104741596 85.5, -53.98335679051681 85.5, -101.078125 85.5 M-101.078125 85.5 C-101.078125 71.82162871359495, -101.078125 58.14325742718991, -101.078125 42.75 M-101.078125 85.5 C-101.078125 76.92068914704512, -101.078125 68.34137829409025, -101.078125 42.75"></path></g><g class="row-rect-even" style=""><path fill="hsl(240, 100%, 97.2745098039%)" stroke-width="0" stroke="none" d="M-101.078125 85.5 L101.078125 85.5 L101.078125 128.25 L-101.078125 128.25"></path><path fill="none" stroke-width="1.3" stroke="#9370DB" d="M-101.078125 85.5 C-48.37782473100017 85.5, 4.322475537999665 85.5, 101.078125 85.5 M-101.078125 85.5 C-53.78582842560057 85.5, -6.493531851201141 85.5, 101.078125 85.5 M101.078125 85.5 C101.078125 95.46789161561993, 101.078125 105.43578323123987, 101.078125 128.25 M101.078125 85.5 C101.078125 95.66394090902978, 101.078125 105.82788181805955, 101.078125 128.25 M101.078125 128.25 C34.453221547648226 128.25, -32.17168190470355 128.25, -101.078125 128.25 M101.078125 128.25 C30.766348885998084 128.25, -39.54542722800383 128.25, -101.078125 128.25 M-101.078125 128.25 C-101.078125 113.0826865391845, -101.078125 97.91537307836899, -101.078125 85.5 M-101.078125 128.25 C-101.078125 119.49438636816903, -101.078125 110.73877273633806, -101.078125 85.5"></path></g><g class="row-rect-odd" style=""><path fill="hsl(240, 100%, 100%)" stroke-width="0" stroke="none" d="M-101.078125 128.25 L101.078125 128.25 L101.078125 171 L-101.078125 171"></path><path fill="none" stroke-width="1.3" stroke="#9370DB" d="M-101.078125 128.25 C-50.05235024074778 128.25, 0.9734245185044443 128.25, 101.078125 128.25 M-101.078125 128.25 C-44.67085018719152 128.25, 11.736424625616962 128.25, 101.078125 128.25 M101.078125 128.25 C101.078125 143.40875825884575, 101.078125 158.5675165176915, 101.078125 171 M101.078125 128.25 C101.078125 140.07766524156816, 101.078125 151.90533048313634, 101.078125 171 M101.078125 171 C56.15807277015264 171, 11.238020540305286 171, -101.078125 171 M101.078125 171 C53.90352707989044 171, 6.728929159780876 171, -101.078125 171 M-101.078125 171 C-101.078125 155.27778903633998, -101.078125 139.55557807267996, -101.078125 128.25 M-101.078125 171 C-101.078125 160.10997052310555, -101.078125 149.21994104621106, -101.078125 128.25"></path></g><g class="row-rect-even" style=""><path fill="hsl(240, 100%, 100%)" stroke-width="0" stroke="none" d="M-101.078125 -128.25 L101.078125 -128.25 L101.078125 -85.5 L-101.078125 -85.5"></path><path fill="none" stroke-width="1.3" stroke="#9370DB" d="M-101.078125 -128.25 C-46.391263469673675 -128.25, 8.295598060652651 -128.25, 101.078125 -128.25 M-101.078125 -128.25 C-23.63298077747362 -128.25, 53.81216344505276 -128.25, 101.078125 -128.25 M101.078125 -128.25 C101.078125 -119.1270889592694, 101.078125 -110.0041779185388, 101.078125 -85.5 M101.078125 -128.25 C101.078125 -111.70612516907784, 101.078125 -95.16225033815566, 101.078125 -85.5 M101.078125 -85.5 C40.065203355353155 -85.5, -20.94771828929369 -85.5, -101.078125 -85.5 M101.078125 -85.5 C53.841226442673864 -85.5, 6.604327885347729 -85.5, -101.078125 -85.5 M-101.078125 -85.5 C-101.078125 -96.4726435593893, -101.078125 -107.44528711877858, -101.078125 -128.25 M-101.078125 -85.5 C-101.078125 -100.11689521237511, -101.078125 -114.73379042475024, -101.078125 -128.25"></path></g><g style="" transform="translate(-13.0703125, -161.625)" class="label name"><foreignObject height="24" width="26.140625"><div style="display: table-cell; white-space: nowrap; line-height: 1.5; max-width: 127px; text-align: start;" xmlns="http://www.w3.org/1999/xhtml"><span class="nodeLabel"><p>PET</p></span></div></foreignObject></g><g style="" transform="translate(-88.578125, -118.875)" class="label attribute-type"><foreignObject height="24" width="36.21875"><div style="display: table-cell; white-space: nowrap; line-height: 1.5; max-width: 136px; text-align: start;" xmlns="http://www.w3.org/1999/xhtml"><span class="nodeLabel"><p>UUID</p></span></div></foreignObject></g><g style="" transform="translate(4.75, -118.875)" class="label attribute-name"><foreignObject height="24" width="46.40625"><div style="display: table-cell; white-space: nowrap; line-height: 1.5; max-width: 146px; text-align: start;" xmlns="http://www.w3.org/1999/xhtml"><span class="nodeLabel"><p>pet_id</p></span></div></foreignObject></g><g style="" transform="translate(113.578125, -118.875)" class="label attribute-keys"><foreignObject height="0" width="0"><div style="display: table-cell; white-space: nowrap; line-height: 1.5; max-width: 100px; text-align: start;" xmlns="http://www.w3.org/1999/xhtml"><span class="nodeLabel"></span></div></foreignObject></g><g style="" transform="translate(113.578125, -118.875)" class="label attribute-comment"><foreignObject height="0" width="0"><div style="display: table-cell; white-space: nowrap; line-height: 1.5; max-width: 100px; text-align: start;" xmlns="http://www.w3.org/1999/xhtml"><span class="nodeLabel"></span></div></foreignObject></g><g style="" transform="translate(-88.578125, -76.125)" class="label attribute-type"><foreignObject height="24" width="42.890625"><div style="display: table-cell; white-space: nowrap; line-height: 1.5; max-width: 144px; text-align: start;" xmlns="http://www.w3.org/1999/xhtml"><span class="nodeLabel"><p>String</p></span></div></foreignObject></g><g style="" transform="translate(4.75, -76.125)" class="label attribute-name"><foreignObject height="24" width="40.515625"><div style="display: table-cell; white-space: nowrap; line-height: 1.5; max-width: 141px; text-align: start;" xmlns="http://www.w3.org/1999/xhtml"><span class="nodeLabel"><p>name</p></span></div></foreignObject></g><g style="" transform="translate(113.578125, -76.125)" class="label attribute-keys"><foreignObject height="0" width="0"><div style="display: table-cell; white-space: nowrap; line-height: 1.5; max-width: 100px; text-align: start;" xmlns="http://www.w3.org/1999/xhtml"><span class="nodeLabel"></span></div></foreignObject></g><g style="" transform="translate(113.578125, -76.125)" class="label attribute-comment"><foreignObject height="0" width="0"><div style="display: table-cell; white-space: nowrap; line-height: 1.5; max-width: 100px; text-align: start;" xmlns="http://www.w3.org/1999/xhtml"><span class="nodeLabel"></span></div></foreignObject></g><g style="" transform="translate(-88.578125, -33.375)" class="label attribute-type"><foreignObject height="24" width="36.21875"><div style="display: table-cell; white-space: nowrap; line-height: 1.5; max-width: 136px; text-align: start;" xmlns="http://www.w3.org/1999/xhtml"><span class="nodeLabel"><p>UUID</p></span></div></foreignObject></g><g style="" transform="translate(4.75, -33.375)" class="label attribute-name"><foreignObject height="24" width="83.828125"><div style="display: table-cell; white-space: nowrap; line-height: 1.5; max-width: 184px; text-align: start;" xmlns="http://www.w3.org/1999/xhtml"><span class="nodeLabel"><p>category_id</p></span></div></foreignObject></g><g style="" transform="translate(113.578125, -33.375)" class="label attribute-keys"><foreignObject height="0" width="0"><div style="display: table-cell; white-space: nowrap; line-height: 1.5; max-width: 100px; text-align: start;" xmlns="http://www.w3.org/1999/xhtml"><span class="nodeLabel"></span></div></foreignObject></g><g style="" transform="translate(113.578125, -33.375)" class="label attribute-comment"><foreignObject height="0" width="0"><div style="display: table-cell; white-space: nowrap; line-height: 1.5; max-width: 100px; text-align: start;" xmlns="http://www.w3.org/1999/xhtml"><span class="nodeLabel"></span></div></foreignObject></g><g style="" transform="translate(-88.578125, 9.375)" class="label attribute-type"><foreignObject height="24" width="53.1875"><div style="display: table-cell; white-space: nowrap; line-height: 1.5; max-width: 153px; text-align: start;" xmlns="http://www.w3.org/1999/xhtml"><span class="nodeLabel"><p>String[]</p></span></div></foreignObject></g><g style="" transform="translate(4.75, 9.375)" class="label attribute-name"><foreignObject height="24" width="78.4375"><div style="display: table-cell; white-space: nowrap; line-height: 1.5; max-width: 178px; text-align: start;" xmlns="http://www.w3.org/1999/xhtml"><span class="nodeLabel"><p>photo_urls</p></span></div></foreignObject></g><g style="" transform="translate(113.578125, 9.375)" class="label attribute-keys"><foreignObject height="0" width="0"><div style="display: table-cell; white-space: nowrap; line-height: 1.5; max-width: 100px; text-align: start;" xmlns="http://www.w3.org/1999/xhtml"><span class="nodeLabel"></span></div></foreignObject></g><g style="" transform="translate(113.578125, 9.375)" class="label attribute-comment"><foreignObject height="0" width="0"><div style="display: table-cell; white-space: nowrap; line-height: 1.5; max-width: 100px; text-align: start;" xmlns="http://www.w3.org/1999/xhtml"><span class="nodeLabel"></span></div></foreignObject></g><g style="" transform="translate(-88.578125, 52.125)" class="label attribute-type"><foreignObject height="24" width="40.8125"><div style="display: table-cell; white-space: nowrap; line-height: 1.5; max-width: 141px; text-align: start;" xmlns="http://www.w3.org/1999/xhtml"><span class="nodeLabel"><p>Enum</p></span></div></foreignObject></g><g style="" transform="translate(4.75, 52.125)" class="label attribute-name"><foreignObject height="24" width="44.40625"><div style="display: table-cell; white-space: nowrap; line-height: 1.5; max-width: 144px; text-align: start;" xmlns="http://www.w3.org/1999/xhtml"><span class="nodeLabel"><p>status</p></span></div></foreignObject></g><g style="" transform="translate(113.578125, 52.125)" class="label attribute-keys"><foreignObject height="0" width="0"><div style="display: table-cell; white-space: nowrap; line-height: 1.5; max-width: 100px; text-align: start;" xmlns="http://www.w3.org/1999/xhtml"><span class="nodeLabel"></span></div></foreignObject></g><g style="" transform="translate(113.578125, 52.125)" class="label attribute-comment"><foreignObject height="0" width="0"><div style="display: table-cell; white-space: nowrap; line-height: 1.5; max-width: 100px; text-align: start;" xmlns="http://www.w3.org/1999/xhtml"><span class="nodeLabel"></span></div></foreignObject></g><g style="" transform="translate(-88.578125, 94.875)" class="label attribute-type"><foreignObject height="24" width="68.328125"><div style="display: table-cell; white-space: nowrap; line-height: 1.5; max-width: 168px; text-align: start;" xmlns="http://www.w3.org/1999/xhtml"><span class="nodeLabel"><p>DateTime</p></span></div></foreignObject></g><g style="" transform="translate(4.75, 94.875)" class="label attribute-name"><foreignObject height="24" width="76.921875"><div style="display: table-cell; white-space: nowrap; line-height: 1.5; max-width: 177px; text-align: start;" xmlns="http://www.w3.org/1999/xhtml"><span class="nodeLabel"><p>created_at</p></span></div></foreignObject></g><g style="" transform="translate(113.578125, 94.875)" class="label attribute-keys"><foreignObject height="0" width="0"><div style="display: table-cell; white-space: nowrap; line-height: 1.5; max-width: 100px; text-align: start;" xmlns="http://www.w3.org/1999/xhtml"><span class="nodeLabel"></span></div></foreignObject></g><g style="" transform="translate(113.578125, 94.875)" class="label attribute-comment"><foreignObject height="0" width="0"><div style="display: table-cell; white-space: nowrap; line-height: 1.5; max-width: 100px; text-align: start;" xmlns="http://www.w3.org/1999/xhtml"><span class="nodeLabel"></span></div></foreignObject></g><g style="" transform="translate(-88.578125, 137.625)" class="label attribute-type"><foreignObject height="24" width="68.328125"><div style="display: table-cell; white-space: nowrap; line-height: 1.5; max-width: 168px; text-align: start;" xmlns="http://www.w3.org/1999/xhtml"><span class="nodeLabel"><p>DateTime</p></span></div></foreignObject></g><g style="" transform="translate(4.75, 137.625)" class="label attribute-name"><foreignObject height="24" width="83.40625"><div style="display: table-cell; white-space: nowrap; line-height: 1.5; max-width: 184px; text-align: start;" xmlns="http://www.w3.org/1999/xhtml"><span class="nodeLabel"><p>updated_at</p></span></div></foreignObject></g><g style="" transform="translate(113.578125, 137.625)" class="label attribute-keys"><foreignObject height="0" width="0"><div style="display: table-cell; white-space: nowrap; line-height: 1.5; max-width: 100px; text-align: start;" xmlns="http://www.w3.org/1999/xhtml"><span class="nodeLabel"></span></div></foreignObject></g><g style="" transform="translate(113.578125, 137.625)" class="label attribute-comment"><foreignObject height="0" width="0"><div style="display: table-cell; white-space: nowrap; line-height: 1.5; max-width: 100px; text-align: start;" xmlns="http://www.w3.org/1999/xhtml"><span class="nodeLabel"></span></div></foreignObject></g><g class="divider"><path fill="none" stroke-width="1.3" stroke="#9370DB" d="M-101.078125 -128.25 C-29.984536995327602 -128.25, 41.109051009344796 -128.25, 101.078125 -128.25 M-101.078125 -128.25 C-49.19522333035032 -128.25, 2.687678339299353 -128.25, 101.078125 -128.25"></path></g><g class="divider"><path fill="none" stroke-width="1.3" stroke="#9370DB" d="M-7.75 -128.25 C-7.75 -36.797617720528336, -7.75 54.65476455894333, -7.75 171 M-7.75 -128.25 C-7.75 -31.47013047985905, -7.75 65.3097390402819, -7.75 171"></path></g><g class="divider"><path fill="none" stroke-width="1.3" stroke="#9370DB" d="M-101.078125 -85.5 C-42.12615256729609 -85.5, 16.825819865407823 -85.5, 101.078125 -85.5 M-101.078125 -85.5 C-58.41458725406631 -85.5, -15.751049508132624 -85.5, 101.078125 -85.5"></path></g><g class="divider"><path fill="none" stroke-width="1.3" stroke="#9370DB" d="M-101.078125 -42.75 C-37.68826601062386 -42.75, 25.701592978752274 -42.75, 101.078125 -42.75 M-101.078125 -42.75 C-36.679833168509134 -42.75, 27.718458662981732 -42.75, 101.078125 -42.75"></path></g><g class="divider"><path fill="none" stroke-width="1.3" stroke="#9370DB" d="M-101.078125 0 C-33.75847728273804 0, 33.561170434523916 0, 101.078125 0 M-101.078125 0 C-42.27032938366731 0, 16.53746623266538 0, 101.078125 0"></path></g><g class="divider"><path fill="none" stroke-width="1.3" stroke="#9370DB" d="M-101.078125 42.75 C-27.839323125398366 42.75, 45.39947874920327 42.75, 101.078125 42.75 M-101.078125 42.75 C-40.98662001118749 42.75, 19.10488497762502 42.75, 101.078125 42.75"></path></g><g class="divider"><path fill="none" stroke-width="1.3" stroke="#9370DB" d="M-101.078125 85.5 C-51.1124645570495 85.5, -1.1468041140989982 85.5, 101.078125 85.5 M-101.078125 85.5 C-29.083828626776324 85.5, 42.91046774644735 85.5, 101.078125 85.5"></path></g><g class="divider"><path fill="none" stroke-width="1.3" stroke="#9370DB" d="M-101.078125 128.25 C-23.022777029936947 128.25, 55.03257094012611 128.25, 101.078125 128.25 M-101.078125 128.25 C-54.50358639418252 128.25, -7.92904778836504 128.25, 101.078125 128.25"></path></g><g class="divider"><path fill="none" stroke-width="1.3" stroke="#9370DB" d="M-101.078125 -128.25 C-29.693362408348534 -128.25, 41.69140018330293 -128.25, 101.078125 -128.25 M-101.078125 -128.25 C-36.24054230092173 -128.25, 28.597040398156537 -128.25, 101.078125 -128.25"></path></g></g><g transform="translate(109.078125, 958.125)" id="entity-ORDER-1" class="node default"><g style=""><path fill="#ECECFF" stroke-width="0" stroke="none" d="M-97.625 -192.375 L97.625 -192.375 L97.625 192.375 L-97.625 192.375"></path><path fill="none" stroke-width="1.3" stroke="#9370DB" d="M-97.625 -192.375 C-28.24397079526713 -192.375, 41.13705840946574 -192.375, 97.625 -192.375 M-97.625 -192.375 C-38.18226928623946 -192.375, 21.26046142752108 -192.375, 97.625 -192.375 M97.625 -192.375 C97.625 -71.36051217043632, 97.625 49.653975659127354, 97.625 192.375 M97.625 -192.375 C97.625 -115.05061245214425, 97.625 -37.7262249042885, 97.625 192.375 M97.625 192.375 C27.51207877133119 192.375, -42.60084245733762 192.375, -97.625 192.375 M97.625 192.375 C29.032056056128297 192.375, -39.560887887743405 192.375, -97.625 192.375 M-97.625 192.375 C-97.625 111.27593405153516, -97.625 30.17686810307032, -97.625 -192.375 M-97.625 192.375 C-97.625 111.97240546386124, -97.625 31.56981092772247, -97.625 -192.375"></path></g><g class="row-rect-odd" style=""><path fill="hsl(240, 100%, 100%)" stroke-width="0" stroke="none" d="M-97.625 -64.125 L97.625 -64.125 L97.625 -21.375 L-97.625 -21.375"></path><path fill="none" stroke-width="1.3" stroke="#9370DB" d="M-97.625 -64.125 C-54.64341876000517 -64.125, -11.661837520010337 -64.125, 97.625 -64.125 M-97.625 -64.125 C-23.53891319004282 -64.125, 50.54717361991436 -64.125, 97.625 -64.125 M97.625 -64.125 C97.625 -50.00902924946682, 97.625 -35.89305849893364, 97.625 -21.375 M97.625 -64.125 C97.625 -49.18689795554995, 97.625 -34.2487959110999, 97.625 -21.375 M97.625 -21.375 C32.798678796448385 -21.375, -32.02764240710323 -21.375, -97.625 -21.375 M97.625 -21.375 C42.533166135008386 -21.375, -12.558667729983227 -21.375, -97.625 -21.375 M-97.625 -21.375 C-97.625 -35.13986673097242, -97.625 -48.90473346194484, -97.625 -64.125 M-97.625 -21.375 C-97.625 -37.59986969214724, -97.625 -53.82473938429447, -97.625 -64.125"></path></g><g class="row-rect-even" style=""><path fill="hsl(240, 100%, 97.2745098039%)" stroke-width="0" stroke="none" d="M-97.625 -21.375 L97.625 -21.375 L97.625 21.375 L-97.625 21.375"></path><path fill="none" stroke-width="1.3" stroke="#9370DB" d="M-97.625 -21.375 C-55.355512987882804 -21.375, -13.086025975765608 -21.375, 97.625 -21.375 M-97.625 -21.375 C-22.410547203035804 -21.375, 52.80390559392839 -21.375, 97.625 -21.375 M97.625 -21.375 C97.625 -8.30806192819162, 97.625 4.75887614361676, 97.625 21.375 M97.625 -21.375 C97.625 -10.704947714298555, 97.625 -0.03489542859711037, 97.625 21.375 M97.625 21.375 C55.56622567658203 21.375, 13.507451353164058 21.375, -97.625 21.375 M97.625 21.375 C23.197314766266672 21.375, -51.230370467466656 21.375, -97.625 21.375 M-97.625 21.375 C-97.625 10.166976075939413, -97.625 -1.041047848121174, -97.625 -21.375 M-97.625 21.375 C-97.625 7.735138126378374, -97.625 -5.904723747243253, -97.625 -21.375"></path></g><g class="row-rect-odd" style=""><path fill="hsl(240, 100%, 100%)" stroke-width="0" stroke="none" d="M-97.625 21.375 L97.625 21.375 L97.625 64.125 L-97.625 64.125"></path><path fill="none" stroke-width="1.3" stroke="#9370DB" d="M-97.625 21.375 C-38.427267827130365 21.375, 20.77046434573927 21.375, 97.625 21.375 M-97.625 21.375 C-46.090914259267514 21.375, 5.443171481464972 21.375, 97.625 21.375 M97.625 21.375 C97.625 35.604475604857704, 97.625 49.83395120971541, 97.625 64.125 M97.625 21.375 C97.625 36.68365311590476, 97.625 51.99230623180952, 97.625 64.125 M97.625 64.125 C50.44927145849956 64.125, 3.2735429169991193 64.125, -97.625 64.125 M97.625 64.125 C50.43021957838311 64.125, 3.235439156766219 64.125, -97.625 64.125 M-97.625 64.125 C-97.625 47.604071325569194, -97.625 31.083142651138395, -97.625 21.375 M-97.625 64.125 C-97.625 53.93502776343256, -97.625 43.745055526865116, -97.625 21.375"></path></g><g class="row-rect-even" style=""><path fill="hsl(240, 100%, 97.2745098039%)" stroke-width="0" stroke="none" d="M-97.625 64.125 L97.625 64.125 L97.625 106.875 L-97.625 106.875"></path><path fill="none" stroke-width="1.3" stroke="#9370DB" d="M-97.625 64.125 C-47.33400582095548 64.125, 2.956988358089035 64.125, 97.625 64.125 M-97.625 64.125 C-22.388180279828504 64.125, 52.84863944034299 64.125, 97.625 64.125 M97.625 64.125 C97.625 79.28017955678347, 97.625 94.43535911356692, 97.625 106.875 M97.625 64.125 C97.625 74.02913012646054, 97.625 83.93326025292107, 97.625 106.875 M97.625 106.875 C44.543582463894296 106.875, -8.537835072211408 106.875, -97.625 106.875 M97.625 106.875 C27.280269029142374 106.875, -43.06446194171525 106.875, -97.625 106.875 M-97.625 106.875 C-97.625 91.88019988401369, -97.625 76.88539976802738, -97.625 64.125 M-97.625 106.875 C-97.625 92.9745097035981, -97.625 79.07401940719619, -97.625 64.125"></path></g><g class="row-rect-odd" style=""><path fill="hsl(240, 100%, 100%)" stroke-width="0" stroke="none" d="M-97.625 106.875 L97.625 106.875 L97.625 149.625 L-97.625 149.625"></path><path fill="none" stroke-width="1.3" stroke="#9370DB" d="M-97.625 106.875 C-53.58298335608767 106.875, -9.540966712175333 106.875, 97.625 106.875 M-97.625 106.875 C-37.158047713630616 106.875, 23.30890457273877 106.875, 97.625 106.875 M97.625 106.875 C97.625 118.95533632120069, 97.625 131.03567264240138, 97.625 149.625 M97.625 106.875 C97.625 121.63495122416153, 97.625 136.39490244832305, 97.625 149.625 M97.625 149.625 C57.65460286103278 149.625, 17.684205722065556 149.625, -97.625 149.625 M97.625 149.625 C39.7564775231845 149.625, -18.112044953631 149.625, -97.625 149.625 M-97.625 149.625 C-97.625 137.5985160681373, -97.625 125.57203213627459, -97.625 106.875 M-97.625 149.625 C-97.625 133.2092769532997, -97.625 116.79355390659943, -97.625 106.875"></path></g><g class="row-rect-even" style=""><path fill="hsl(240, 100%, 97.2745098039%)" stroke-width="0" stroke="none" d="M-97.625 149.625 L97.625 149.625 L97.625 192.375 L-97.625 192.375"></path><path fill="none" stroke-width="1.3" stroke="#9370DB" d="M-97.625 149.625 C-26.013760471922765 149.625, 45.59747905615447 149.625, 97.625 149.625 M-97.625 149.625 C-34.05184892123972 149.625, 29.521302157520566 149.625, 97.625 149.625 M97.625 149.625 C97.625 159.67121228165576, 97.625 169.7174245633115, 97.625 192.375 M97.625 149.625 C97.625 166.71962165124555, 97.625 183.8142433024911, 97.625 192.375 M97.625 192.375 C57.738401652990596 192.375, 17.851803305981193 192.375, -97.625 192.375 M97.625 192.375 C56.98436451193422 192.375, 16.343729023868434 192.375, -97.625 192.375 M-97.625 192.375 C-97.625 176.1986303646002, -97.625 160.02226072920038, -97.625 149.625 M-97.625 192.375 C-97.625 180.03153591209872, -97.625 167.68807182419744, -97.625 149.625"></path></g><g class="row-rect-odd" style=""><path fill="hsl(240, 100%, 100%)" stroke-width="0" stroke="none" d="M-97.625 -149.625 L97.625 -149.625 L97.625 -106.875 L-97.625 -106.875"></path><path fill="none" stroke-width="1.3" stroke="#9370DB" d="M-97.625 -149.625 C-43.94535502559698 -149.625, 9.734289948806037 -149.625, 97.625 -149.625 M-97.625 -149.625 C-45.5503892450214 -149.625, 6.524221509957201 -149.625, 97.625 -149.625 M97.625 -149.625 C97.625 -139.67725824610463, 97.625 -129.72951649220929, 97.625 -106.875 M97.625 -149.625 C97.625 -139.41099238329588, 97.625 -129.19698476659175, 97.625 -106.875 M97.625 -106.875 C28.471701950823828 -106.875, -40.681596098352344 -106.875, -97.625 -106.875 M97.625 -106.875 C52.95197358329918 -106.875, 8.278947166598357 -106.875, -97.625 -106.875 M-97.625 -106.875 C-97.625 -122.84518701951686, -97.625 -138.8153740390337, -97.625 -149.625 M-97.625 -106.875 C-97.625 -123.53592003965034, -97.625 -140.19684007930067, -97.625 -149.625"></path></g><g style="" transform="translate(-24.6484375, -183)" class="label name"><foreignObject height="24" width="49.296875"><div style="display: table-cell; white-space: nowrap; line-height: 1.5; max-width: 150px; text-align: start;" xmlns="http://www.w3.org/1999/xhtml"><span class="nodeLabel"><p>ORDER</p></span></div></foreignObject></g><g style="" transform="translate(-85.125, -140.25)" class="label attribute-type"><foreignObject height="24" width="36.21875"><div style="display: table-cell; white-space: nowrap; line-height: 1.5; max-width: 136px; text-align: start;" xmlns="http://www.w3.org/1999/xhtml"><span class="nodeLabel"><p>UUID</p></span></div></foreignObject></g><g style="" transform="translate(8.203125, -140.25)" class="label attribute-name"><foreignObject height="24" width="60.625"><div style="display: table-cell; white-space: nowrap; line-height: 1.5; max-width: 161px; text-align: start;" xmlns="http://www.w3.org/1999/xhtml"><span class="nodeLabel"><p>order_id</p></span></div></foreignObject></g><g style="" transform="translate(110.125, -140.25)" class="label attribute-keys"><foreignObject height="0" width="0"><div style="display: table-cell; white-space: nowrap; line-height: 1.5; max-width: 100px; text-align: start;" xmlns="http://www.w3.org/1999/xhtml"><span class="nodeLabel"></span></div></foreignObject></g><g style="" transform="translate(110.125, -140.25)" class="label attribute-comment"><foreignObject height="0" width="0"><div style="display: table-cell; white-space: nowrap; line-height: 1.5; max-width: 100px; text-align: start;" xmlns="http://www.w3.org/1999/xhtml"><span class="nodeLabel"></span></div></foreignObject></g><g style="" transform="translate(-85.125, -97.5)" class="label attribute-type"><foreignObject height="24" width="36.21875"><div style="display: table-cell; white-space: nowrap; line-height: 1.5; max-width: 136px; text-align: start;" xmlns="http://www.w3.org/1999/xhtml"><span class="nodeLabel"><p>UUID</p></span></div></foreignObject></g><g style="" transform="translate(8.203125, -97.5)" class="label attribute-name"><foreignObject height="24" width="46.40625"><div style="display: table-cell; white-space: nowrap; line-height: 1.5; max-width: 146px; text-align: start;" xmlns="http://www.w3.org/1999/xhtml"><span class="nodeLabel"><p>pet_id</p></span></div></foreignObject></g><g style="" transform="translate(110.125, -97.5)" class="label attribute-keys"><foreignObject height="0" width="0"><div style="display: table-cell; white-space: nowrap; line-height: 1.5; max-width: 100px; text-align: start;" xmlns="http://www.w3.org/1999/xhtml"><span class="nodeLabel"></span></div></foreignObject></g><g style="" transform="translate(110.125, -97.5)" class="label attribute-comment"><foreignObject height="0" width="0"><div style="display: table-cell; white-space: nowrap; line-height: 1.5; max-width: 100px; text-align: start;" xmlns="http://www.w3.org/1999/xhtml"><span class="nodeLabel"></span></div></foreignObject></g><g style="" transform="translate(-85.125, -54.75)" class="label attribute-type"><foreignObject height="24" width="51.3125"><div style="display: table-cell; white-space: nowrap; line-height: 1.5; max-width: 152px; text-align: start;" xmlns="http://www.w3.org/1999/xhtml"><span class="nodeLabel"><p>Integer</p></span></div></foreignObject></g><g style="" transform="translate(8.203125, -54.75)" class="label attribute-name"><foreignObject height="24" width="60.828125"><div style="display: table-cell; white-space: nowrap; line-height: 1.5; max-width: 161px; text-align: start;" xmlns="http://www.w3.org/1999/xhtml"><span class="nodeLabel"><p>quantity</p></span></div></foreignObject></g><g style="" transform="translate(110.125, -54.75)" class="label attribute-keys"><foreignObject height="0" width="0"><div style="display: table-cell; white-space: nowrap; line-height: 1.5; max-width: 100px; text-align: start;" xmlns="http://www.w3.org/1999/xhtml"><span class="nodeLabel"></span></div></foreignObject></g><g style="" transform="translate(110.125, -54.75)" class="label attribute-comment"><foreignObject height="0" width="0"><div style="display: table-cell; white-space: nowrap; line-height: 1.5; max-width: 100px; text-align: start;" xmlns="http://www.w3.org/1999/xhtml"><span class="nodeLabel"></span></div></foreignObject></g><g style="" transform="translate(-85.125, -12)" class="label attribute-type"><foreignObject height="24" width="68.328125"><div style="display: table-cell; white-space: nowrap; line-height: 1.5; max-width: 168px; text-align: start;" xmlns="http://www.w3.org/1999/xhtml"><span class="nodeLabel"><p>DateTime</p></span></div></foreignObject></g><g style="" transform="translate(8.203125, -12)" class="label attribute-name"><foreignObject height="24" width="71.078125"><div style="display: table-cell; white-space: nowrap; line-height: 1.5; max-width: 171px; text-align: start;" xmlns="http://www.w3.org/1999/xhtml"><span class="nodeLabel"><p>ship_date</p></span></div></foreignObject></g><g style="" transform="translate(110.125, -12)" class="label attribute-keys"><foreignObject height="0" width="0"><div style="display: table-cell; white-space: nowrap; line-height: 1.5; max-width: 100px; text-align: start;" xmlns="http://www.w3.org/1999/xhtml"><span class="nodeLabel"></span></div></foreignObject></g><g style="" transform="translate(110.125, -12)" class="label attribute-comment"><foreignObject height="0" width="0"><div style="display: table-cell; white-space: nowrap; line-height: 1.5; max-width: 100px; text-align: start;" xmlns="http://www.w3.org/1999/xhtml"><span class="nodeLabel"></span></div></foreignObject></g><g style="" transform="translate(-85.125, 30.75)" class="label attribute-type"><foreignObject height="24" width="40.8125"><div style="display: table-cell; white-space: nowrap; line-height: 1.5; max-width: 141px; text-align: start;" xmlns="http://www.w3.org/1999/xhtml"><span class="nodeLabel"><p>Enum</p></span></div></foreignObject></g><g style="" transform="translate(8.203125, 30.75)" class="label attribute-name"><foreignObject height="24" width="44.40625"><div style="display: table-cell; white-space: nowrap; line-height: 1.5; max-width: 144px; text-align: start;" xmlns="http://www.w3.org/1999/xhtml"><span class="nodeLabel"><p>status</p></span></div></foreignObject></g><g style="" transform="translate(110.125, 30.75)" class="label attribute-keys"><foreignObject height="0" width="0"><div style="display: table-cell; white-space: nowrap; line-height: 1.5; max-width: 100px; text-align: start;" xmlns="http://www.w3.org/1999/xhtml"><span class="nodeLabel"></span></div></foreignObject></g><g style="" transform="translate(110.125, 30.75)" class="label attribute-comment"><foreignObject height="0" width="0"><div style="display: table-cell; white-space: nowrap; line-height: 1.5; max-width: 100px; text-align: start;" xmlns="http://www.w3.org/1999/xhtml"><span class="nodeLabel"></span></div></foreignObject></g><g style="" transform="translate(-85.125, 73.5)" class="label attribute-type"><foreignObject height="24" width="59.671875"><div style="display: table-cell; white-space: nowrap; line-height: 1.5; max-width: 160px; text-align: start;" xmlns="http://www.w3.org/1999/xhtml"><span class="nodeLabel"><p>Boolean</p></span></div></foreignObject></g><g style="" transform="translate(8.203125, 73.5)" class="label attribute-name"><foreignObject height="24" width="67.484375"><div style="display: table-cell; white-space: nowrap; line-height: 1.5; max-width: 167px; text-align: start;" xmlns="http://www.w3.org/1999/xhtml"><span class="nodeLabel"><p>complete</p></span></div></foreignObject></g><g style="" transform="translate(110.125, 73.5)" class="label attribute-keys"><foreignObject height="0" width="0"><div style="display: table-cell; white-space: nowrap; line-height: 1.5; max-width: 100px; text-align: start;" xmlns="http://www.w3.org/1999/xhtml"><span class="nodeLabel"></span></div></foreignObject></g><g style="" transform="translate(110.125, 73.5)" class="label attribute-comment"><foreignObject height="0" width="0"><div style="display: table-cell; white-space: nowrap; line-height: 1.5; max-width: 100px; text-align: start;" xmlns="http://www.w3.org/1999/xhtml"><span class="nodeLabel"></span></div></foreignObject></g><g style="" transform="translate(-85.125, 116.25)" class="label attribute-type"><foreignObject height="24" width="68.328125"><div style="display: table-cell; white-space: nowrap; line-height: 1.5; max-width: 168px; text-align: start;" xmlns="http://www.w3.org/1999/xhtml"><span class="nodeLabel"><p>DateTime</p></span></div></foreignObject></g><g style="" transform="translate(8.203125, 116.25)" class="label attribute-name"><foreignObject height="24" width="76.921875"><div style="display: table-cell; white-space: nowrap; line-height: 1.5; max-width: 177px; text-align: start;" xmlns="http://www.w3.org/1999/xhtml"><span class="nodeLabel"><p>created_at</p></span></div></foreignObject></g><g style="" transform="translate(110.125, 116.25)" class="label attribute-keys"><foreignObject height="0" width="0"><div style="display: table-cell; white-space: nowrap; line-height: 1.5; max-width: 100px; text-align: start;" xmlns="http://www.w3.org/1999/xhtml"><span class="nodeLabel"></span></div></foreignObject></g><g style="" transform="translate(110.125, 116.25)" class="label attribute-comment"><foreignObject height="0" width="0"><div style="display: table-cell; white-space: nowrap; line-height: 1.5; max-width: 100px; text-align: start;" xmlns="http://www.w3.org/1999/xhtml"><span class="nodeLabel"></span></div></foreignObject></g><g style="" transform="translate(-85.125, 159)" class="label attribute-type"><foreignObject height="24" width="36.21875"><div style="display: table-cell; white-space: nowrap; line-height: 1.5; max-width: 136px; text-align: start;" xmlns="http://www.w3.org/1999/xhtml"><span class="nodeLabel"><p>UUID</p></span></div></foreignObject></g><g style="" transform="translate(8.203125, 159)" class="label attribute-name"><foreignObject height="24" width="52.8125"><div style="display: table-cell; white-space: nowrap; line-height: 1.5; max-width: 153px; text-align: start;" xmlns="http://www.w3.org/1999/xhtml"><span class="nodeLabel"><p>user_id</p></span></div></foreignObject></g><g style="" transform="translate(110.125, 159)" class="label attribute-keys"><foreignObject height="0" width="0"><div style="display: table-cell; white-space: nowrap; line-height: 1.5; max-width: 100px; text-align: start;" xmlns="http://www.w3.org/1999/xhtml"><span class="nodeLabel"></span></div></foreignObject></g><g style="" transform="translate(110.125, 159)" class="label attribute-comment"><foreignObject height="0" width="0"><div style="display: table-cell; white-space: nowrap; line-height: 1.5; max-width: 100px; text-align: start;" xmlns="http://www.w3.org/1999/xhtml"><span class="nodeLabel"></span></div></foreignObject></g><g class="divider"><path fill="none" stroke-width="1.3" stroke="#9370DB" d="M-97.625 -149.625 C-52.7513360208981 -149.625, -7.8776720417962025 -149.625, 97.625 -149.625 M-97.625 -149.625 C-27.230341534902777 -149.625, 43.164316930194445 -149.625, 97.625 -149.625"></path></g><g class="divider"><path fill="none" stroke-width="1.3" stroke="#9370DB" d="M-4.296875 -149.625 C-4.296875 -35.64396092605634, -4.296875 78.33707814788733, -4.296875 192.375 M-4.296875 -149.625 C-4.296875 -51.06999329415618, -4.296875 47.485013411687646, -4.296875 192.375"></path></g><g class="divider"><path fill="none" stroke-width="1.3" stroke="#9370DB" d="M-97.625 -106.875 C-57.96394800245017 -106.875, -18.302896004900333 -106.875, 97.625 -106.875 M-97.625 -106.875 C-22.904544161467854 -106.875, 51.81591167706429 -106.875, 97.625 -106.875"></path></g><g class="divider"><path fill="none" stroke-width="1.3" stroke="#9370DB" d="M-97.625 -64.125 C-55.899420972740614 -64.125, -14.173841945481229 -64.125, 97.625 -64.125 M-97.625 -64.125 C-54.33855897262489 -64.125, -11.052117945249776 -64.125, 97.625 -64.125"></path></g><g class="divider"><path fill="none" stroke-width="1.3" stroke="#9370DB" d="M-97.625 -21.375 C-25.678783126932814 -21.375, 46.26743374613437 -21.375, 97.625 -21.375 M-97.625 -21.375 C-23.36998779861115 -21.375, 50.8850244027777 -21.375, 97.625 -21.375"></path></g><g class="divider"><path fill="none" stroke-width="1.3" stroke="#9370DB" d="M-97.625 21.375 C-56.87365175885496 21.375, -16.122303517709923 21.375, 97.625 21.375 M-97.625 21.375 C-19.845171224933893 21.375, 57.934657550132215 21.375, 97.625 21.375"></path></g><g class="divider"><path fill="none" stroke-width="1.3" stroke="#9370DB" d="M-97.625 64.125 C-44.875707666871996 64.125, 7.873584666256008 64.125, 97.625 64.125 M-97.625 64.125 C-47.2187248198801 64.125, 3.187550360239797 64.125, 97.625 64.125"></path></g><g class="divider"><path fill="none" stroke-width="1.3" stroke="#9370DB" d="M-97.625 106.875 C-55.78179790629376 106.875, -13.938595812587522 106.875, 97.625 106.875 M-97.625 106.875 C-57.22704815299048 106.875, -16.829096305980954 106.875, 97.625 106.875"></path></g><g class="divider"><path fill="none" stroke-width="1.3" stroke="#9370DB" d="M-97.625 149.625 C-29.80905570312963 149.625, 38.00688859374074 149.625, 97.625 149.625 M-97.625 149.625 C-34.45029542535437 149.625, 28.72440914929126 149.625, 97.625 149.625"></path></g><g class="divider"><path fill="none" stroke-width="1.3" stroke="#9370DB" d="M-97.625 -149.625 C-52.58577516769126 -149.625, -7.54655033538252 -149.625, 97.625 -149.625 M-97.625 -149.625 C-26.11557942745638 -149.625, 45.39384114508724 -149.625, 97.625 -149.625"></path></g></g><g transform="translate(717.3984375, 958.125)" id="entity-PETTAG-2" class="node default"><g style=""><path fill="#ECECFF" stroke-width="0" stroke="none" d="M-66.3125 -64.125 L66.3125 -64.125 L66.3125 64.125 L-66.3125 64.125"></path><path fill="none" stroke-width="1.3" stroke="#9370DB" d="M-66.3125 -64.125 C-22.93851628009469 -64.125, 20.435467439810623 -64.125, 66.3125 -64.125 M-66.3125 -64.125 C-39.00118293963603 -64.125, -11.689865879272062 -64.125, 66.3125 -64.125 M66.3125 -64.125 C66.3125 -37.25481745549124, 66.3125 -10.384634910982484, 66.3125 64.125 M66.3125 -64.125 C66.3125 -20.887743735473386, 66.3125 22.34951252905323, 66.3125 64.125 M66.3125 64.125 C18.709703071979682 64.125, -28.893093856040636 64.125, -66.3125 64.125 M66.3125 64.125 C25.236555916831243 64.125, -15.839388166337514 64.125, -66.3125 64.125 M-66.3125 64.125 C-66.3125 15.461570926129205, -66.3125 -33.20185814774159, -66.3125 -64.125 M-66.3125 64.125 C-66.3125 17.605579979158783, -66.3125 -28.913840041682434, -66.3125 -64.125"></path></g><g class="row-rect-odd" style=""><path fill="hsl(240, 100%, 100%)" stroke-width="0" stroke="none" d="M-66.3125 -21.375 L66.3125 -21.375 L66.3125 21.375 L-66.3125 21.375"></path><path fill="none" stroke-width="1.3" stroke="#9370DB" d="M-66.3125 -21.375 C-17.459082803284467 -21.375, 31.394334393431066 -21.375, 66.3125 -21.375 M-66.3125 -21.375 C-19.888417861186866 -21.375, 26.535664277626267 -21.375, 66.3125 -21.375 M66.3125 -21.375 C66.3125 -9.531171739223035, 66.3125 2.3126565215539294, 66.3125 21.375 M66.3125 -21.375 C66.3125 -10.02171176506259, 66.3125 1.3315764698748183, 66.3125 21.375 M66.3125 21.375 C34.10328170127533 21.375, 1.8940634025506569 21.375, -66.3125 21.375 M66.3125 21.375 C20.111632254548233 21.375, -26.089235490903533 21.375, -66.3125 21.375 M-66.3125 21.375 C-66.3125 10.550455164068598, -66.3125 -0.27408967186280364, -66.3125 -21.375 M-66.3125 21.375 C-66.3125 11.329031438971997, -66.3125 1.283062877943994, -66.3125 -21.375"></path></g><g style="" transform="translate(-26.359375, -54.75)" class="label name"><foreignObject height="24" width="52.71875"><div style="display: table-cell; white-space: nowrap; line-height: 1.5; max-width: 153px; text-align: start;" xmlns="http://www.w3.org/1999/xhtml"><span class="nodeLabel"><p>PETTAG</p></span></div></foreignObject></g><g style="" transform="translate(-53.8125, -12)" class="label attribute-type"><foreignObject height="24" width="36.21875"><div style="display: table-cell; white-space: nowrap; line-height: 1.5; max-width: 136px; text-align: start;" xmlns="http://www.w3.org/1999/xhtml"><span class="nodeLabel"><p>UUID</p></span></div></foreignObject></g><g style="" transform="translate(7.40625, -12)" class="label attribute-name"><foreignObject height="24" width="46.40625"><div style="display: table-cell; white-space: nowrap; line-height: 1.5; max-width: 146px; text-align: start;" xmlns="http://www.w3.org/1999/xhtml"><span class="nodeLabel"><p>pet_id</p></span></div></foreignObject></g><g style="" transform="translate(78.8125, -12)" class="label attribute-keys"><foreignObject height="0" width="0"><div style="display: table-cell; white-space: nowrap; line-height: 1.5; max-width: 100px; text-align: start;" xmlns="http://www.w3.org/1999/xhtml"><span class="nodeLabel"></span></div></foreignObject></g><g style="" transform="translate(78.8125, -12)" class="label attribute-comment"><foreignObject height="0" width="0"><div style="display: table-cell; white-space: nowrap; line-height: 1.5; max-width: 100px; text-align: start;" xmlns="http://www.w3.org/1999/xhtml"><span class="nodeLabel"></span></div></foreignObject></g><g style="" transform="translate(-53.8125, 30.75)" class="label attribute-type"><foreignObject height="24" width="36.21875"><div style="display: table-cell; white-space: nowrap; line-height: 1.5; max-width: 136px; text-align: start;" xmlns="http://www.w3.org/1999/xhtml"><span class="nodeLabel"><p>UUID</p></span></div></foreignObject></g><g style="" transform="translate(7.40625, 30.75)" class="label attribute-name"><foreignObject height="24" width="45"><div style="display: table-cell; white-space: nowrap; line-height: 1.5; max-width: 145px; text-align: start;" xmlns="http://www.w3.org/1999/xhtml"><span class="nodeLabel"><p>tag_id</p></span></div></foreignObject></g><g style="" transform="translate(78.8125, 30.75)" class="label attribute-keys"><foreignObject height="0" width="0"><div style="display: table-cell; white-space: nowrap; line-height: 1.5; max-width: 100px; text-align: start;" xmlns="http://www.w3.org/1999/xhtml"><span class="nodeLabel"></span></div></foreignObject></g><g style="" transform="translate(78.8125, 30.75)" class="label attribute-comment"><foreignObject height="0" width="0"><div style="display: table-cell; white-space: nowrap; line-height: 1.5; max-width: 100px; text-align: start;" xmlns="http://www.w3.org/1999/xhtml"><span class="nodeLabel"></span></div></foreignObject></g><g class="divider"><path fill="none" stroke-width="1.3" stroke="#9370DB" d="M-66.3125 -21.375 C-24.214252400079324 -21.375, 17.88399519984135 -21.375, 66.3125 -21.375 M-66.3125 -21.375 C-15.719384588977299 -21.375, 34.8737308220454 -21.375, 66.3125 -21.375"></path></g><g class="divider"><path fill="none" stroke-width="1.3" stroke="#9370DB" d="M-5.09375 -21.375 C-5.09375 2.898808738364007, -5.09375 27.172617476728014, -5.09375 64.125 M-5.09375 -21.375 C-5.09375 -2.6645605823941487, -5.09375 16.045878835211703, -5.09375 64.125"></path></g><g class="divider"><path fill="none" stroke-width="1.3" stroke="#9370DB" d="M-66.3125 21.375 C-15.743462267980732 21.375, 34.825575464038536 21.375, 66.3125 21.375 M-66.3125 21.375 C-17.562057919667474 21.375, 31.188384160665052 21.375, 66.3125 21.375"></path></g><g class="divider"><path fill="none" stroke-width="1.3" stroke="#9370DB" d="M-66.3125 -21.375 C-35.43854963068922 -21.375, -4.564599261378433 -21.375, 66.3125 -21.375 M-66.3125 -21.375 C-39.60969690414524 -21.375, -12.906893808290476 -21.375, 66.3125 -21.375"></path></g></g><g transform="translate(754.6484375, 472.375)" id="entity-TAG-3" class="node default"><g style=""><path fill="#ECECFF" stroke-width="0" stroke="none" d="M-68.9453125 -64.125 L68.9453125 -64.125 L68.9453125 64.125 L-68.9453125 64.125"></path><path fill="none" stroke-width="1.3" stroke="#9370DB" d="M-68.9453125 -64.125 C-26.577648853041026 -64.125, 15.790014793917948 -64.125, 68.9453125 -64.125 M-68.9453125 -64.125 C-30.693552417732263 -64.125, 7.558207664535473 -64.125, 68.9453125 -64.125 M68.9453125 -64.125 C68.9453125 -18.790127153496464, 68.9453125 26.544745693007073, 68.9453125 64.125 M68.9453125 -64.125 C68.9453125 -19.830490384222436, 68.9453125 24.464019231555127, 68.9453125 64.125 M68.9453125 64.125 C31.134164622766356 64.125, -6.676983254467288 64.125, -68.9453125 64.125 M68.9453125 64.125 C23.910972331900602 64.125, -21.123367836198796 64.125, -68.9453125 64.125 M-68.9453125 64.125 C-68.9453125 12.953163120768416, -68.9453125 -38.21867375846317, -68.9453125 -64.125 M-68.9453125 64.125 C-68.9453125 15.220880268083782, -68.9453125 -33.683239463832436, -68.9453125 -64.125"></path></g><g class="row-rect-odd" style=""><path fill="hsl(240, 100%, 100%)" stroke-width="0" stroke="none" d="M-68.9453125 -21.375 L68.9453125 -21.375 L68.9453125 21.375 L-68.9453125 21.375"></path><path fill="none" stroke-width="1.3" stroke="#9370DB" d="M-68.9453125 -21.375 C-21.19451078939047 -21.375, 26.55629092121906 -21.375, 68.9453125 -21.375 M-68.9453125 -21.375 C-16.739698106586246 -21.375, 35.46591628682751 -21.375, 68.9453125 -21.375 M68.9453125 -21.375 C68.9453125 -4.368928043496123, 68.9453125 12.637143913007755, 68.9453125 21.375 M68.9453125 -21.375 C68.9453125 -7.014713911863069, 68.9453125 7.345572176273862, 68.9453125 21.375 M68.9453125 21.375 C30.441919947028126 21.375, -8.061472605943749 21.375, -68.9453125 21.375 M68.9453125 21.375 C15.100626588286389 21.375, -38.74405932342722 21.375, -68.9453125 21.375 M-68.9453125 21.375 C-68.9453125 7.682369093602873, -68.9453125 -6.010261812794255, -68.9453125 -21.375 M-68.9453125 21.375 C-68.9453125 7.112697643018253, -68.9453125 -7.149604713963495, -68.9453125 -21.375"></path></g><g style="" transform="translate(-13.2890625, -54.75)" class="label name"><foreignObject height="24" width="26.578125"><div style="display: table-cell; white-space: nowrap; line-height: 1.5; max-width: 127px; text-align: start;" xmlns="http://www.w3.org/1999/xhtml"><span class="nodeLabel"><p>TAG</p></span></div></foreignObject></g><g style="" transform="translate(-56.4453125, -12)" class="label attribute-type"><foreignObject height="24" width="36.21875"><div style="display: table-cell; white-space: nowrap; line-height: 1.5; max-width: 136px; text-align: start;" xmlns="http://www.w3.org/1999/xhtml"><span class="nodeLabel"><p>UUID</p></span></div></foreignObject></g><g style="" transform="translate(11.4453125, -12)" class="label attribute-name"><foreignObject height="24" width="45"><div style="display: table-cell; white-space: nowrap; line-height: 1.5; max-width: 145px; text-align: start;" xmlns="http://www.w3.org/1999/xhtml"><span class="nodeLabel"><p>tag_id</p></span></div></foreignObject></g><g style="" transform="translate(81.4453125, -12)" class="label attribute-keys"><foreignObject height="0" width="0"><div style="display: table-cell; white-space: nowrap; line-height: 1.5; max-width: 100px; text-align: start;" xmlns="http://www.w3.org/1999/xhtml"><span class="nodeLabel"></span></div></foreignObject></g><g style="" transform="translate(81.4453125, -12)" class="label attribute-comment"><foreignObject height="0" width="0"><div style="display: table-cell; white-space: nowrap; line-height: 1.5; max-width: 100px; text-align: start;" xmlns="http://www.w3.org/1999/xhtml"><span class="nodeLabel"></span></div></foreignObject></g><g style="" transform="translate(-56.4453125, 30.75)" class="label attribute-type"><foreignObject height="24" width="42.890625"><div style="display: table-cell; white-space: nowrap; line-height: 1.5; max-width: 144px; text-align: start;" xmlns="http://www.w3.org/1999/xhtml"><span class="nodeLabel"><p>String</p></span></div></foreignObject></g><g style="" transform="translate(11.4453125, 30.75)" class="label attribute-name"><foreignObject height="24" width="40.515625"><div style="display: table-cell; white-space: nowrap; line-height: 1.5; max-width: 141px; text-align: start;" xmlns="http://www.w3.org/1999/xhtml"><span class="nodeLabel"><p>name</p></span></div></foreignObject></g><g style="" transform="translate(81.4453125, 30.75)" class="label attribute-keys"><foreignObject height="0" width="0"><div style="display: table-cell; white-space: nowrap; line-height: 1.5; max-width: 100px; text-align: start;" xmlns="http://www.w3.org/1999/xhtml"><span class="nodeLabel"></span></div></foreignObject></g><g style="" transform="translate(81.4453125, 30.75)" class="label attribute-comment"><foreignObject height="0" width="0"><div style="display: table-cell; white-space: nowrap; line-height: 1.5; max-width: 100px; text-align: start;" xmlns="http://www.w3.org/1999/xhtml"><span class="nodeLabel"></span></div></foreignObject></g><g class="divider"><path fill="none" stroke-width="1.3" stroke="#9370DB" d="M-68.9453125 -21.375 C-22.78461001308097 -21.375, 23.376092473838057 -21.375, 68.9453125 -21.375 M-68.9453125 -21.375 C-16.06874808056189 -21.375, 36.80781633887622 -21.375, 68.9453125 -21.375"></path></g><g class="divider"><path fill="none" stroke-width="1.3" stroke="#9370DB" d="M-1.0546875 -21.375 C-1.0546875 -1.9848147242781273, -1.0546875 17.405370551443745, -1.0546875 64.125 M-1.0546875 -21.375 C-1.0546875 0.24832594620120219, -1.0546875 21.871651892402404, -1.0546875 64.125"></path></g><g class="divider"><path fill="none" stroke-width="1.3" stroke="#9370DB" d="M-68.9453125 21.375 C-24.78895900885186 21.375, 19.367394482296277 21.375, 68.9453125 21.375 M-68.9453125 21.375 C-34.8447617395585 21.375, -0.7442109791169997 21.375, 68.9453125 21.375"></path></g><g class="divider"><path fill="none" stroke-width="1.3" stroke="#9370DB" d="M-68.9453125 -21.375 C-36.27278445916626 -21.375, -3.6002564183325205 -21.375, 68.9453125 -21.375 M-68.9453125 -21.375 C-14.184688073813497 -21.375, 40.575936352373006 -21.375, 68.9453125 -21.375"></path></g></g><g transform="translate(109.078125, 93.5)" id="entity-CATEGORY-4" class="node default"><g style=""><path fill="#ECECFF" stroke-width="0" stroke="none" d="M-88.359375 -85.5 L88.359375 -85.5 L88.359375 85.5 L-88.359375 85.5"></path><path fill="none" stroke-width="1.3" stroke="#9370DB" d="M-88.359375 -85.5 C-46.78173462062237 -85.5, -5.204094241244746 -85.5, 88.359375 -85.5 M-88.359375 -85.5 C-36.08738984664706 -85.5, 16.184595306705873 -85.5, 88.359375 -85.5 M88.359375 -85.5 C88.359375 -21.771041444072537, 88.359375 41.957917111854925, 88.359375 85.5 M88.359375 -85.5 C88.359375 -25.640329820622476, 88.359375 34.21934035875505, 88.359375 85.5 M88.359375 85.5 C25.993393302731647 85.5, -36.372588394536706 85.5, -88.359375 85.5 M88.359375 85.5 C24.470699693066265 85.5, -39.41797561386747 85.5, -88.359375 85.5 M-88.359375 85.5 C-88.359375 44.24149563716942, -88.359375 2.9829912743388434, -88.359375 -85.5 M-88.359375 85.5 C-88.359375 50.70805505323074, -88.359375 15.916110106461474, -88.359375 -85.5"></path></g><g class="row-rect-odd" style=""><path fill="hsl(240, 100%, 100%)" stroke-width="0" stroke="none" d="M-88.359375 42.75 L88.359375 42.75 L88.359375 85.5 L-88.359375 85.5"></path><path fill="none" stroke-width="1.3" stroke="#9370DB" d="M-88.359375 42.75 C-37.7229753398612 42.75, 12.9134243202776 42.75, 88.359375 42.75 M-88.359375 42.75 C-32.008034719721046 42.75, 24.34330556055791 42.75, 88.359375 42.75 M88.359375 42.75 C88.359375 57.302629910708184, 88.359375 71.85525982141637, 88.359375 85.5 M88.359375 42.75 C88.359375 55.66697749125237, 88.359375 68.58395498250474, 88.359375 85.5 M88.359375 85.5 C24.52984754132722 85.5, -39.29967991734556 85.5, -88.359375 85.5 M88.359375 85.5 C27.263644800168628 85.5, -33.832085399662745 85.5, -88.359375 85.5 M-88.359375 85.5 C-88.359375 73.76167106290688, -88.359375 62.02334212581377, -88.359375 42.75 M-88.359375 85.5 C-88.359375 72.90381511501919, -88.359375 60.30763023003837, -88.359375 42.75"></path></g><g class="row-rect-even" style=""><path fill="hsl(240, 100%, 100%)" stroke-width="0" stroke="none" d="M-88.359375 -42.75 L88.359375 -42.75 L88.359375 0 L-88.359375 0"></path><path fill="none" stroke-width="1.3" stroke="#9370DB" d="M-88.359375 -42.75 C-33.597511974302265 -42.75, 21.16435105139547 -42.75, 88.359375 -42.75 M-88.359375 -42.75 C-47.30092537102099 -42.75, -6.242475742041975 -42.75, 88.359375 -42.75 M88.359375 -42.75 C88.359375 -27.535710386251726, 88.359375 -12.321420772503451, 88.359375 0 M88.359375 -42.75 C88.359375 -28.98366508946784, 88.359375 -15.217330178935686, 88.359375 0 M88.359375 0 C19.06751608135329 0, -50.22434283729342 0, -88.359375 0 M88.359375 0 C50.990543158509 0, 13.621711317017997 0, -88.359375 0 M-88.359375 0 C-88.359375 -13.238190589956059, -88.359375 -26.476381179912117, -88.359375 -42.75 M-88.359375 0 C-88.359375 -9.537141653802143, -88.359375 -19.074283307604286, -88.359375 -42.75"></path></g><g style="" transform="translate(-36.6015625, -76.125)" class="label name"><foreignObject height="24" width="73.203125"><div style="display: table-cell; white-space: nowrap; line-height: 1.5; max-width: 173px; text-align: start;" xmlns="http://www.w3.org/1999/xhtml"><span class="nodeLabel"><p>CATEGORY</p></span></div></foreignObject></g><g style="" transform="translate(-75.859375, -33.375)" class="label attribute-type"><foreignObject height="24" width="36.21875"><div style="display: table-cell; white-space: nowrap; line-height: 1.5; max-width: 136px; text-align: start;" xmlns="http://www.w3.org/1999/xhtml"><span class="nodeLabel"><p>UUID</p></span></div></foreignObject></g><g style="" transform="translate(-7.96875, -33.375)" class="label attribute-name"><foreignObject height="24" width="83.828125"><div style="display: table-cell; white-space: nowrap; line-height: 1.5; max-width: 184px; text-align: start;" xmlns="http://www.w3.org/1999/xhtml"><span class="nodeLabel"><p>category_id</p></span></div></foreignObject></g><g style="" transform="translate(100.859375, -33.375)" class="label attribute-keys"><foreignObject height="0" width="0"><div style="display: table-cell; white-space: nowrap; line-height: 1.5; max-width: 100px; text-align: start;" xmlns="http://www.w3.org/1999/xhtml"><span class="nodeLabel"></span></div></foreignObject></g><g style="" transform="translate(100.859375, -33.375)" class="label attribute-comment"><foreignObject height="0" width="0"><div style="display: table-cell; white-space: nowrap; line-height: 1.5; max-width: 100px; text-align: start;" xmlns="http://www.w3.org/1999/xhtml"><span class="nodeLabel"></span></div></foreignObject></g><g style="" transform="translate(-75.859375, 9.375)" class="label attribute-type"><foreignObject height="24" width="42.890625"><div style="display: table-cell; white-space: nowrap; line-height: 1.5; max-width: 144px; text-align: start;" xmlns="http://www.w3.org/1999/xhtml"><span class="nodeLabel"><p>String</p></span></div></foreignObject></g><g style="" transform="translate(-7.96875, 9.375)" class="label attribute-name"><foreignObject height="24" width="40.515625"><div style="display: table-cell; white-space: nowrap; line-height: 1.5; max-width: 141px; text-align: start;" xmlns="http://www.w3.org/1999/xhtml"><span class="nodeLabel"><p>name</p></span></div></foreignObject></g><g style="" transform="translate(100.859375, 9.375)" class="label attribute-keys"><foreignObject height="0" width="0"><div style="display: table-cell; white-space: nowrap; line-height: 1.5; max-width: 100px; text-align: start;" xmlns="http://www.w3.org/1999/xhtml"><span class="nodeLabel"></span></div></foreignObject></g><g style="" transform="translate(100.859375, 9.375)" class="label attribute-comment"><foreignObject height="0" width="0"><div style="display: table-cell; white-space: nowrap; line-height: 1.5; max-width: 100px; text-align: start;" xmlns="http://www.w3.org/1999/xhtml"><span class="nodeLabel"></span></div></foreignObject></g><g style="" transform="translate(-75.859375, 52.125)" class="label attribute-type"><foreignObject height="24" width="42.890625"><div style="display: table-cell; white-space: nowrap; line-height: 1.5; max-width: 144px; text-align: start;" xmlns="http://www.w3.org/1999/xhtml"><span class="nodeLabel"><p>String</p></span></div></foreignObject></g><g style="" transform="translate(-7.96875, 52.125)" class="label attribute-name"><foreignObject height="24" width="82.609375"><div style="display: table-cell; white-space: nowrap; line-height: 1.5; max-width: 183px; text-align: start;" xmlns="http://www.w3.org/1999/xhtml"><span class="nodeLabel"><p>description</p></span></div></foreignObject></g><g style="" transform="translate(100.859375, 52.125)" class="label attribute-keys"><foreignObject height="0" width="0"><div style="display: table-cell; white-space: nowrap; line-height: 1.5; max-width: 100px; text-align: start;" xmlns="http://www.w3.org/1999/xhtml"><span class="nodeLabel"></span></div></foreignObject></g><g style="" transform="translate(100.859375, 52.125)" class="label attribute-comment"><foreignObject height="0" width="0"><div style="display: table-cell; white-space: nowrap; line-height: 1.5; max-width: 100px; text-align: start;" xmlns="http://www.w3.org/1999/xhtml"><span class="nodeLabel"></span></div></foreignObject></g><g class="divider"><path fill="none" stroke-width="1.3" stroke="#9370DB" d="M-88.359375 -42.75 C-27.90218528912061 -42.75, 32.55500442175878 -42.75, 88.359375 -42.75 M-88.359375 -42.75 C-51.55652666667182 -42.75, -14.753678333343643 -42.75, 88.359375 -42.75"></path></g><g class="divider"><path fill="none" stroke-width="1.3" stroke="#9370DB" d="M-20.46875 -42.75 C-20.46875 3.384635793657729, -20.46875 49.51927158731546, -20.46875 85.5 M-20.46875 -42.75 C-20.46875 5.4639293952297905, -20.46875 53.67785879045958, -20.46875 85.5"></path></g><g class="divider"><path fill="none" stroke-width="1.3" stroke="#9370DB" d="M-88.359375 0 C-40.24398329223754 0, 7.871408415524925 0, 88.359375 0 M-88.359375 0 C-21.803319427670232 0, 44.752736144659536 0, 88.359375 0"></path></g><g class="divider"><path fill="none" stroke-width="1.3" stroke="#9370DB" d="M-88.359375 42.75 C-43.39045159491653 42.75, 1.5784718101669455 42.75, 88.359375 42.75 M-88.359375 42.75 C-27.29429323448857 42.75, 33.77078853102286 42.75, 88.359375 42.75"></path></g><g class="divider"><path fill="none" stroke-width="1.3" stroke="#9370DB" d="M-88.359375 -42.75 C-51.11846912471838 -42.75, -13.877563249436761 -42.75, 88.359375 -42.75 M-88.359375 -42.75 C-19.142631835255955 -42.75, 50.07411132948809 -42.75, 88.359375 -42.75"></path></g></g><g transform="translate(447.9296875, 472.375)" id="entity-USER-5" class="node default"><g style=""><path fill="#ECECFF" stroke-width="0" stroke="none" d="M-97.7734375 -192.375 L97.7734375 -192.375 L97.7734375 192.375 L-97.7734375 192.375"></path><path fill="none" stroke-width="1.3" stroke="#9370DB" d="M-97.7734375 -192.375 C-21.998775899083142 -192.375, 53.775885701833715 -192.375, 97.7734375 -192.375 M-97.7734375 -192.375 C-47.585711303286594 -192.375, 2.602014893426812 -192.375, 97.7734375 -192.375 M97.7734375 -192.375 C97.7734375 -68.15062802523792, 97.7734375 56.07374394952416, 97.7734375 192.375 M97.7734375 -192.375 C97.7734375 -66.21369995749056, 97.7734375 59.94760008501888, 97.7734375 192.375 M97.7734375 192.375 C39.58174262525531 192.375, -18.609952249489382 192.375, -97.7734375 192.375 M97.7734375 192.375 C37.99814084481321 192.375, -21.777155810373586 192.375, -97.7734375 192.375 M-97.7734375 192.375 C-97.7734375 96.40455488676183, -97.7734375 0.43410977352365876, -97.7734375 -192.375 M-97.7734375 192.375 C-97.7734375 99.47091827719433, -97.7734375 6.566836554388658, -97.7734375 -192.375"></path></g><g class="row-rect-odd" style=""><path fill="hsl(240, 100%, 100%)" stroke-width="0" stroke="none" d="M-97.7734375 -64.125 L97.7734375 -64.125 L97.7734375 -21.375 L-97.7734375 -21.375"></path><path fill="none" stroke-width="1.3" stroke="#9370DB" d="M-97.7734375 -64.125 C-44.758696082143025 -64.125, 8.25604533571395 -64.125, 97.7734375 -64.125 M-97.7734375 -64.125 C-56.05820813730839 -64.125, -14.342978774616782 -64.125, 97.7734375 -64.125 M97.7734375 -64.125 C97.7734375 -50.296677841730244, 97.7734375 -36.46835568346049, 97.7734375 -21.375 M97.7734375 -64.125 C97.7734375 -50.419429808579935, 97.7734375 -36.713859617159876, 97.7734375 -21.375 M97.7734375 -21.375 C26.274017712079896 -21.375, -45.22540207584021 -21.375, -97.7734375 -21.375 M97.7734375 -21.375 C55.71049188973729 -21.375, 13.647546279474582 -21.375, -97.7734375 -21.375 M-97.7734375 -21.375 C-97.7734375 -35.95107909589865, -97.7734375 -50.5271581917973, -97.7734375 -64.125 M-97.7734375 -21.375 C-97.7734375 -30.83325200392936, -97.7734375 -40.29150400785872, -97.7734375 -64.125"></path></g><g class="row-rect-even" style=""><path fill="hsl(240, 100%, 97.2745098039%)" stroke-width="0" stroke="none" d="M-97.7734375 -21.375 L97.7734375 -21.375 L97.7734375 21.375 L-97.7734375 21.375"></path><path fill="none" stroke-width="1.3" stroke="#9370DB" d="M-97.7734375 -21.375 C-52.65593782684451 -21.375, -7.538438153689015 -21.375, 97.7734375 -21.375 M-97.7734375 -21.375 C-41.94495359615703 -21.375, 13.883530307685945 -21.375, 97.7734375 -21.375 M97.7734375 -21.375 C97.7734375 -7.092465108240084, 97.7734375 7.1900697835198315, 97.7734375 21.375 M97.7734375 -21.375 C97.7734375 -9.757346814979408, 97.7734375 1.860306370041183, 97.7734375 21.375 M97.7734375 21.375 C34.77596245690583 21.375, -28.22151258618834 21.375, -97.7734375 21.375 M97.7734375 21.375 C25.44942797966486 21.375, -46.87458154067028 21.375, -97.7734375 21.375 M-97.7734375 21.375 C-97.7734375 8.051075159853843, -97.7734375 -5.272849680292314, -97.7734375 -21.375 M-97.7734375 21.375 C-97.7734375 5.70363289339692, -97.7734375 -9.96773421320616, -97.7734375 -21.375"></path></g><g class="row-rect-odd" style=""><path fill="hsl(240, 100%, 100%)" stroke-width="0" stroke="none" d="M-97.7734375 21.375 L97.7734375 21.375 L97.7734375 64.125 L-97.7734375 64.125"></path><path fill="none" stroke-width="1.3" stroke="#9370DB" d="M-97.7734375 21.375 C-49.23348254508588 21.375, -0.6935275901717546 21.375, 97.7734375 21.375 M-97.7734375 21.375 C-21.211688845467393 21.375, 55.350059809065215 21.375, 97.7734375 21.375 M97.7734375 21.375 C97.7734375 35.08272020173284, 97.7734375 48.790440403465674, 97.7734375 64.125 M97.7734375 21.375 C97.7734375 30.40427185630476, 97.7734375 39.43354371260952, 97.7734375 64.125 M97.7734375 64.125 C37.3955859188243 64.125, -22.982265662351395 64.125, -97.7734375 64.125 M97.7734375 64.125 C26.016443062730346 64.125, -45.74055137453931 64.125, -97.7734375 64.125 M-97.7734375 64.125 C-97.7734375 49.2757150388512, -97.7734375 34.426430077702406, -97.7734375 21.375 M-97.7734375 64.125 C-97.7734375 54.322932843198046, -97.7734375 44.52086568639609, -97.7734375 21.375"></path></g><g class="row-rect-even" style=""><path fill="hsl(240, 100%, 97.2745098039%)" stroke-width="0" stroke="none" d="M-97.7734375 64.125 L97.7734375 64.125 L97.7734375 106.875 L-97.7734375 106.875"></path><path fill="none" stroke-width="1.3" stroke="#9370DB" d="M-97.7734375 64.125 C-28.531959307163078 64.125, 40.709518885673845 64.125, 97.7734375 64.125 M-97.7734375 64.125 C-32.03598016840577 64.125, 33.70147716318846 64.125, 97.7734375 64.125 M97.7734375 64.125 C97.7734375 74.24181772215007, 97.7734375 84.35863544430015, 97.7734375 106.875 M97.7734375 64.125 C97.7734375 75.86737332314858, 97.7734375 87.60974664629717, 97.7734375 106.875 M97.7734375 106.875 C39.649929712516766 106.875, -18.47357807496647 106.875, -97.7734375 106.875 M97.7734375 106.875 C39.403804300383065 106.875, -18.96582889923387 106.875, -97.7734375 106.875 M-97.7734375 106.875 C-97.7734375 91.06706678030838, -97.7734375 75.25913356061676, -97.7734375 64.125 M-97.7734375 106.875 C-97.7734375 90.03731940884663, -97.7734375 73.19963881769327, -97.7734375 64.125"></path></g><g class="row-rect-odd" style=""><path fill="hsl(240, 100%, 100%)" stroke-width="0" stroke="none" d="M-97.7734375 106.875 L97.7734375 106.875 L97.7734375 149.625 L-97.7734375 149.625"></path><path fill="none" stroke-width="1.3" stroke="#9370DB" d="M-97.7734375 106.875 C-54.30659833498362 106.875, -10.839759169967238 106.875, 97.7734375 106.875 M-97.7734375 106.875 C-24.460484857672157 106.875, 48.85246778465569 106.875, 97.7734375 106.875 M97.7734375 106.875 C97.7734375 122.06571454503808, 97.7734375 137.25642909007615, 97.7734375 149.625 M97.7734375 106.875 C97.7734375 123.95371604735719, 97.7734375 141.03243209471438, 97.7734375 149.625 M97.7734375 149.625 C23.439424292072744 149.625, -50.89458891585451 149.625, -97.7734375 149.625 M97.7734375 149.625 C36.17484574793117 149.625, -25.423746004137655 149.625, -97.7734375 149.625 M-97.7734375 149.625 C-97.7734375 136.3882002564832, -97.7734375 123.1514005129664, -97.7734375 106.875 M-97.7734375 149.625 C-97.7734375 138.1791776961196, -97.7734375 126.73335539223922, -97.7734375 106.875"></path></g><g class="row-rect-even" style=""><path fill="hsl(240, 100%, 97.2745098039%)" stroke-width="0" stroke="none" d="M-97.7734375 149.625 L97.7734375 149.625 L97.7734375 192.375 L-97.7734375 192.375"></path><path fill="none" stroke-width="1.3" stroke="#9370DB" d="M-97.7734375 149.625 C-33.14889419849972 149.625, 31.475649103000563 149.625, 97.7734375 149.625 M-97.7734375 149.625 C-25.478054121630734 149.625, 46.81732925673853 149.625, 97.7734375 149.625 M97.7734375 149.625 C97.7734375 164.82395231117644, 97.7734375 180.02290462235288, 97.7734375 192.375 M97.7734375 149.625 C97.7734375 166.1580184933105, 97.7734375 182.691036986621, 97.7734375 192.375 M97.7734375 192.375 C20.416450162503963 192.375, -56.94053717499207 192.375, -97.7734375 192.375 M97.7734375 192.375 C39.0223676560305 192.375, -19.728702187939007 192.375, -97.7734375 192.375 M-97.7734375 192.375 C-97.7734375 178.27499737995427, -97.7734375 164.17499475990857, -97.7734375 149.625 M-97.7734375 192.375 C-97.7734375 176.10129517098534, -97.7734375 159.82759034197068, -97.7734375 149.625"></path></g><g class="row-rect-odd" style=""><path fill="hsl(240, 100%, 100%)" stroke-width="0" stroke="none" d="M-97.7734375 -149.625 L97.7734375 -149.625 L97.7734375 -106.875 L-97.7734375 -106.875"></path><path fill="none" stroke-width="1.3" stroke="#9370DB" d="M-97.7734375 -149.625 C-28.090819884945958 -149.625, 41.591797730108084 -149.625, 97.7734375 -149.625 M-97.7734375 -149.625 C-32.697123821765175 -149.625, 32.37918985646965 -149.625, 97.7734375 -149.625 M97.7734375 -149.625 C97.7734375 -134.0908962204982, 97.7734375 -118.55679244099639, 97.7734375 -106.875 M97.7734375 -149.625 C97.7734375 -137.69198162680135, 97.7734375 -125.75896325360269, 97.7734375 -106.875 M97.7734375 -106.875 C51.28353471993915 -106.875, 4.793631939878296 -106.875, -97.7734375 -106.875 M97.7734375 -106.875 C37.267853324671115 -106.875, -23.23773085065777 -106.875, -97.7734375 -106.875 M-97.7734375 -106.875 C-97.7734375 -122.14096038497111, -97.7734375 -137.40692076994222, -97.7734375 -149.625 M-97.7734375 -106.875 C-97.7734375 -119.08765163064128, -97.7734375 -131.30030326128255, -97.7734375 -149.625"></path></g><g style="" transform="translate(-18.7265625, -183)" class="label name"><foreignObject height="24" width="37.453125"><div style="display: table-cell; white-space: nowrap; line-height: 1.5; max-width: 138px; text-align: start;" xmlns="http://www.w3.org/1999/xhtml"><span class="nodeLabel"><p>USER</p></span></div></foreignObject></g><g style="" transform="translate(-85.2734375, -140.25)" class="label attribute-type"><foreignObject height="24" width="36.21875"><div style="display: table-cell; white-space: nowrap; line-height: 1.5; max-width: 136px; text-align: start;" xmlns="http://www.w3.org/1999/xhtml"><span class="nodeLabel"><p>UUID</p></span></div></foreignObject></g><g style="" transform="translate(8.0546875, -140.25)" class="label attribute-name"><foreignObject height="24" width="52.8125"><div style="display: table-cell; white-space: nowrap; line-height: 1.5; max-width: 153px; text-align: start;" xmlns="http://www.w3.org/1999/xhtml"><span class="nodeLabel"><p>user_id</p></span></div></foreignObject></g><g style="" transform="translate(110.2734375, -140.25)" class="label attribute-keys"><foreignObject height="0" width="0"><div style="display: table-cell; white-space: nowrap; line-height: 1.5; max-width: 100px; text-align: start;" xmlns="http://www.w3.org/1999/xhtml"><span class="nodeLabel"></span></div></foreignObject></g><g style="" transform="translate(110.2734375, -140.25)" class="label attribute-comment"><foreignObject height="0" width="0"><div style="display: table-cell; white-space: nowrap; line-height: 1.5; max-width: 100px; text-align: start;" xmlns="http://www.w3.org/1999/xhtml"><span class="nodeLabel"></span></div></foreignObject></g><g style="" transform="translate(-85.2734375, -97.5)" class="label attribute-type"><foreignObject height="24" width="42.890625"><div style="display: table-cell; white-space: nowrap; line-height: 1.5; max-width: 144px; text-align: start;" xmlns="http://www.w3.org/1999/xhtml"><span class="nodeLabel"><p>String</p></span></div></foreignObject></g><g style="" transform="translate(8.0546875, -97.5)" class="label attribute-name"><foreignObject height="24" width="72.203125"><div style="display: table-cell; white-space: nowrap; line-height: 1.5; max-width: 172px; text-align: start;" xmlns="http://www.w3.org/1999/xhtml"><span class="nodeLabel"><p>username</p></span></div></foreignObject></g><g style="" transform="translate(110.2734375, -97.5)" class="label attribute-keys"><foreignObject height="0" width="0"><div style="display: table-cell; white-space: nowrap; line-height: 1.5; max-width: 100px; text-align: start;" xmlns="http://www.w3.org/1999/xhtml"><span class="nodeLabel"></span></div></foreignObject></g><g style="" transform="translate(110.2734375, -97.5)" class="label attribute-comment"><foreignObject height="0" width="0"><div style="display: table-cell; white-space: nowrap; line-height: 1.5; max-width: 100px; text-align: start;" xmlns="http://www.w3.org/1999/xhtml"><span class="nodeLabel"></span></div></foreignObject></g><g style="" transform="translate(-85.2734375, -54.75)" class="label attribute-type"><foreignObject height="24" width="42.890625"><div style="display: table-cell; white-space: nowrap; line-height: 1.5; max-width: 144px; text-align: start;" xmlns="http://www.w3.org/1999/xhtml"><span class="nodeLabel"><p>String</p></span></div></foreignObject></g><g style="" transform="translate(8.0546875, -54.75)" class="label attribute-name"><foreignObject height="24" width="77.21875"><div style="display: table-cell; white-space: nowrap; line-height: 1.5; max-width: 177px; text-align: start;" xmlns="http://www.w3.org/1999/xhtml"><span class="nodeLabel"><p>first_name</p></span></div></foreignObject></g><g style="" transform="translate(110.2734375, -54.75)" class="label attribute-keys"><foreignObject height="0" width="0"><div style="display: table-cell; white-space: nowrap; line-height: 1.5; max-width: 100px; text-align: start;" xmlns="http://www.w3.org/1999/xhtml"><span class="nodeLabel"></span></div></foreignObject></g><g style="" transform="translate(110.2734375, -54.75)" class="label attribute-comment"><foreignObject height="0" width="0"><div style="display: table-cell; white-space: nowrap; line-height: 1.5; max-width: 100px; text-align: start;" xmlns="http://www.w3.org/1999/xhtml"><span class="nodeLabel"></span></div></foreignObject></g><g style="" transform="translate(-85.2734375, -12)" class="label attribute-type"><foreignObject height="24" width="42.890625"><div style="display: table-cell; white-space: nowrap; line-height: 1.5; max-width: 144px; text-align: start;" xmlns="http://www.w3.org/1999/xhtml"><span class="nodeLabel"><p>String</p></span></div></foreignObject></g><g style="" transform="translate(8.0546875, -12)" class="label attribute-name"><foreignObject height="24" width="75.234375"><div style="display: table-cell; white-space: nowrap; line-height: 1.5; max-width: 175px; text-align: start;" xmlns="http://www.w3.org/1999/xhtml"><span class="nodeLabel"><p>last_name</p></span></div></foreignObject></g><g style="" transform="translate(110.2734375, -12)" class="label attribute-keys"><foreignObject height="0" width="0"><div style="display: table-cell; white-space: nowrap; line-height: 1.5; max-width: 100px; text-align: start;" xmlns="http://www.w3.org/1999/xhtml"><span class="nodeLabel"></span></div></foreignObject></g><g style="" transform="translate(110.2734375, -12)" class="label attribute-comment"><foreignObject height="0" width="0"><div style="display: table-cell; white-space: nowrap; line-height: 1.5; max-width: 100px; text-align: start;" xmlns="http://www.w3.org/1999/xhtml"><span class="nodeLabel"></span></div></foreignObject></g><g style="" transform="translate(-85.2734375, 30.75)" class="label attribute-type"><foreignObject height="24" width="42.890625"><div style="display: table-cell; white-space: nowrap; line-height: 1.5; max-width: 144px; text-align: start;" xmlns="http://www.w3.org/1999/xhtml"><span class="nodeLabel"><p>String</p></span></div></foreignObject></g><g style="" transform="translate(8.0546875, 30.75)" class="label attribute-name"><foreignObject height="24" width="40.34375"><div style="display: table-cell; white-space: nowrap; line-height: 1.5; max-width: 141px; text-align: start;" xmlns="http://www.w3.org/1999/xhtml"><span class="nodeLabel"><p>email</p></span></div></foreignObject></g><g style="" transform="translate(110.2734375, 30.75)" class="label attribute-keys"><foreignObject height="0" width="0"><div style="display: table-cell; white-space: nowrap; line-height: 1.5; max-width: 100px; text-align: start;" xmlns="http://www.w3.org/1999/xhtml"><span class="nodeLabel"></span></div></foreignObject></g><g style="" transform="translate(110.2734375, 30.75)" class="label attribute-comment"><foreignObject height="0" width="0"><div style="display: table-cell; white-space: nowrap; line-height: 1.5; max-width: 100px; text-align: start;" xmlns="http://www.w3.org/1999/xhtml"><span class="nodeLabel"></span></div></foreignObject></g><g style="" transform="translate(-85.2734375, 73.5)" class="label attribute-type"><foreignObject height="24" width="42.890625"><div style="display: table-cell; white-space: nowrap; line-height: 1.5; max-width: 144px; text-align: start;" xmlns="http://www.w3.org/1999/xhtml"><span class="nodeLabel"><p>String</p></span></div></foreignObject></g><g style="" transform="translate(8.0546875, 73.5)" class="label attribute-name"><foreignObject height="24" width="46.328125"><div style="display: table-cell; white-space: nowrap; line-height: 1.5; max-width: 146px; text-align: start;" xmlns="http://www.w3.org/1999/xhtml"><span class="nodeLabel"><p>phone</p></span></div></foreignObject></g><g style="" transform="translate(110.2734375, 73.5)" class="label attribute-keys"><foreignObject height="0" width="0"><div style="display: table-cell; white-space: nowrap; line-height: 1.5; max-width: 100px; text-align: start;" xmlns="http://www.w3.org/1999/xhtml"><span class="nodeLabel"></span></div></foreignObject></g><g style="" transform="translate(110.2734375, 73.5)" class="label attribute-comment"><foreignObject height="0" width="0"><div style="display: table-cell; white-space: nowrap; line-height: 1.5; max-width: 100px; text-align: start;" xmlns="http://www.w3.org/1999/xhtml"><span class="nodeLabel"></span></div></foreignObject></g><g style="" transform="translate(-85.2734375, 116.25)" class="label attribute-type"><foreignObject height="24" width="40.8125"><div style="display: table-cell; white-space: nowrap; line-height: 1.5; max-width: 141px; text-align: start;" xmlns="http://www.w3.org/1999/xhtml"><span class="nodeLabel"><p>Enum</p></span></div></foreignObject></g><g style="" transform="translate(8.0546875, 116.25)" class="label attribute-name"><foreignObject height="24" width="44.40625"><div style="display: table-cell; white-space: nowrap; line-height: 1.5; max-width: 144px; text-align: start;" xmlns="http://www.w3.org/1999/xhtml"><span class="nodeLabel"><p>status</p></span></div></foreignObject></g><g style="" transform="translate(110.2734375, 116.25)" class="label attribute-keys"><foreignObject height="0" width="0"><div style="display: table-cell; white-space: nowrap; line-height: 1.5; max-width: 100px; text-align: start;" xmlns="http://www.w3.org/1999/xhtml"><span class="nodeLabel"></span></div></foreignObject></g><g style="" transform="translate(110.2734375, 116.25)" class="label attribute-comment"><foreignObject height="0" width="0"><div style="display: table-cell; white-space: nowrap; line-height: 1.5; max-width: 100px; text-align: start;" xmlns="http://www.w3.org/1999/xhtml"><span class="nodeLabel"></span></div></foreignObject></g><g style="" transform="translate(-85.2734375, 159)" class="label attribute-type"><foreignObject height="24" width="68.328125"><div style="display: table-cell; white-space: nowrap; line-height: 1.5; max-width: 168px; text-align: start;" xmlns="http://www.w3.org/1999/xhtml"><span class="nodeLabel"><p>DateTime</p></span></div></foreignObject></g><g style="" transform="translate(8.0546875, 159)" class="label attribute-name"><foreignObject height="24" width="76.921875"><div style="display: table-cell; white-space: nowrap; line-height: 1.5; max-width: 177px; text-align: start;" xmlns="http://www.w3.org/1999/xhtml"><span class="nodeLabel"><p>created_at</p></span></div></foreignObject></g><g style="" transform="translate(110.2734375, 159)" class="label attribute-keys"><foreignObject height="0" width="0"><div style="display: table-cell; white-space: nowrap; line-height: 1.5; max-width: 100px; text-align: start;" xmlns="http://www.w3.org/1999/xhtml"><span class="nodeLabel"></span></div></foreignObject></g><g style="" transform="translate(110.2734375, 159)" class="label attribute-comment"><foreignObject height="0" width="0"><div style="display: table-cell; white-space: nowrap; line-height: 1.5; max-width: 100px; text-align: start;" xmlns="http://www.w3.org/1999/xhtml"><span class="nodeLabel"></span></div></foreignObject></g><g class="divider"><path fill="none" stroke-width="1.3" stroke="#9370DB" d="M-97.7734375 -149.625 C-27.421293466218685 -149.625, 42.93085056756263 -149.625, 97.7734375 -149.625 M-97.7734375 -149.625 C-31.564470128717574 -149.625, 34.64449724256485 -149.625, 97.7734375 -149.625"></path></g><g class="divider"><path fill="none" stroke-width="1.3" stroke="#9370DB" d="M-4.4453125 -149.625 C-4.4453125 -23.67112827757998, -4.4453125 102.28274344484004, -4.4453125 192.375 M-4.4453125 -149.625 C-4.4453125 -80.52941508070873, -4.4453125 -11.433830161417461, -4.4453125 192.375"></path></g><g class="divider"><path fill="none" stroke-width="1.3" stroke="#9370DB" d="M-97.7734375 -106.875 C-40.24008302077591 -106.875, 17.293271458448174 -106.875, 97.7734375 -106.875 M-97.7734375 -106.875 C-27.22360353060502 -106.875, 43.32623043878996 -106.875, 97.7734375 -106.875"></path></g><g class="divider"><path fill="none" stroke-width="1.3" stroke="#9370DB" d="M-97.7734375 -64.125 C-40.45729614268049 -64.125, 16.858845214639018 -64.125, 97.7734375 -64.125 M-97.7734375 -64.125 C-50.0292462581378 -64.125, -2.2850550162756065 -64.125, 97.7734375 -64.125"></path></g><g class="divider"><path fill="none" stroke-width="1.3" stroke="#9370DB" d="M-97.7734375 -21.375 C-47.766208862270986 -21.375, 2.241019775458028 -21.375, 97.7734375 -21.375 M-97.7734375 -21.375 C-53.14256148347428 -21.375, -8.511685466948563 -21.375, 97.7734375 -21.375"></path></g><g class="divider"><path fill="none" stroke-width="1.3" stroke="#9370DB" d="M-97.7734375 21.375 C-44.10704094123628 21.375, 9.559355617527444 21.375, 97.7734375 21.375 M-97.7734375 21.375 C-19.739291554427865 21.375, 58.29485439114427 21.375, 97.7734375 21.375"></path></g><g class="divider"><path fill="none" stroke-width="1.3" stroke="#9370DB" d="M-97.7734375 64.125 C-19.570256224544423 64.125, 58.632925050911155 64.125, 97.7734375 64.125 M-97.7734375 64.125 C-31.664346776183294 64.125, 34.44474394763341 64.125, 97.7734375 64.125"></path></g><g class="divider"><path fill="none" stroke-width="1.3" stroke="#9370DB" d="M-97.7734375 106.875 C-36.924618441466585 106.875, 23.92420061706683 106.875, 97.7734375 106.875 M-97.7734375 106.875 C-49.55047934554781 106.875, -1.327521191095613 106.875, 97.7734375 106.875"></path></g><g class="divider"><path fill="none" stroke-width="1.3" stroke="#9370DB" d="M-97.7734375 149.625 C-20.22893506362874 149.625, 57.31556737274252 149.625, 97.7734375 149.625 M-97.7734375 149.625 C-35.41812192404327 149.625, 26.93719365191346 149.625, 97.7734375 149.625"></path></g><g class="divider"><path fill="none" stroke-width="1.3" stroke="#9370DB" d="M-97.7734375 -149.625 C-55.618339792524495 -149.625, -13.46324208504899 -149.625, 97.7734375 -149.625 M-97.7734375 -149.625 C-44.87910603645113 -149.625, 8.015225427097747 -149.625, 97.7734375 -149.625"></path></g></g></g></g></g></svg>