<svg aria-roledescription="er" role="graphics-document document" viewBox="0 0 831.59375 1158.5" height="1158.5" class="erDiagram" xmlns="http://www.w3.org/2000/svg" width="831.59375" id="container"><style>#container{font-family:"trebuchet ms",verdana,arial,sans-serif;font-size:16px;fill:#333;}@keyframes edge-animation-frame{from{stroke-dashoffset:0;}}@keyframes dash{to{stroke-dashoffset:0;}}#container .edge-animation-slow{stroke-dasharray:9,5!important;stroke-dashoffset:900;animation:dash 50s linear infinite;stroke-linecap:round;}#container .edge-animation-fast{stroke-dasharray:9,5!important;stroke-dashoffset:900;animation:dash 20s linear infinite;stroke-linecap:round;}#container .error-icon{fill:#552222;}#container .error-text{fill:#552222;stroke:#552222;}#container .edge-thickness-normal{stroke-width:1px;}#container .edge-thickness-thick{stroke-width:3.5px;}#container .edge-pattern-solid{stroke-dasharray:0;}#container .edge-thickness-invisible{stroke-width:0;fill:none;}#container .edge-pattern-dashed{stroke-dasharray:3;}#container .edge-pattern-dotted{stroke-dasharray:2;}#container .marker{fill:#333333;stroke:#333333;}#container .marker.cross{stroke:#333333;}#container svg{font-family:"trebuchet ms",verdana,arial,sans-serif;font-size:16px;}#container p{margin:0;}#container .entityBox{fill:#ECECFF;stroke:#9370DB;}#container .relationshipLabelBox{fill:hsl(80, 100%, 96.2745098039%);opacity:0.7;background-color:hsl(80, 100%, 96.2745098039%);}#container .relationshipLabelBox rect{opacity:0.5;}#container .labelBkg{background-color:rgba(248.6666666666, 255, 235.9999999999, 0.5);}#container .edgeLabel .label{fill:#9370DB;font-size:14px;}#container .label{font-family:"trebuchet ms",verdana,arial,sans-serif;color:#333;}#container .edge-pattern-dashed{stroke-dasharray:8,8;}#container .node rect,#container .node circle,#container .node ellipse,#container .node polygon{fill:#ECECFF;stroke:#9370DB;stroke-width:1px;}#container .relationshipLine{stroke:#333333;stroke-width:1;fill:none;}#container .marker{fill:none!important;stroke:#333333!important;stroke-width:1;}#container :root{--mermaid-font-family:"trebuchet ms",verdana,arial,sans-serif;}</style><g><defs><marker orient="auto" markerHeight="18" markerWidth="18" refY="9" refX="0" class="marker onlyOne er" id="container_er-onlyOneStart"><path d="M9,0 L9,18 M15,0 L15,18"></path></marker></defs><defs><marker orient="auto" markerHeight="18" markerWidth="18" refY="9" refX="18" class="marker onlyOne er" id="container_er-onlyOneEnd"><path d="M3,0 L3,18 M9,0 L9,18"></path></marker></defs><defs><marker orient="auto" markerHeight="18" markerWidth="30" refY="9" refX="0" class="marker zeroOrOne er" id="container_er-zeroOrOneStart"><circle r="6" cy="9" cx="21" fill="white"></circle><path d="M9,0 L9,18"></path></marker></defs><defs><marker orient="auto" markerHeight="18" markerWidth="30" refY="9" refX="30" class="marker zeroOrOne er" id="container_er-zeroOrOneEnd"><circle r="6" cy="9" cx="9" fill="white"></circle><path d="M21,0 L21,18"></path></marker></defs><defs><marker orient="auto" markerHeight="36" markerWidth="45" refY="18" refX="18" class="marker oneOrMore er" id="container_er-oneOrMoreStart"><path d="M0,18 Q 18,0 36,18 Q 18,36 0,18 M42,9 L42,27"></path></marker></defs><defs><marker orient="auto" markerHeight="36" markerWidth="45" refY="18" refX="27" class="marker oneOrMore er" id="container_er-oneOrMoreEnd"><path d="M3,9 L3,27 M9,18 Q27,0 45,18 Q27,36 9,18"></path></marker></defs><defs><marker orient="auto" markerHeight="36" markerWidth="57" refY="18" refX="18" class="marker zeroOrMore er" id="container_er-zeroOrMoreStart"><circle r="6" cy="18" cx="48" fill="white"></circle><path d="M0,18 Q18,0 36,18 Q18,36 0,18"></path></marker></defs><defs><marker orient="auto" markerHeight="36" markerWidth="57" refY="18" refX="39" class="marker zeroOrMore er" id="container_er-zeroOrMoreEnd"><circle r="6" cy="18" cx="9" fill="white"></circle><path d="M21,18 Q39,0 57,18 Q39,36 21,18"></path></marker></defs><g class="root"><g class="clusters"></g><g class="edgePaths"><path marker-end="url(#container_er-oneOrMoreEnd)" marker-start="url(#container_er-onlyOneStart)" style="undefined;" class="edge-thickness-normal edge-pattern-solid relationshipLine" id="id_entity-PET-0_entity-ORDER-1_0" d="M109.078,643.375L109.078,655.354C109.078,667.333,109.078,691.292,109.078,711.688C109.078,732.083,109.078,748.917,109.078,757.333L109.078,765.75"></path><path marker-end="url(#container_er-zeroOrMoreEnd)" marker-start="url(#container_er-onlyOneStart)" style="undefined;" class="edge-thickness-normal edge-pattern-solid relationshipLine" id="id_entity-PET-0_entity-PETTAG-2_1" d="M210.156,523.45L273.419,555.417C336.681,587.383,463.206,651.317,542.128,713.075C621.051,774.833,652.371,834.417,668.031,864.208L683.691,894"></path><path marker-end="url(#container_er-zeroOrMoreEnd)" marker-start="url(#container_er-onlyOneStart)" style="undefined;" class="edge-thickness-normal edge-pattern-solid relationshipLine" id="id_entity-TAG-3_entity-PETTAG-2_2" d="M754.648,536.5L754.648,566.292C754.648,596.083,754.648,655.667,750.079,715.25C745.51,774.833,736.372,834.417,731.803,864.208L727.233,894"></path><path marker-end="url(#container_er-zeroOrMoreEnd)" marker-start="url(#container_er-onlyOneStart)" style="undefined;" class="edge-thickness-normal edge-pattern-solid relationshipLine" id="id_entity-CATEGORY-4_entity-PET-0_3" d="M109.078,179L109.078,187.417C109.078,195.833,109.078,212.667,109.078,233.063C109.078,253.458,109.078,277.417,109.078,289.396L109.078,301.375"></path><path marker-end="url(#container_er-zeroOrMoreEnd)" marker-start="url(#container_er-onlyOneStart)" style="undefined;" class="edge-thickness-normal edge-pattern-solid relationshipLine" id="id_entity-USER-5_entity-ORDER-1_4" d="M447.93,664.75L447.93,673.167C447.93,681.583,447.93,698.417,407.725,735.65C367.521,772.884,287.112,830.518,246.908,859.334L206.703,888.151"></path></g><g class="edgeLabels"><g transform="translate(109.078125, 715.25)" class="edgeLabel"><g transform="translate(-40.109375, -10.5)" class="label"><foreignObject height="21" width="80.21875"><div style="display: table-cell; white-space: nowrap; line-height: 1.5; max-width: 200px; text-align: center;" class="labelBkg" xmlns="http://www.w3.org/1999/xhtml"><span class="edgeLabel"><p>is ordered in</p></span></div></foreignObject></g></g><g transform="translate(589.73046875, 715.25)" class="edgeLabel"><g transform="translate(-11.109375, -10.5)" class="label"><foreignObject height="21" width="22.21875"><div style="display: table-cell; white-space: nowrap; line-height: 1.5; max-width: 200px; text-align: center;" class="labelBkg" xmlns="http://www.w3.org/1999/xhtml"><span class="edgeLabel"><p>has</p></span></div></foreignObject></g></g><g transform="translate(754.6484375, 715.25)" class="edgeLabel"><g transform="translate(-43.390625, -10.5)" class="label"><foreignObject height="21" width="86.78125"><div style="display: table-cell; white-space: nowrap; line-height: 1.5; max-width: 200px; text-align: center;" class="labelBkg" xmlns="http://www.w3.org/1999/xhtml"><span class="edgeLabel"><p>is assigned to</p></span></div></foreignObject></g></g><g transform="translate(109.078125, 229.5)" class="edgeLabel"><g transform="translate(-28.65625, -10.5)" class="label"><foreignObject height="21" width="57.3125"><div style="display: table-cell; white-space: nowrap; line-height: 1.5; max-width: 200px; text-align: center;" class="labelBkg" xmlns="http://www.w3.org/1999/xhtml"><span class="edgeLabel"><p>classifies</p></span></div></foreignObject></g></g><g transform="translate(447.9296875, 715.25)" class="edgeLabel"><g transform="translate(-20.2734375, -10.5)" class="label"><foreignObject height="21" width="40.546875"><div style="display: table-cell; white-space: nowrap; line-height: 1.5; max-width: 200px; text-align: center;" class="labelBkg" xmlns="http://www.w3.org/1999/xhtml"><span class="edgeLabel"><p>places</p></span></div></foreignObject></g></g></g><g class="nodes"><g transform="translate(109.078125, 472.375)" id="entity-PET-0" class="node default"><g style=""><path fill="#ECECFF" stroke-width="0" stroke="none" d="M-101.078125 -171 L101.078125 -171 L101.078125 171 L-101.078125 171"></path><path fill="none" stroke-width="1.3" stroke="#9370DB" d="M-101.078125 -171 C-59.63987019630354 -171, -18.20161539260708 -171, 101.078125 -171 M-101.078125 -171 C-24.763700740012197 -171, 51.550723519975605 -171, 101.078125 -171 M101.078125 -171 C101.078125 -101.45735093957842, 101.078125 -31.914701879156837, 101.078125 171 M101.078125 -171 C101.078125 -59.0699847848426, 101.078125 52.860030430314794, 101.078125 171 M101.078125 171 C21.649598965574015 171, -57.77892706885197 171, -101.078125 171 M101.078125 171 C44.807800272583634 171, -11.462524454832732 171, -101.078125 171 M-101.078125 171 C-101.078125 68.62691993718754, -101.078125 -33.746160125624925, -101.078125 -171 M-101.078125 171 C-101.078125 53.9081839493643, -101.078125 -63.1836321012714, -101.078125 -171"></path></g><g class="row-rect-odd" style=""><path fill="hsl(240, 100%, 100%)" stroke-width="0" stroke="none" d="M-101.078125 -42.75 L101.078125 -42.75 L101.078125 0 L-101.078125 0"></path><path fill="none" stroke-width="1.3" stroke="#9370DB" d="M-101.078125 -42.75 C-30.897568963596285 -42.75, 39.28298707280743 -42.75, 101.078125 -42.75 M-101.078125 -42.75 C-51.63574969014126 -42.75, -2.1933743802825205 -42.75, 101.078125 -42.75 M101.078125 -42.75 C101.078125 -29.25934889188541, 101.078125 -15.768697783770822, 101.078125 0 M101.078125 -42.75 C101.078125 -27.220275509044896, 101.078125 -11.690551018089788, 101.078125 0 M101.078125 0 C59.21067282865389 0, 17.343220657307782 0, -101.078125 0 M101.078125 0 C31.892732330062316 0, -37.29266033987537 0, -101.078125 0 M-101.078125 0 C-101.078125 -11.998478695991997, -101.078125 -23.996957391983994, -101.078125 -42.75 M-101.078125 0 C-101.078125 -12.30470692091087, -101.078125 -24.60941384182174, -101.078125 -42.75"></path></g><g class="row-rect-even" style=""><path fill="hsl(240, 100%, 97.2745098039%)" stroke-width="0" stroke="none" d="M-101.078125 0 L101.078125 0 L101.078125 42.75 L-101.078125 42.75"></path><path fill="none" stroke-width="1.3" stroke="#9370DB" d="M-101.078125 0 C-41.312897007309076 0, 18.45233098538185 0, 101.078125 0 M-101.078125 0 C-32.0162037423201 0, 37.0457175153598 0, 101.078125 0 M101.078125 0 C101.078125 13.079422161659863, 101.078125 26.158844323319727, 101.078125 42.75 M101.078125 0 C101.078125 11.312447019465967, 101.078125 22.624894038931934, 101.078125 42.75 M101.078125 42.75 C35.30315012575933 42.75, -30.47182474848134 42.75, -101.078125 42.75 M101.078125 42.75 C32.157338868693714 42.75, -36.76344726261257 42.75, -101.078125 42.75 M-101.078125 42.75 C-101.078125 32.422279628855605, -101.078125 22.094559257711204, -101.078125 0 M-101.078125 42.75 C-101.078125 29.037479505175888, -101.078125 15.324959010351773, -101.078125 0"></path></g><g class="row-rect-odd" style=""><path fill="hsl(240, 100%, 100%)" stroke-width="0" stroke="none" d="M-101.078125 42.75 L101.078125 42.75 L101.078125 85.5 L-101.078125 85.5"></path><path fill="none" stroke-width="1.3" stroke="#9370DB" d="M-101.078125 42.75 C-25.127807605755635 42.75, 50.82250978848873 42.75, 101.078125 42.75 M-101.078125 42.75 C-33.45830060044544 42.75, 34.16152379910912 42.75, 101.078125 42.75 M101.078125 42.75 C101.078125 53.59046988870767, 101.078125 64.43093977741535, 101.078125 85.5 M101.078125 42.75 C101.078125 51.96448312235161, 101.078125 61.17896624470322, 101.078125 85.5 M101.078125 85.5 C33.04203678644298 85.5, -34.994051427114044 85.5, -101.078125 85.5 M101.078125 85.5 C42.91752504612197 85.5, -15.243074907756053 85.5, -101.078125 85.5 M-101.078125 85.5 C-101.078125 68.43305901270529, -101.078125 51.36611802541056, -101.078125 42.75 M-101.078125 85.5 C-101.078125 76.04786425768556, -101.078125 66.59572851537112, -101.078125 42.75"></path></g><g class="row-rect-even" style=""><path fill="hsl(240, 100%, 97.2745098039%)" stroke-width="0" stroke="none" d="M-101.078125 85.5 L101.078125 85.5 L101.078125 128.25 L-101.078125 128.25"></path><path fill="none" stroke-width="1.3" stroke="#9370DB" d="M-101.078125 85.5 C-27.220223078750692 85.5, 46.637678842498616 85.5, 101.078125 85.5 M-101.078125 85.5 C-40.5071260305365 85.5, 20.063872938927005 85.5, 101.078125 85.5 M101.078125 85.5 C101.078125 96.45845582658768, 101.078125 107.41691165317535, 101.078125 128.25 M101.078125 85.5 C101.078125 96.29071099725545, 101.078125 107.08142199451089, 101.078125 128.25 M101.078125 128.25 C50.73206355305193 128.25, 0.38600210610385943 128.25, -101.078125 128.25 M101.078125 128.25 C36.672113172261035 128.25, -27.73389865547793 128.25, -101.078125 128.25 M-101.078125 128.25 C-101.078125 112.41151641118537, -101.078125 96.57303282237073, -101.078125 85.5 M-101.078125 128.25 C-101.078125 119.43507203213473, -101.078125 110.62014406426944, -101.078125 85.5"></path></g><g class="row-rect-odd" style=""><path fill="hsl(240, 100%, 100%)" stroke-width="0" stroke="none" d="M-101.078125 128.25 L101.078125 128.25 L101.078125 171 L-101.078125 171"></path><path fill="none" stroke-width="1.3" stroke="#9370DB" d="M-101.078125 128.25 C-47.40776601091286 128.25, 6.262592978174283 128.25, 101.078125 128.25 M-101.078125 128.25 C-37.562182742860905 128.25, 25.95375951427819 128.25, 101.078125 128.25 M101.078125 128.25 C101.078125 139.4277987460571, 101.078125 150.60559749211424, 101.078125 171 M101.078125 128.25 C101.078125 137.367187168872, 101.078125 146.484374337744, 101.078125 171 M101.078125 171 C35.56789164859164 171, -29.94234170281672 171, -101.078125 171 M101.078125 171 C34.05977465481419 171, -32.95857569037162 171, -101.078125 171 M-101.078125 171 C-101.078125 155.89249624614672, -101.078125 140.78499249229344, -101.078125 128.25 M-101.078125 171 C-101.078125 160.67567057488228, -101.078125 150.35134114976452, -101.078125 128.25"></path></g><g class="row-rect-even" style=""><path fill="hsl(240, 100%, 100%)" stroke-width="0" stroke="none" d="M-101.078125 -128.25 L101.078125 -128.25 L101.078125 -85.5 L-101.078125 -85.5"></path><path fill="none" stroke-width="1.3" stroke="#9370DB" d="M-101.078125 -128.25 C-53.07457803363538 -128.25, -5.071031067270766 -128.25, 101.078125 -128.25 M-101.078125 -128.25 C-38.68188423363612 -128.25, 23.714356532727763 -128.25, 101.078125 -128.25 M101.078125 -128.25 C101.078125 -115.76411466060026, 101.078125 -103.27822932120051, 101.078125 -85.5 M101.078125 -128.25 C101.078125 -113.93742946855781, 101.078125 -99.62485893711563, 101.078125 -85.5 M101.078125 -85.5 C41.37120223974792 -85.5, -18.335720520504154 -85.5, -101.078125 -85.5 M101.078125 -85.5 C40.45560828226868 -85.5, -20.166908435462645 -85.5, -101.078125 -85.5 M-101.078125 -85.5 C-101.078125 -94.20821744256057, -101.078125 -102.91643488512113, -101.078125 -128.25 M-101.078125 -85.5 C-101.078125 -100.54362738947171, -101.078125 -115.58725477894343, -101.078125 -128.25"></path></g><g style="" transform="translate(-13.0703125, -161.625)" class="label name"><foreignObject height="24" width="26.140625"><div style="display: table-cell; white-space: nowrap; line-height: 1.5; max-width: 127px; text-align: start;" xmlns="http://www.w3.org/1999/xhtml"><span class="nodeLabel"><p>PET</p></span></div></foreignObject></g><g style="" transform="translate(-88.578125, -118.875)" class="label attribute-type"><foreignObject height="24" width="36.21875"><div style="display: table-cell; white-space: nowrap; line-height: 1.5; max-width: 136px; text-align: start;" xmlns="http://www.w3.org/1999/xhtml"><span class="nodeLabel"><p>UUID</p></span></div></foreignObject></g><g style="" transform="translate(4.75, -118.875)" class="label attribute-name"><foreignObject height="24" width="46.40625"><div style="display: table-cell; white-space: nowrap; line-height: 1.5; max-width: 146px; text-align: start;" xmlns="http://www.w3.org/1999/xhtml"><span class="nodeLabel"><p>pet_id</p></span></div></foreignObject></g><g style="" transform="translate(113.578125, -118.875)" class="label attribute-keys"><foreignObject height="0" width="0"><div style="display: table-cell; white-space: nowrap; line-height: 1.5; max-width: 100px; text-align: start;" xmlns="http://www.w3.org/1999/xhtml"><span class="nodeLabel"></span></div></foreignObject></g><g style="" transform="translate(113.578125, -118.875)" class="label attribute-comment"><foreignObject height="0" width="0"><div style="display: table-cell; white-space: nowrap; line-height: 1.5; max-width: 100px; text-align: start;" xmlns="http://www.w3.org/1999/xhtml"><span class="nodeLabel"></span></div></foreignObject></g><g style="" transform="translate(-88.578125, -76.125)" class="label attribute-type"><foreignObject height="24" width="42.890625"><div style="display: table-cell; white-space: nowrap; line-height: 1.5; max-width: 144px; text-align: start;" xmlns="http://www.w3.org/1999/xhtml"><span class="nodeLabel"><p>String</p></span></div></foreignObject></g><g style="" transform="translate(4.75, -76.125)" class="label attribute-name"><foreignObject height="24" width="40.515625"><div style="display: table-cell; white-space: nowrap; line-height: 1.5; max-width: 141px; text-align: start;" xmlns="http://www.w3.org/1999/xhtml"><span class="nodeLabel"><p>name</p></span></div></foreignObject></g><g style="" transform="translate(113.578125, -76.125)" class="label attribute-keys"><foreignObject height="0" width="0"><div style="display: table-cell; white-space: nowrap; line-height: 1.5; max-width: 100px; text-align: start;" xmlns="http://www.w3.org/1999/xhtml"><span class="nodeLabel"></span></div></foreignObject></g><g style="" transform="translate(113.578125, -76.125)" class="label attribute-comment"><foreignObject height="0" width="0"><div style="display: table-cell; white-space: nowrap; line-height: 1.5; max-width: 100px; text-align: start;" xmlns="http://www.w3.org/1999/xhtml"><span class="nodeLabel"></span></div></foreignObject></g><g style="" transform="translate(-88.578125, -33.375)" class="label attribute-type"><foreignObject height="24" width="36.21875"><div style="display: table-cell; white-space: nowrap; line-height: 1.5; max-width: 136px; text-align: start;" xmlns="http://www.w3.org/1999/xhtml"><span class="nodeLabel"><p>UUID</p></span></div></foreignObject></g><g style="" transform="translate(4.75, -33.375)" class="label attribute-name"><foreignObject height="24" width="83.828125"><div style="display: table-cell; white-space: nowrap; line-height: 1.5; max-width: 184px; text-align: start;" xmlns="http://www.w3.org/1999/xhtml"><span class="nodeLabel"><p>category_id</p></span></div></foreignObject></g><g style="" transform="translate(113.578125, -33.375)" class="label attribute-keys"><foreignObject height="0" width="0"><div style="display: table-cell; white-space: nowrap; line-height: 1.5; max-width: 100px; text-align: start;" xmlns="http://www.w3.org/1999/xhtml"><span class="nodeLabel"></span></div></foreignObject></g><g style="" transform="translate(113.578125, -33.375)" class="label attribute-comment"><foreignObject height="0" width="0"><div style="display: table-cell; white-space: nowrap; line-height: 1.5; max-width: 100px; text-align: start;" xmlns="http://www.w3.org/1999/xhtml"><span class="nodeLabel"></span></div></foreignObject></g><g style="" transform="translate(-88.578125, 9.375)" class="label attribute-type"><foreignObject height="24" width="53.1875"><div style="display: table-cell; white-space: nowrap; line-height: 1.5; max-width: 153px; text-align: start;" xmlns="http://www.w3.org/1999/xhtml"><span class="nodeLabel"><p>String[]</p></span></div></foreignObject></g><g style="" transform="translate(4.75, 9.375)" class="label attribute-name"><foreignObject height="24" width="78.4375"><div style="display: table-cell; white-space: nowrap; line-height: 1.5; max-width: 178px; text-align: start;" xmlns="http://www.w3.org/1999/xhtml"><span class="nodeLabel"><p>photo_urls</p></span></div></foreignObject></g><g style="" transform="translate(113.578125, 9.375)" class="label attribute-keys"><foreignObject height="0" width="0"><div style="display: table-cell; white-space: nowrap; line-height: 1.5; max-width: 100px; text-align: start;" xmlns="http://www.w3.org/1999/xhtml"><span class="nodeLabel"></span></div></foreignObject></g><g style="" transform="translate(113.578125, 9.375)" class="label attribute-comment"><foreignObject height="0" width="0"><div style="display: table-cell; white-space: nowrap; line-height: 1.5; max-width: 100px; text-align: start;" xmlns="http://www.w3.org/1999/xhtml"><span class="nodeLabel"></span></div></foreignObject></g><g style="" transform="translate(-88.578125, 52.125)" class="label attribute-type"><foreignObject height="24" width="40.8125"><div style="display: table-cell; white-space: nowrap; line-height: 1.5; max-width: 141px; text-align: start;" xmlns="http://www.w3.org/1999/xhtml"><span class="nodeLabel"><p>Enum</p></span></div></foreignObject></g><g style="" transform="translate(4.75, 52.125)" class="label attribute-name"><foreignObject height="24" width="44.40625"><div style="display: table-cell; white-space: nowrap; line-height: 1.5; max-width: 144px; text-align: start;" xmlns="http://www.w3.org/1999/xhtml"><span class="nodeLabel"><p>status</p></span></div></foreignObject></g><g style="" transform="translate(113.578125, 52.125)" class="label attribute-keys"><foreignObject height="0" width="0"><div style="display: table-cell; white-space: nowrap; line-height: 1.5; max-width: 100px; text-align: start;" xmlns="http://www.w3.org/1999/xhtml"><span class="nodeLabel"></span></div></foreignObject></g><g style="" transform="translate(113.578125, 52.125)" class="label attribute-comment"><foreignObject height="0" width="0"><div style="display: table-cell; white-space: nowrap; line-height: 1.5; max-width: 100px; text-align: start;" xmlns="http://www.w3.org/1999/xhtml"><span class="nodeLabel"></span></div></foreignObject></g><g style="" transform="translate(-88.578125, 94.875)" class="label attribute-type"><foreignObject height="24" width="68.328125"><div style="display: table-cell; white-space: nowrap; line-height: 1.5; max-width: 168px; text-align: start;" xmlns="http://www.w3.org/1999/xhtml"><span class="nodeLabel"><p>DateTime</p></span></div></foreignObject></g><g style="" transform="translate(4.75, 94.875)" class="label attribute-name"><foreignObject height="24" width="76.921875"><div style="display: table-cell; white-space: nowrap; line-height: 1.5; max-width: 177px; text-align: start;" xmlns="http://www.w3.org/1999/xhtml"><span class="nodeLabel"><p>created_at</p></span></div></foreignObject></g><g style="" transform="translate(113.578125, 94.875)" class="label attribute-keys"><foreignObject height="0" width="0"><div style="display: table-cell; white-space: nowrap; line-height: 1.5; max-width: 100px; text-align: start;" xmlns="http://www.w3.org/1999/xhtml"><span class="nodeLabel"></span></div></foreignObject></g><g style="" transform="translate(113.578125, 94.875)" class="label attribute-comment"><foreignObject height="0" width="0"><div style="display: table-cell; white-space: nowrap; line-height: 1.5; max-width: 100px; text-align: start;" xmlns="http://www.w3.org/1999/xhtml"><span class="nodeLabel"></span></div></foreignObject></g><g style="" transform="translate(-88.578125, 137.625)" class="label attribute-type"><foreignObject height="24" width="68.328125"><div style="display: table-cell; white-space: nowrap; line-height: 1.5; max-width: 168px; text-align: start;" xmlns="http://www.w3.org/1999/xhtml"><span class="nodeLabel"><p>DateTime</p></span></div></foreignObject></g><g style="" transform="translate(4.75, 137.625)" class="label attribute-name"><foreignObject height="24" width="83.40625"><div style="display: table-cell; white-space: nowrap; line-height: 1.5; max-width: 184px; text-align: start;" xmlns="http://www.w3.org/1999/xhtml"><span class="nodeLabel"><p>updated_at</p></span></div></foreignObject></g><g style="" transform="translate(113.578125, 137.625)" class="label attribute-keys"><foreignObject height="0" width="0"><div style="display: table-cell; white-space: nowrap; line-height: 1.5; max-width: 100px; text-align: start;" xmlns="http://www.w3.org/1999/xhtml"><span class="nodeLabel"></span></div></foreignObject></g><g style="" transform="translate(113.578125, 137.625)" class="label attribute-comment"><foreignObject height="0" width="0"><div style="display: table-cell; white-space: nowrap; line-height: 1.5; max-width: 100px; text-align: start;" xmlns="http://www.w3.org/1999/xhtml"><span class="nodeLabel"></span></div></foreignObject></g><g class="divider"><path fill="none" stroke-width="1.3" stroke="#9370DB" d="M-101.078125 -128.25 C-24.49683059893536 -128.25, 52.08446380212928 -128.25, 101.078125 -128.25 M-101.078125 -128.25 C-45.32817366268029 -128.25, 10.421777674639415 -128.25, 101.078125 -128.25"></path></g><g class="divider"><path fill="none" stroke-width="1.3" stroke="#9370DB" d="M-7.75 -128.25 C-7.75 -18.659964446442117, -7.75 90.93007110711577, -7.75 171 M-7.75 -128.25 C-7.75 -37.10768781544455, -7.75 54.0346243691109, -7.75 171"></path></g><g class="divider"><path fill="none" stroke-width="1.3" stroke="#9370DB" d="M-101.078125 -85.5 C-33.21470441706997 -85.5, 34.648716165860066 -85.5, 101.078125 -85.5 M-101.078125 -85.5 C-28.79060826941054 -85.5, 43.49690846117892 -85.5, 101.078125 -85.5"></path></g><g class="divider"><path fill="none" stroke-width="1.3" stroke="#9370DB" d="M-101.078125 -42.75 C-42.7485184220737 -42.75, 15.581088155852598 -42.75, 101.078125 -42.75 M-101.078125 -42.75 C-58.36397554056892 -42.75, -15.649826081137846 -42.75, 101.078125 -42.75"></path></g><g class="divider"><path fill="none" stroke-width="1.3" stroke="#9370DB" d="M-101.078125 0 C-44.915223256284435 0, 11.24767848743113 0, 101.078125 0 M-101.078125 0 C-26.77153759554112 0, 47.53504980891776 0, 101.078125 0"></path></g><g class="divider"><path fill="none" stroke-width="1.3" stroke="#9370DB" d="M-101.078125 42.75 C-23.105181504675656 42.75, 54.86776199064869 42.75, 101.078125 42.75 M-101.078125 42.75 C-31.69129938687722 42.75, 37.69552622624556 42.75, 101.078125 42.75"></path></g><g class="divider"><path fill="none" stroke-width="1.3" stroke="#9370DB" d="M-101.078125 85.5 C-58.937314974225686 85.5, -16.79650494845137 85.5, 101.078125 85.5 M-101.078125 85.5 C-41.944492958499055 85.5, 17.18913908300189 85.5, 101.078125 85.5"></path></g><g class="divider"><path fill="none" stroke-width="1.3" stroke="#9370DB" d="M-101.078125 128.25 C-44.70574271598245 128.25, 11.666639568035094 128.25, 101.078125 128.25 M-101.078125 128.25 C-55.43227781121303 128.25, -9.786430622426053 128.25, 101.078125 128.25"></path></g><g class="divider"><path fill="none" stroke-width="1.3" stroke="#9370DB" d="M-101.078125 -128.25 C-54.50102409941562 -128.25, -7.923923198831247 -128.25, 101.078125 -128.25 M-101.078125 -128.25 C-24.369479722105595 -128.25, 52.33916555578881 -128.25, 101.078125 -128.25"></path></g></g><g transform="translate(109.078125, 958.125)" id="entity-ORDER-1" class="node default"><g style=""><path fill="#ECECFF" stroke-width="0" stroke="none" d="M-97.625 -192.375 L97.625 -192.375 L97.625 192.375 L-97.625 192.375"></path><path fill="none" stroke-width="1.3" stroke="#9370DB" d="M-97.625 -192.375 C-50.23762692657577 -192.375, -2.8502538531515427 -192.375, 97.625 -192.375 M-97.625 -192.375 C-55.732416222612414 -192.375, -13.839832445224829 -192.375, 97.625 -192.375 M97.625 -192.375 C97.625 -63.918556823244984, 97.625 64.53788635351003, 97.625 192.375 M97.625 -192.375 C97.625 -85.06028128012562, 97.625 22.254437439748756, 97.625 192.375 M97.625 192.375 C19.901998752030735 192.375, -57.82100249593853 192.375, -97.625 192.375 M97.625 192.375 C20.727289023896162 192.375, -56.170421952207676 192.375, -97.625 192.375 M-97.625 192.375 C-97.625 83.98330960382948, -97.625 -24.408380792341035, -97.625 -192.375 M-97.625 192.375 C-97.625 72.31289204677059, -97.625 -47.74921590645883, -97.625 -192.375"></path></g><g class="row-rect-odd" style=""><path fill="hsl(240, 100%, 100%)" stroke-width="0" stroke="none" d="M-97.625 -64.125 L97.625 -64.125 L97.625 -21.375 L-97.625 -21.375"></path><path fill="none" stroke-width="1.3" stroke="#9370DB" d="M-97.625 -64.125 C-30.78858736068213 -64.125, 36.04782527863574 -64.125, 97.625 -64.125 M-97.625 -64.125 C-21.880321812520876 -64.125, 53.86435637495825 -64.125, 97.625 -64.125 M97.625 -64.125 C97.625 -53.05350766582797, 97.625 -41.982015331655944, 97.625 -21.375 M97.625 -64.125 C97.625 -53.671783198757645, 97.625 -43.21856639751529, 97.625 -21.375 M97.625 -21.375 C36.58149428696947 -21.375, -24.462011426061053 -21.375, -97.625 -21.375 M97.625 -21.375 C33.437332368317996 -21.375, -30.750335263364008 -21.375, -97.625 -21.375 M-97.625 -21.375 C-97.625 -33.73190389477924, -97.625 -46.08880778955847, -97.625 -64.125 M-97.625 -21.375 C-97.625 -36.53822289282079, -97.625 -51.70144578564158, -97.625 -64.125"></path></g><g class="row-rect-even" style=""><path fill="hsl(240, 100%, 97.2745098039%)" stroke-width="0" stroke="none" d="M-97.625 -21.375 L97.625 -21.375 L97.625 21.375 L-97.625 21.375"></path><path fill="none" stroke-width="1.3" stroke="#9370DB" d="M-97.625 -21.375 C-49.06290175939726 -21.375, -0.5008035187945268 -21.375, 97.625 -21.375 M-97.625 -21.375 C-33.118995734882404 -21.375, 31.387008530235192 -21.375, 97.625 -21.375 M97.625 -21.375 C97.625 -10.696755377765392, 97.625 -0.01851075553078374, 97.625 21.375 M97.625 -21.375 C97.625 -5.528184765717786, 97.625 10.318630468564429, 97.625 21.375 M97.625 21.375 C37.15257722597355 21.375, -23.319845548052896 21.375, -97.625 21.375 M97.625 21.375 C49.817660612165376 21.375, 2.0103212243307524 21.375, -97.625 21.375 M-97.625 21.375 C-97.625 7.434649692284154, -97.625 -6.505700615431692, -97.625 -21.375 M-97.625 21.375 C-97.625 9.474791108363915, -97.625 -2.42541778327217, -97.625 -21.375"></path></g><g class="row-rect-odd" style=""><path fill="hsl(240, 100%, 100%)" stroke-width="0" stroke="none" d="M-97.625 21.375 L97.625 21.375 L97.625 64.125 L-97.625 64.125"></path><path fill="none" stroke-width="1.3" stroke="#9370DB" d="M-97.625 21.375 C-43.13563198557453 21.375, 11.353736028850946 21.375, 97.625 21.375 M-97.625 21.375 C-41.949350664606314 21.375, 13.726298670787372 21.375, 97.625 21.375 M97.625 21.375 C97.625 38.19809633758803, 97.625 55.02119267517605, 97.625 64.125 M97.625 21.375 C97.625 31.858684416537763, 97.625 42.342368833075525, 97.625 64.125 M97.625 64.125 C36.37348025298983 64.125, -24.878039494020342 64.125, -97.625 64.125 M97.625 64.125 C40.75196169638814 64.125, -16.121076607223713 64.125, -97.625 64.125 M-97.625 64.125 C-97.625 50.38027293459743, -97.625 36.635545869194864, -97.625 21.375 M-97.625 64.125 C-97.625 50.51498114427849, -97.625 36.90496228855697, -97.625 21.375"></path></g><g class="row-rect-even" style=""><path fill="hsl(240, 100%, 97.2745098039%)" stroke-width="0" stroke="none" d="M-97.625 64.125 L97.625 64.125 L97.625 106.875 L-97.625 106.875"></path><path fill="none" stroke-width="1.3" stroke="#9370DB" d="M-97.625 64.125 C-52.885294973421516 64.125, -8.145589946843032 64.125, 97.625 64.125 M-97.625 64.125 C-37.65205717316036 64.125, 22.320885653679284 64.125, 97.625 64.125 M97.625 64.125 C97.625 74.87016367803575, 97.625 85.6153273560715, 97.625 106.875 M97.625 64.125 C97.625 78.20049297310217, 97.625 92.27598594620434, 97.625 106.875 M97.625 106.875 C38.44955353574062 106.875, -20.72589292851876 106.875, -97.625 106.875 M97.625 106.875 C45.20587008225151 106.875, -7.213259835496984 106.875, -97.625 106.875 M-97.625 106.875 C-97.625 95.42351566035443, -97.625 83.97203132070887, -97.625 64.125 M-97.625 106.875 C-97.625 91.27322369555611, -97.625 75.67144739111222, -97.625 64.125"></path></g><g class="row-rect-odd" style=""><path fill="hsl(240, 100%, 100%)" stroke-width="0" stroke="none" d="M-97.625 106.875 L97.625 106.875 L97.625 149.625 L-97.625 149.625"></path><path fill="none" stroke-width="1.3" stroke="#9370DB" d="M-97.625 106.875 C-44.46150881786588 106.875, 8.701982364268247 106.875, 97.625 106.875 M-97.625 106.875 C-26.15385222464343 106.875, 45.31729555071314 106.875, 97.625 106.875 M97.625 106.875 C97.625 118.70138147692009, 97.625 130.52776295384018, 97.625 149.625 M97.625 106.875 C97.625 116.73960337263279, 97.625 126.60420674526559, 97.625 149.625 M97.625 149.625 C43.74998317279498 149.625, -10.125033654410046 149.625, -97.625 149.625 M97.625 149.625 C34.99070691891132 149.625, -27.643586162177357 149.625, -97.625 149.625 M-97.625 149.625 C-97.625 134.51471219646857, -97.625 119.40442439293713, -97.625 106.875 M-97.625 149.625 C-97.625 136.71385713410993, -97.625 123.80271426821983, -97.625 106.875"></path></g><g class="row-rect-even" style=""><path fill="hsl(240, 100%, 97.2745098039%)" stroke-width="0" stroke="none" d="M-97.625 149.625 L97.625 149.625 L97.625 192.375 L-97.625 192.375"></path><path fill="none" stroke-width="1.3" stroke="#9370DB" d="M-97.625 149.625 C-44.506304010116075 149.625, 8.61239197976785 149.625, 97.625 149.625 M-97.625 149.625 C-27.940214526042666 149.625, 41.74457094791467 149.625, 97.625 149.625 M97.625 149.625 C97.625 162.51962701153255, 97.625 175.4142540230651, 97.625 192.375 M97.625 149.625 C97.625 163.83609410440556, 97.625 178.0471882088111, 97.625 192.375 M97.625 192.375 C22.61008207529059 192.375, -52.40483584941882 192.375, -97.625 192.375 M97.625 192.375 C43.1993882574951 192.375, -11.226223485009797 192.375, -97.625 192.375 M-97.625 192.375 C-97.625 180.36209889204918, -97.625 168.34919778409835, -97.625 149.625 M-97.625 192.375 C-97.625 182.6172623484763, -97.625 172.85952469695255, -97.625 149.625"></path></g><g class="row-rect-odd" style=""><path fill="hsl(240, 100%, 100%)" stroke-width="0" stroke="none" d="M-97.625 -149.625 L97.625 -149.625 L97.625 -106.875 L-97.625 -106.875"></path><path fill="none" stroke-width="1.3" stroke="#9370DB" d="M-97.625 -149.625 C-46.451153698401995 -149.625, 4.722692603196009 -149.625, 97.625 -149.625 M-97.625 -149.625 C-39.948987260986605 -149.625, 17.72702547802679 -149.625, 97.625 -149.625 M97.625 -149.625 C97.625 -140.1750242281248, 97.625 -130.7250484562496, 97.625 -106.875 M97.625 -149.625 C97.625 -134.64620455301514, 97.625 -119.66740910603028, 97.625 -106.875 M97.625 -106.875 C53.52994053965837 -106.875, 9.434881079316739 -106.875, -97.625 -106.875 M97.625 -106.875 C48.598981792821455 -106.875, -0.42703641435709017 -106.875, -97.625 -106.875 M-97.625 -106.875 C-97.625 -123.86085214732526, -97.625 -140.84670429465052, -97.625 -149.625 M-97.625 -106.875 C-97.625 -119.74201945566834, -97.625 -132.60903891133668, -97.625 -149.625"></path></g><g style="" transform="translate(-24.6484375, -183)" class="label name"><foreignObject height="24" width="49.296875"><div style="display: table-cell; white-space: nowrap; line-height: 1.5; max-width: 150px; text-align: start;" xmlns="http://www.w3.org/1999/xhtml"><span class="nodeLabel"><p>ORDER</p></span></div></foreignObject></g><g style="" transform="translate(-85.125, -140.25)" class="label attribute-type"><foreignObject height="24" width="36.21875"><div style="display: table-cell; white-space: nowrap; line-height: 1.5; max-width: 136px; text-align: start;" xmlns="http://www.w3.org/1999/xhtml"><span class="nodeLabel"><p>UUID</p></span></div></foreignObject></g><g style="" transform="translate(8.203125, -140.25)" class="label attribute-name"><foreignObject height="24" width="60.625"><div style="display: table-cell; white-space: nowrap; line-height: 1.5; max-width: 161px; text-align: start;" xmlns="http://www.w3.org/1999/xhtml"><span class="nodeLabel"><p>order_id</p></span></div></foreignObject></g><g style="" transform="translate(110.125, -140.25)" class="label attribute-keys"><foreignObject height="0" width="0"><div style="display: table-cell; white-space: nowrap; line-height: 1.5; max-width: 100px; text-align: start;" xmlns="http://www.w3.org/1999/xhtml"><span class="nodeLabel"></span></div></foreignObject></g><g style="" transform="translate(110.125, -140.25)" class="label attribute-comment"><foreignObject height="0" width="0"><div style="display: table-cell; white-space: nowrap; line-height: 1.5; max-width: 100px; text-align: start;" xmlns="http://www.w3.org/1999/xhtml"><span class="nodeLabel"></span></div></foreignObject></g><g style="" transform="translate(-85.125, -97.5)" class="label attribute-type"><foreignObject height="24" width="36.21875"><div style="display: table-cell; white-space: nowrap; line-height: 1.5; max-width: 136px; text-align: start;" xmlns="http://www.w3.org/1999/xhtml"><span class="nodeLabel"><p>UUID</p></span></div></foreignObject></g><g style="" transform="translate(8.203125, -97.5)" class="label attribute-name"><foreignObject height="24" width="46.40625"><div style="display: table-cell; white-space: nowrap; line-height: 1.5; max-width: 146px; text-align: start;" xmlns="http://www.w3.org/1999/xhtml"><span class="nodeLabel"><p>pet_id</p></span></div></foreignObject></g><g style="" transform="translate(110.125, -97.5)" class="label attribute-keys"><foreignObject height="0" width="0"><div style="display: table-cell; white-space: nowrap; line-height: 1.5; max-width: 100px; text-align: start;" xmlns="http://www.w3.org/1999/xhtml"><span class="nodeLabel"></span></div></foreignObject></g><g style="" transform="translate(110.125, -97.5)" class="label attribute-comment"><foreignObject height="0" width="0"><div style="display: table-cell; white-space: nowrap; line-height: 1.5; max-width: 100px; text-align: start;" xmlns="http://www.w3.org/1999/xhtml"><span class="nodeLabel"></span></div></foreignObject></g><g style="" transform="translate(-85.125, -54.75)" class="label attribute-type"><foreignObject height="24" width="51.3125"><div style="display: table-cell; white-space: nowrap; line-height: 1.5; max-width: 152px; text-align: start;" xmlns="http://www.w3.org/1999/xhtml"><span class="nodeLabel"><p>Integer</p></span></div></foreignObject></g><g style="" transform="translate(8.203125, -54.75)" class="label attribute-name"><foreignObject height="24" width="60.828125"><div style="display: table-cell; white-space: nowrap; line-height: 1.5; max-width: 161px; text-align: start;" xmlns="http://www.w3.org/1999/xhtml"><span class="nodeLabel"><p>quantity</p></span></div></foreignObject></g><g style="" transform="translate(110.125, -54.75)" class="label attribute-keys"><foreignObject height="0" width="0"><div style="display: table-cell; white-space: nowrap; line-height: 1.5; max-width: 100px; text-align: start;" xmlns="http://www.w3.org/1999/xhtml"><span class="nodeLabel"></span></div></foreignObject></g><g style="" transform="translate(110.125, -54.75)" class="label attribute-comment"><foreignObject height="0" width="0"><div style="display: table-cell; white-space: nowrap; line-height: 1.5; max-width: 100px; text-align: start;" xmlns="http://www.w3.org/1999/xhtml"><span class="nodeLabel"></span></div></foreignObject></g><g style="" transform="translate(-85.125, -12)" class="label attribute-type"><foreignObject height="24" width="68.328125"><div style="display: table-cell; white-space: nowrap; line-height: 1.5; max-width: 168px; text-align: start;" xmlns="http://www.w3.org/1999/xhtml"><span class="nodeLabel"><p>DateTime</p></span></div></foreignObject></g><g style="" transform="translate(8.203125, -12)" class="label attribute-name"><foreignObject height="24" width="71.078125"><div style="display: table-cell; white-space: nowrap; line-height: 1.5; max-width: 171px; text-align: start;" xmlns="http://www.w3.org/1999/xhtml"><span class="nodeLabel"><p>ship_date</p></span></div></foreignObject></g><g style="" transform="translate(110.125, -12)" class="label attribute-keys"><foreignObject height="0" width="0"><div style="display: table-cell; white-space: nowrap; line-height: 1.5; max-width: 100px; text-align: start;" xmlns="http://www.w3.org/1999/xhtml"><span class="nodeLabel"></span></div></foreignObject></g><g style="" transform="translate(110.125, -12)" class="label attribute-comment"><foreignObject height="0" width="0"><div style="display: table-cell; white-space: nowrap; line-height: 1.5; max-width: 100px; text-align: start;" xmlns="http://www.w3.org/1999/xhtml"><span class="nodeLabel"></span></div></foreignObject></g><g style="" transform="translate(-85.125, 30.75)" class="label attribute-type"><foreignObject height="24" width="40.8125"><div style="display: table-cell; white-space: nowrap; line-height: 1.5; max-width: 141px; text-align: start;" xmlns="http://www.w3.org/1999/xhtml"><span class="nodeLabel"><p>Enum</p></span></div></foreignObject></g><g style="" transform="translate(8.203125, 30.75)" class="label attribute-name"><foreignObject height="24" width="44.40625"><div style="display: table-cell; white-space: nowrap; line-height: 1.5; max-width: 144px; text-align: start;" xmlns="http://www.w3.org/1999/xhtml"><span class="nodeLabel"><p>status</p></span></div></foreignObject></g><g style="" transform="translate(110.125, 30.75)" class="label attribute-keys"><foreignObject height="0" width="0"><div style="display: table-cell; white-space: nowrap; line-height: 1.5; max-width: 100px; text-align: start;" xmlns="http://www.w3.org/1999/xhtml"><span class="nodeLabel"></span></div></foreignObject></g><g style="" transform="translate(110.125, 30.75)" class="label attribute-comment"><foreignObject height="0" width="0"><div style="display: table-cell; white-space: nowrap; line-height: 1.5; max-width: 100px; text-align: start;" xmlns="http://www.w3.org/1999/xhtml"><span class="nodeLabel"></span></div></foreignObject></g><g style="" transform="translate(-85.125, 73.5)" class="label attribute-type"><foreignObject height="24" width="59.671875"><div style="display: table-cell; white-space: nowrap; line-height: 1.5; max-width: 160px; text-align: start;" xmlns="http://www.w3.org/1999/xhtml"><span class="nodeLabel"><p>Boolean</p></span></div></foreignObject></g><g style="" transform="translate(8.203125, 73.5)" class="label attribute-name"><foreignObject height="24" width="67.484375"><div style="display: table-cell; white-space: nowrap; line-height: 1.5; max-width: 167px; text-align: start;" xmlns="http://www.w3.org/1999/xhtml"><span class="nodeLabel"><p>complete</p></span></div></foreignObject></g><g style="" transform="translate(110.125, 73.5)" class="label attribute-keys"><foreignObject height="0" width="0"><div style="display: table-cell; white-space: nowrap; line-height: 1.5; max-width: 100px; text-align: start;" xmlns="http://www.w3.org/1999/xhtml"><span class="nodeLabel"></span></div></foreignObject></g><g style="" transform="translate(110.125, 73.5)" class="label attribute-comment"><foreignObject height="0" width="0"><div style="display: table-cell; white-space: nowrap; line-height: 1.5; max-width: 100px; text-align: start;" xmlns="http://www.w3.org/1999/xhtml"><span class="nodeLabel"></span></div></foreignObject></g><g style="" transform="translate(-85.125, 116.25)" class="label attribute-type"><foreignObject height="24" width="68.328125"><div style="display: table-cell; white-space: nowrap; line-height: 1.5; max-width: 168px; text-align: start;" xmlns="http://www.w3.org/1999/xhtml"><span class="nodeLabel"><p>DateTime</p></span></div></foreignObject></g><g style="" transform="translate(8.203125, 116.25)" class="label attribute-name"><foreignObject height="24" width="76.921875"><div style="display: table-cell; white-space: nowrap; line-height: 1.5; max-width: 177px; text-align: start;" xmlns="http://www.w3.org/1999/xhtml"><span class="nodeLabel"><p>created_at</p></span></div></foreignObject></g><g style="" transform="translate(110.125, 116.25)" class="label attribute-keys"><foreignObject height="0" width="0"><div style="display: table-cell; white-space: nowrap; line-height: 1.5; max-width: 100px; text-align: start;" xmlns="http://www.w3.org/1999/xhtml"><span class="nodeLabel"></span></div></foreignObject></g><g style="" transform="translate(110.125, 116.25)" class="label attribute-comment"><foreignObject height="0" width="0"><div style="display: table-cell; white-space: nowrap; line-height: 1.5; max-width: 100px; text-align: start;" xmlns="http://www.w3.org/1999/xhtml"><span class="nodeLabel"></span></div></foreignObject></g><g style="" transform="translate(-85.125, 159)" class="label attribute-type"><foreignObject height="24" width="36.21875"><div style="display: table-cell; white-space: nowrap; line-height: 1.5; max-width: 136px; text-align: start;" xmlns="http://www.w3.org/1999/xhtml"><span class="nodeLabel"><p>UUID</p></span></div></foreignObject></g><g style="" transform="translate(8.203125, 159)" class="label attribute-name"><foreignObject height="24" width="52.8125"><div style="display: table-cell; white-space: nowrap; line-height: 1.5; max-width: 153px; text-align: start;" xmlns="http://www.w3.org/1999/xhtml"><span class="nodeLabel"><p>user_id</p></span></div></foreignObject></g><g style="" transform="translate(110.125, 159)" class="label attribute-keys"><foreignObject height="0" width="0"><div style="display: table-cell; white-space: nowrap; line-height: 1.5; max-width: 100px; text-align: start;" xmlns="http://www.w3.org/1999/xhtml"><span class="nodeLabel"></span></div></foreignObject></g><g style="" transform="translate(110.125, 159)" class="label attribute-comment"><foreignObject height="0" width="0"><div style="display: table-cell; white-space: nowrap; line-height: 1.5; max-width: 100px; text-align: start;" xmlns="http://www.w3.org/1999/xhtml"><span class="nodeLabel"></span></div></foreignObject></g><g class="divider"><path fill="none" stroke-width="1.3" stroke="#9370DB" d="M-97.625 -149.625 C-35.09548015184543 -149.625, 27.434039696309142 -149.625, 97.625 -149.625 M-97.625 -149.625 C-45.41798571335982 -149.625, 6.789028573280362 -149.625, 97.625 -149.625"></path></g><g class="divider"><path fill="none" stroke-width="1.3" stroke="#9370DB" d="M-4.296875 -149.625 C-4.296875 -48.132874275078436, -4.296875 53.35925144984313, -4.296875 192.375 M-4.296875 -149.625 C-4.296875 -40.91792928457842, -4.296875 67.78914143084316, -4.296875 192.375"></path></g><g class="divider"><path fill="none" stroke-width="1.3" stroke="#9370DB" d="M-97.625 -106.875 C-46.417127837960884 -106.875, 4.790744324078233 -106.875, 97.625 -106.875 M-97.625 -106.875 C-33.0646391796338 -106.875, 31.4957216407324 -106.875, 97.625 -106.875"></path></g><g class="divider"><path fill="none" stroke-width="1.3" stroke="#9370DB" d="M-97.625 -64.125 C-44.12308199568119 -64.125, 9.37883600863762 -64.125, 97.625 -64.125 M-97.625 -64.125 C-56.31584379300476 -64.125, -15.00668758600952 -64.125, 97.625 -64.125"></path></g><g class="divider"><path fill="none" stroke-width="1.3" stroke="#9370DB" d="M-97.625 -21.375 C-41.04721701004361 -21.375, 15.53056597991278 -21.375, 97.625 -21.375 M-97.625 -21.375 C-40.39993733945266 -21.375, 16.825125321094674 -21.375, 97.625 -21.375"></path></g><g class="divider"><path fill="none" stroke-width="1.3" stroke="#9370DB" d="M-97.625 21.375 C-40.50081082148418 21.375, 16.62337835703164 21.375, 97.625 21.375 M-97.625 21.375 C-23.20280940743632 21.375, 51.21938118512736 21.375, 97.625 21.375"></path></g><g class="divider"><path fill="none" stroke-width="1.3" stroke="#9370DB" d="M-97.625 64.125 C-24.4749712062181 64.125, 48.6750575875638 64.125, 97.625 64.125 M-97.625 64.125 C-36.31420945807833 64.125, 24.99658108384334 64.125, 97.625 64.125"></path></g><g class="divider"><path fill="none" stroke-width="1.3" stroke="#9370DB" d="M-97.625 106.875 C-27.832429029401965 106.875, 41.96014194119607 106.875, 97.625 106.875 M-97.625 106.875 C-22.76035115241362 106.875, 52.10429769517276 106.875, 97.625 106.875"></path></g><g class="divider"><path fill="none" stroke-width="1.3" stroke="#9370DB" d="M-97.625 149.625 C-48.8450968914742 149.625, -0.0651937829483984 149.625, 97.625 149.625 M-97.625 149.625 C-47.11680940804957 149.625, 3.3913811839008616 149.625, 97.625 149.625"></path></g><g class="divider"><path fill="none" stroke-width="1.3" stroke="#9370DB" d="M-97.625 -149.625 C-28.428397847263554 -149.625, 40.76820430547289 -149.625, 97.625 -149.625 M-97.625 -149.625 C-30.105771563374702 -149.625, 37.413456873250595 -149.625, 97.625 -149.625"></path></g></g><g transform="translate(717.3984375, 958.125)" id="entity-PETTAG-2" class="node default"><g style=""><path fill="#ECECFF" stroke-width="0" stroke="none" d="M-66.3125 -64.125 L66.3125 -64.125 L66.3125 64.125 L-66.3125 64.125"></path><path fill="none" stroke-width="1.3" stroke="#9370DB" d="M-66.3125 -64.125 C-33.36209040165714 -64.125, -0.41168080331428314 -64.125, 66.3125 -64.125 M-66.3125 -64.125 C-33.548027853410744 -64.125, -0.7835557068214882 -64.125, 66.3125 -64.125 M66.3125 -64.125 C66.3125 -38.20564901485557, 66.3125 -12.286298029711126, 66.3125 64.125 M66.3125 -64.125 C66.3125 -33.672661086587325, 66.3125 -3.220322173174644, 66.3125 64.125 M66.3125 64.125 C36.83020562190488 64.125, 7.347911243809769 64.125, -66.3125 64.125 M66.3125 64.125 C14.958152849343996 64.125, -36.39619430131201 64.125, -66.3125 64.125 M-66.3125 64.125 C-66.3125 13.361487852625807, -66.3125 -37.40202429474839, -66.3125 -64.125 M-66.3125 64.125 C-66.3125 17.7042541954914, -66.3125 -28.716491609017197, -66.3125 -64.125"></path></g><g class="row-rect-odd" style=""><path fill="hsl(240, 100%, 100%)" stroke-width="0" stroke="none" d="M-66.3125 -21.375 L66.3125 -21.375 L66.3125 21.375 L-66.3125 21.375"></path><path fill="none" stroke-width="1.3" stroke="#9370DB" d="M-66.3125 -21.375 C-30.55485066350988 -21.375, 5.2027986729802365 -21.375, 66.3125 -21.375 M-66.3125 -21.375 C-18.903681450905047 -21.375, 28.505137098189905 -21.375, 66.3125 -21.375 M66.3125 -21.375 C66.3125 -8.010057338290002, 66.3125 5.354885323419996, 66.3125 21.375 M66.3125 -21.375 C66.3125 -11.171166619440337, 66.3125 -0.9673332388806735, 66.3125 21.375 M66.3125 21.375 C33.96068107255805 21.375, 1.608862145116106 21.375, -66.3125 21.375 M66.3125 21.375 C33.53068962783479 21.375, 0.7488792556695785 21.375, -66.3125 21.375 M-66.3125 21.375 C-66.3125 5.098372641813203, -66.3125 -11.178254716373594, -66.3125 -21.375 M-66.3125 21.375 C-66.3125 5.213068871725632, -66.3125 -10.948862256548736, -66.3125 -21.375"></path></g><g style="" transform="translate(-26.359375, -54.75)" class="label name"><foreignObject height="24" width="52.71875"><div style="display: table-cell; white-space: nowrap; line-height: 1.5; max-width: 153px; text-align: start;" xmlns="http://www.w3.org/1999/xhtml"><span class="nodeLabel"><p>PETTAG</p></span></div></foreignObject></g><g style="" transform="translate(-53.8125, -12)" class="label attribute-type"><foreignObject height="24" width="36.21875"><div style="display: table-cell; white-space: nowrap; line-height: 1.5; max-width: 136px; text-align: start;" xmlns="http://www.w3.org/1999/xhtml"><span class="nodeLabel"><p>UUID</p></span></div></foreignObject></g><g style="" transform="translate(7.40625, -12)" class="label attribute-name"><foreignObject height="24" width="46.40625"><div style="display: table-cell; white-space: nowrap; line-height: 1.5; max-width: 146px; text-align: start;" xmlns="http://www.w3.org/1999/xhtml"><span class="nodeLabel"><p>pet_id</p></span></div></foreignObject></g><g style="" transform="translate(78.8125, -12)" class="label attribute-keys"><foreignObject height="0" width="0"><div style="display: table-cell; white-space: nowrap; line-height: 1.5; max-width: 100px; text-align: start;" xmlns="http://www.w3.org/1999/xhtml"><span class="nodeLabel"></span></div></foreignObject></g><g style="" transform="translate(78.8125, -12)" class="label attribute-comment"><foreignObject height="0" width="0"><div style="display: table-cell; white-space: nowrap; line-height: 1.5; max-width: 100px; text-align: start;" xmlns="http://www.w3.org/1999/xhtml"><span class="nodeLabel"></span></div></foreignObject></g><g style="" transform="translate(-53.8125, 30.75)" class="label attribute-type"><foreignObject height="24" width="36.21875"><div style="display: table-cell; white-space: nowrap; line-height: 1.5; max-width: 136px; text-align: start;" xmlns="http://www.w3.org/1999/xhtml"><span class="nodeLabel"><p>UUID</p></span></div></foreignObject></g><g style="" transform="translate(7.40625, 30.75)" class="label attribute-name"><foreignObject height="24" width="45"><div style="display: table-cell; white-space: nowrap; line-height: 1.5; max-width: 145px; text-align: start;" xmlns="http://www.w3.org/1999/xhtml"><span class="nodeLabel"><p>tag_id</p></span></div></foreignObject></g><g style="" transform="translate(78.8125, 30.75)" class="label attribute-keys"><foreignObject height="0" width="0"><div style="display: table-cell; white-space: nowrap; line-height: 1.5; max-width: 100px; text-align: start;" xmlns="http://www.w3.org/1999/xhtml"><span class="nodeLabel"></span></div></foreignObject></g><g style="" transform="translate(78.8125, 30.75)" class="label attribute-comment"><foreignObject height="0" width="0"><div style="display: table-cell; white-space: nowrap; line-height: 1.5; max-width: 100px; text-align: start;" xmlns="http://www.w3.org/1999/xhtml"><span class="nodeLabel"></span></div></foreignObject></g><g class="divider"><path fill="none" stroke-width="1.3" stroke="#9370DB" d="M-66.3125 -21.375 C-36.366753695528224 -21.375, -6.421007391056449 -21.375, 66.3125 -21.375 M-66.3125 -21.375 C-18.307983220643443 -21.375, 29.696533558713114 -21.375, 66.3125 -21.375"></path></g><g class="divider"><path fill="none" stroke-width="1.3" stroke="#9370DB" d="M-5.09375 -21.375 C-5.09375 12.29965054080182, -5.09375 45.97430108160364, -5.09375 64.125 M-5.09375 -21.375 C-5.09375 -1.5487026401518413, -5.09375 18.277594719696317, -5.09375 64.125"></path></g><g class="divider"><path fill="none" stroke-width="1.3" stroke="#9370DB" d="M-66.3125 21.375 C-28.600870074354695 21.375, 9.11075985129061 21.375, 66.3125 21.375 M-66.3125 21.375 C-13.494187908967241 21.375, 39.32412418206552 21.375, 66.3125 21.375"></path></g><g class="divider"><path fill="none" stroke-width="1.3" stroke="#9370DB" d="M-66.3125 -21.375 C-13.530640236372562 -21.375, 39.251219527254875 -21.375, 66.3125 -21.375 M-66.3125 -21.375 C-16.008089277366423 -21.375, 34.296321445267154 -21.375, 66.3125 -21.375"></path></g></g><g transform="translate(754.6484375, 472.375)" id="entity-TAG-3" class="node default"><g style=""><path fill="#ECECFF" stroke-width="0" stroke="none" d="M-68.9453125 -64.125 L68.9453125 -64.125 L68.9453125 64.125 L-68.9453125 64.125"></path><path fill="none" stroke-width="1.3" stroke="#9370DB" d="M-68.9453125 -64.125 C-37.22049912816652 -64.125, -5.495685756333039 -64.125, 68.9453125 -64.125 M-68.9453125 -64.125 C-39.17997713818421 -64.125, -9.414641776368434 -64.125, 68.9453125 -64.125 M68.9453125 -64.125 C68.9453125 -20.956598657268486, 68.9453125 22.211802685463027, 68.9453125 64.125 M68.9453125 -64.125 C68.9453125 -14.962793442324248, 68.9453125 34.199413115351504, 68.9453125 64.125 M68.9453125 64.125 C38.45786151071533 64.125, 7.970410521430658 64.125, -68.9453125 64.125 M68.9453125 64.125 C26.12907573899536 64.125, -16.687161022009278 64.125, -68.9453125 64.125 M-68.9453125 64.125 C-68.9453125 21.0580641222203, -68.9453125 -22.008871755559397, -68.9453125 -64.125 M-68.9453125 64.125 C-68.9453125 28.062402494087053, -68.9453125 -8.000195011825895, -68.9453125 -64.125"></path></g><g class="row-rect-odd" style=""><path fill="hsl(240, 100%, 100%)" stroke-width="0" stroke="none" d="M-68.9453125 -21.375 L68.9453125 -21.375 L68.9453125 21.375 L-68.9453125 21.375"></path><path fill="none" stroke-width="1.3" stroke="#9370DB" d="M-68.9453125 -21.375 C-30.87923322333853 -21.375, 7.186846053322938 -21.375, 68.9453125 -21.375 M-68.9453125 -21.375 C-17.035589742060218 -21.375, 34.874133015879565 -21.375, 68.9453125 -21.375 M68.9453125 -21.375 C68.9453125 -10.426994362192406, 68.9453125 0.5210112756151872, 68.9453125 21.375 M68.9453125 -21.375 C68.9453125 -12.638796974290408, 68.9453125 -3.902593948580815, 68.9453125 21.375 M68.9453125 21.375 C28.53263853371636 21.375, -11.880035432567283 21.375, -68.9453125 21.375 M68.9453125 21.375 C39.79051243875196 21.375, 10.635712377503928 21.375, -68.9453125 21.375 M-68.9453125 21.375 C-68.9453125 10.071554370519408, -68.9453125 -1.2318912589611841, -68.9453125 -21.375 M-68.9453125 21.375 C-68.9453125 5.062586624210073, -68.9453125 -11.249826751579853, -68.9453125 -21.375"></path></g><g style="" transform="translate(-13.2890625, -54.75)" class="label name"><foreignObject height="24" width="26.578125"><div style="display: table-cell; white-space: nowrap; line-height: 1.5; max-width: 127px; text-align: start;" xmlns="http://www.w3.org/1999/xhtml"><span class="nodeLabel"><p>TAG</p></span></div></foreignObject></g><g style="" transform="translate(-56.4453125, -12)" class="label attribute-type"><foreignObject height="24" width="36.21875"><div style="display: table-cell; white-space: nowrap; line-height: 1.5; max-width: 136px; text-align: start;" xmlns="http://www.w3.org/1999/xhtml"><span class="nodeLabel"><p>UUID</p></span></div></foreignObject></g><g style="" transform="translate(11.4453125, -12)" class="label attribute-name"><foreignObject height="24" width="45"><div style="display: table-cell; white-space: nowrap; line-height: 1.5; max-width: 145px; text-align: start;" xmlns="http://www.w3.org/1999/xhtml"><span class="nodeLabel"><p>tag_id</p></span></div></foreignObject></g><g style="" transform="translate(81.4453125, -12)" class="label attribute-keys"><foreignObject height="0" width="0"><div style="display: table-cell; white-space: nowrap; line-height: 1.5; max-width: 100px; text-align: start;" xmlns="http://www.w3.org/1999/xhtml"><span class="nodeLabel"></span></div></foreignObject></g><g style="" transform="translate(81.4453125, -12)" class="label attribute-comment"><foreignObject height="0" width="0"><div style="display: table-cell; white-space: nowrap; line-height: 1.5; max-width: 100px; text-align: start;" xmlns="http://www.w3.org/1999/xhtml"><span class="nodeLabel"></span></div></foreignObject></g><g style="" transform="translate(-56.4453125, 30.75)" class="label attribute-type"><foreignObject height="24" width="42.890625"><div style="display: table-cell; white-space: nowrap; line-height: 1.5; max-width: 144px; text-align: start;" xmlns="http://www.w3.org/1999/xhtml"><span class="nodeLabel"><p>String</p></span></div></foreignObject></g><g style="" transform="translate(11.4453125, 30.75)" class="label attribute-name"><foreignObject height="24" width="40.515625"><div style="display: table-cell; white-space: nowrap; line-height: 1.5; max-width: 141px; text-align: start;" xmlns="http://www.w3.org/1999/xhtml"><span class="nodeLabel"><p>name</p></span></div></foreignObject></g><g style="" transform="translate(81.4453125, 30.75)" class="label attribute-keys"><foreignObject height="0" width="0"><div style="display: table-cell; white-space: nowrap; line-height: 1.5; max-width: 100px; text-align: start;" xmlns="http://www.w3.org/1999/xhtml"><span class="nodeLabel"></span></div></foreignObject></g><g style="" transform="translate(81.4453125, 30.75)" class="label attribute-comment"><foreignObject height="0" width="0"><div style="display: table-cell; white-space: nowrap; line-height: 1.5; max-width: 100px; text-align: start;" xmlns="http://www.w3.org/1999/xhtml"><span class="nodeLabel"></span></div></foreignObject></g><g class="divider"><path fill="none" stroke-width="1.3" stroke="#9370DB" d="M-68.9453125 -21.375 C-21.854428666808786 -21.375, 25.236455166382427 -21.375, 68.9453125 -21.375 M-68.9453125 -21.375 C-14.161054727851138 -21.375, 40.623203044297725 -21.375, 68.9453125 -21.375"></path></g><g class="divider"><path fill="none" stroke-width="1.3" stroke="#9370DB" d="M-1.0546875 -21.375 C-1.0546875 12.325789603071982, -1.0546875 46.026579206143964, -1.0546875 64.125 M-1.0546875 -21.375 C-1.0546875 -3.7444645238960383, -1.0546875 13.886070952207923, -1.0546875 64.125"></path></g><g class="divider"><path fill="none" stroke-width="1.3" stroke="#9370DB" d="M-68.9453125 21.375 C-20.612923094853542 21.375, 27.719466310292916 21.375, 68.9453125 21.375 M-68.9453125 21.375 C-28.30322921599126 21.375, 12.338854068017483 21.375, 68.9453125 21.375"></path></g><g class="divider"><path fill="none" stroke-width="1.3" stroke="#9370DB" d="M-68.9453125 -21.375 C-22.448336829064814 -21.375, 24.04863884187037 -21.375, 68.9453125 -21.375 M-68.9453125 -21.375 C-32.23276803824568 -21.375, 4.479776423508639 -21.375, 68.9453125 -21.375"></path></g></g><g transform="translate(109.078125, 93.5)" id="entity-CATEGORY-4" class="node default"><g style=""><path fill="#ECECFF" stroke-width="0" stroke="none" d="M-88.359375 -85.5 L88.359375 -85.5 L88.359375 85.5 L-88.359375 85.5"></path><path fill="none" stroke-width="1.3" stroke="#9370DB" d="M-88.359375 -85.5 C-34.54484618121846 -85.5, 19.26968263756308 -85.5, 88.359375 -85.5 M-88.359375 -85.5 C-17.823309138547074 -85.5, 52.71275672290585 -85.5, 88.359375 -85.5 M88.359375 -85.5 C88.359375 -22.67989010869698, 88.359375 40.14021978260604, 88.359375 85.5 M88.359375 -85.5 C88.359375 -21.19584460034811, 88.359375 43.10831079930378, 88.359375 85.5 M88.359375 85.5 C52.9820218781599 85.5, 17.604668756319796 85.5, -88.359375 85.5 M88.359375 85.5 C47.22215502131069 85.5, 6.084935042621382 85.5, -88.359375 85.5 M-88.359375 85.5 C-88.359375 39.58431438813741, -88.359375 -6.331371223725185, -88.359375 -85.5 M-88.359375 85.5 C-88.359375 49.68532827238122, -88.359375 13.87065654476244, -88.359375 -85.5"></path></g><g class="row-rect-odd" style=""><path fill="hsl(240, 100%, 100%)" stroke-width="0" stroke="none" d="M-88.359375 42.75 L88.359375 42.75 L88.359375 85.5 L-88.359375 85.5"></path><path fill="none" stroke-width="1.3" stroke="#9370DB" d="M-88.359375 42.75 C-19.923568401529323 42.75, 48.512238196941354 42.75, 88.359375 42.75 M-88.359375 42.75 C-21.93500760737298 42.75, 44.48935978525404 42.75, 88.359375 42.75 M88.359375 42.75 C88.359375 57.44743129867068, 88.359375 72.14486259734136, 88.359375 85.5 M88.359375 42.75 C88.359375 54.870745013524655, 88.359375 66.99149002704931, 88.359375 85.5 M88.359375 85.5 C37.576801246602386 85.5, -13.205772506795228 85.5, -88.359375 85.5 M88.359375 85.5 C24.502459533473143 85.5, -39.354455933053714 85.5, -88.359375 85.5 M-88.359375 85.5 C-88.359375 71.03400307447588, -88.359375 56.568006148951746, -88.359375 42.75 M-88.359375 85.5 C-88.359375 71.9827918783007, -88.359375 58.465583756601404, -88.359375 42.75"></path></g><g class="row-rect-even" style=""><path fill="hsl(240, 100%, 100%)" stroke-width="0" stroke="none" d="M-88.359375 -42.75 L88.359375 -42.75 L88.359375 0 L-88.359375 0"></path><path fill="none" stroke-width="1.3" stroke="#9370DB" d="M-88.359375 -42.75 C-34.352205894991116 -42.75, 19.65496321001777 -42.75, 88.359375 -42.75 M-88.359375 -42.75 C-41.75166332622833 -42.75, 4.856048347543336 -42.75, 88.359375 -42.75 M88.359375 -42.75 C88.359375 -26.298353675855903, 88.359375 -9.846707351711807, 88.359375 0 M88.359375 -42.75 C88.359375 -33.765102953123645, 88.359375 -24.780205906247282, 88.359375 0 M88.359375 0 C33.83761261174509 0, -20.684149776509827 0, -88.359375 0 M88.359375 0 C50.06560024377347 0, 11.771825487546934 0, -88.359375 0 M-88.359375 0 C-88.359375 -15.275803359159012, -88.359375 -30.551606718318023, -88.359375 -42.75 M-88.359375 0 C-88.359375 -10.439083734394504, -88.359375 -20.87816746878901, -88.359375 -42.75"></path></g><g style="" transform="translate(-36.6015625, -76.125)" class="label name"><foreignObject height="24" width="73.203125"><div style="display: table-cell; white-space: nowrap; line-height: 1.5; max-width: 173px; text-align: start;" xmlns="http://www.w3.org/1999/xhtml"><span class="nodeLabel"><p>CATEGORY</p></span></div></foreignObject></g><g style="" transform="translate(-75.859375, -33.375)" class="label attribute-type"><foreignObject height="24" width="36.21875"><div style="display: table-cell; white-space: nowrap; line-height: 1.5; max-width: 136px; text-align: start;" xmlns="http://www.w3.org/1999/xhtml"><span class="nodeLabel"><p>UUID</p></span></div></foreignObject></g><g style="" transform="translate(-7.96875, -33.375)" class="label attribute-name"><foreignObject height="24" width="83.828125"><div style="display: table-cell; white-space: nowrap; line-height: 1.5; max-width: 184px; text-align: start;" xmlns="http://www.w3.org/1999/xhtml"><span class="nodeLabel"><p>category_id</p></span></div></foreignObject></g><g style="" transform="translate(100.859375, -33.375)" class="label attribute-keys"><foreignObject height="0" width="0"><div style="display: table-cell; white-space: nowrap; line-height: 1.5; max-width: 100px; text-align: start;" xmlns="http://www.w3.org/1999/xhtml"><span class="nodeLabel"></span></div></foreignObject></g><g style="" transform="translate(100.859375, -33.375)" class="label attribute-comment"><foreignObject height="0" width="0"><div style="display: table-cell; white-space: nowrap; line-height: 1.5; max-width: 100px; text-align: start;" xmlns="http://www.w3.org/1999/xhtml"><span class="nodeLabel"></span></div></foreignObject></g><g style="" transform="translate(-75.859375, 9.375)" class="label attribute-type"><foreignObject height="24" width="42.890625"><div style="display: table-cell; white-space: nowrap; line-height: 1.5; max-width: 144px; text-align: start;" xmlns="http://www.w3.org/1999/xhtml"><span class="nodeLabel"><p>String</p></span></div></foreignObject></g><g style="" transform="translate(-7.96875, 9.375)" class="label attribute-name"><foreignObject height="24" width="40.515625"><div style="display: table-cell; white-space: nowrap; line-height: 1.5; max-width: 141px; text-align: start;" xmlns="http://www.w3.org/1999/xhtml"><span class="nodeLabel"><p>name</p></span></div></foreignObject></g><g style="" transform="translate(100.859375, 9.375)" class="label attribute-keys"><foreignObject height="0" width="0"><div style="display: table-cell; white-space: nowrap; line-height: 1.5; max-width: 100px; text-align: start;" xmlns="http://www.w3.org/1999/xhtml"><span class="nodeLabel"></span></div></foreignObject></g><g style="" transform="translate(100.859375, 9.375)" class="label attribute-comment"><foreignObject height="0" width="0"><div style="display: table-cell; white-space: nowrap; line-height: 1.5; max-width: 100px; text-align: start;" xmlns="http://www.w3.org/1999/xhtml"><span class="nodeLabel"></span></div></foreignObject></g><g style="" transform="translate(-75.859375, 52.125)" class="label attribute-type"><foreignObject height="24" width="42.890625"><div style="display: table-cell; white-space: nowrap; line-height: 1.5; max-width: 144px; text-align: start;" xmlns="http://www.w3.org/1999/xhtml"><span class="nodeLabel"><p>String</p></span></div></foreignObject></g><g style="" transform="translate(-7.96875, 52.125)" class="label attribute-name"><foreignObject height="24" width="82.609375"><div style="display: table-cell; white-space: nowrap; line-height: 1.5; max-width: 183px; text-align: start;" xmlns="http://www.w3.org/1999/xhtml"><span class="nodeLabel"><p>description</p></span></div></foreignObject></g><g style="" transform="translate(100.859375, 52.125)" class="label attribute-keys"><foreignObject height="0" width="0"><div style="display: table-cell; white-space: nowrap; line-height: 1.5; max-width: 100px; text-align: start;" xmlns="http://www.w3.org/1999/xhtml"><span class="nodeLabel"></span></div></foreignObject></g><g style="" transform="translate(100.859375, 52.125)" class="label attribute-comment"><foreignObject height="0" width="0"><div style="display: table-cell; white-space: nowrap; line-height: 1.5; max-width: 100px; text-align: start;" xmlns="http://www.w3.org/1999/xhtml"><span class="nodeLabel"></span></div></foreignObject></g><g class="divider"><path fill="none" stroke-width="1.3" stroke="#9370DB" d="M-88.359375 -42.75 C-36.098693617092344 -42.75, 16.16198776581531 -42.75, 88.359375 -42.75 M-88.359375 -42.75 C-39.308329112781365 -42.75, 9.74271677443727 -42.75, 88.359375 -42.75"></path></g><g class="divider"><path fill="none" stroke-width="1.3" stroke="#9370DB" d="M-20.46875 -42.75 C-20.46875 3.6522858740462425, -20.46875 50.054571748092485, -20.46875 85.5 M-20.46875 -42.75 C-20.46875 -11.789234390676949, -20.46875 19.171531218646102, -20.46875 85.5"></path></g><g class="divider"><path fill="none" stroke-width="1.3" stroke="#9370DB" d="M-88.359375 0 C-30.416845348774572 0, 27.525684302450856 0, 88.359375 0 M-88.359375 0 C-37.61880286537794 0, 13.121769269244126 0, 88.359375 0"></path></g><g class="divider"><path fill="none" stroke-width="1.3" stroke="#9370DB" d="M-88.359375 42.75 C-24.954653357947073 42.75, 38.45006828410585 42.75, 88.359375 42.75 M-88.359375 42.75 C-35.30845000719442 42.75, 17.742474985611153 42.75, 88.359375 42.75"></path></g><g class="divider"><path fill="none" stroke-width="1.3" stroke="#9370DB" d="M-88.359375 -42.75 C-50.394262952298696 -42.75, -12.429150904597392 -42.75, 88.359375 -42.75 M-88.359375 -42.75 C-22.342603083069847 -42.75, 43.67416883386031 -42.75, 88.359375 -42.75"></path></g></g><g transform="translate(447.9296875, 472.375)" id="entity-USER-5" class="node default"><g style=""><path fill="#ECECFF" stroke-width="0" stroke="none" d="M-97.7734375 -192.375 L97.7734375 -192.375 L97.7734375 192.375 L-97.7734375 192.375"></path><path fill="none" stroke-width="1.3" stroke="#9370DB" d="M-97.7734375 -192.375 C-54.72829755333067 -192.375, -11.68315760666134 -192.375, 97.7734375 -192.375 M-97.7734375 -192.375 C-33.751114079860855 -192.375, 30.27120934027829 -192.375, 97.7734375 -192.375 M97.7734375 -192.375 C97.7734375 -104.38646272184808, 97.7734375 -16.397925443696153, 97.7734375 192.375 M97.7734375 -192.375 C97.7734375 -40.38304528120406, 97.7734375 111.60890943759188, 97.7734375 192.375 M97.7734375 192.375 C20.696268350843624 192.375, -56.38090079831275 192.375, -97.7734375 192.375 M97.7734375 192.375 C48.109200756938364 192.375, -1.555035986123272 192.375, -97.7734375 192.375 M-97.7734375 192.375 C-97.7734375 56.667622201996494, -97.7734375 -79.03975559600701, -97.7734375 -192.375 M-97.7734375 192.375 C-97.7734375 42.29494368074293, -97.7734375 -107.78511263851414, -97.7734375 -192.375"></path></g><g class="row-rect-odd" style=""><path fill="hsl(240, 100%, 100%)" stroke-width="0" stroke="none" d="M-97.7734375 -64.125 L97.7734375 -64.125 L97.7734375 -21.375 L-97.7734375 -21.375"></path><path fill="none" stroke-width="1.3" stroke="#9370DB" d="M-97.7734375 -64.125 C-55.98333395536711 -64.125, -14.193230410734216 -64.125, 97.7734375 -64.125 M-97.7734375 -64.125 C-28.842263656465875 -64.125, 40.08891018706825 -64.125, 97.7734375 -64.125 M97.7734375 -64.125 C97.7734375 -55.295704913022135, 97.7734375 -46.46640982604428, 97.7734375 -21.375 M97.7734375 -64.125 C97.7734375 -50.41996975225652, 97.7734375 -36.71493950451305, 97.7734375 -21.375 M97.7734375 -21.375 C51.89006562583301 -21.375, 6.00669375166602 -21.375, -97.7734375 -21.375 M97.7734375 -21.375 C41.27153505407218 -21.375, -15.230367391855637 -21.375, -97.7734375 -21.375 M-97.7734375 -21.375 C-97.7734375 -37.56178872756165, -97.7734375 -53.7485774551233, -97.7734375 -64.125 M-97.7734375 -21.375 C-97.7734375 -35.07244715870159, -97.7734375 -48.76989431740319, -97.7734375 -64.125"></path></g><g class="row-rect-even" style=""><path fill="hsl(240, 100%, 97.2745098039%)" stroke-width="0" stroke="none" d="M-97.7734375 -21.375 L97.7734375 -21.375 L97.7734375 21.375 L-97.7734375 21.375"></path><path fill="none" stroke-width="1.3" stroke="#9370DB" d="M-97.7734375 -21.375 C-47.38061137284746 -21.375, 3.0122147543050772 -21.375, 97.7734375 -21.375 M-97.7734375 -21.375 C-40.906363504868146 -21.375, 15.960710490263708 -21.375, 97.7734375 -21.375 M97.7734375 -21.375 C97.7734375 -9.68701613632742, 97.7734375 2.0009677273451594, 97.7734375 21.375 M97.7734375 -21.375 C97.7734375 -10.586969165731539, 97.7734375 0.20106166853692287, 97.7734375 21.375 M97.7734375 21.375 C33.00640328431439 21.375, -31.760630931371225 21.375, -97.7734375 21.375 M97.7734375 21.375 C28.40336399026978 21.375, -40.96670951946044 21.375, -97.7734375 21.375 M-97.7734375 21.375 C-97.7734375 8.285098127603558, -97.7734375 -4.804803744792885, -97.7734375 -21.375 M-97.7734375 21.375 C-97.7734375 11.58572488559604, -97.7734375 1.79644977119208, -97.7734375 -21.375"></path></g><g class="row-rect-odd" style=""><path fill="hsl(240, 100%, 100%)" stroke-width="0" stroke="none" d="M-97.7734375 21.375 L97.7734375 21.375 L97.7734375 64.125 L-97.7734375 64.125"></path><path fill="none" stroke-width="1.3" stroke="#9370DB" d="M-97.7734375 21.375 C-31.30893997043175 21.375, 35.1555575591365 21.375, 97.7734375 21.375 M-97.7734375 21.375 C-23.74835042674036 21.375, 50.27673664651928 21.375, 97.7734375 21.375 M97.7734375 21.375 C97.7734375 30.929800082384695, 97.7734375 40.48460016476939, 97.7734375 64.125 M97.7734375 21.375 C97.7734375 34.0503325810746, 97.7734375 46.7256651621492, 97.7734375 64.125 M97.7734375 64.125 C40.386333477890126 64.125, -17.000770544219748 64.125, -97.7734375 64.125 M97.7734375 64.125 C35.275570997674976 64.125, -27.22229550465005 64.125, -97.7734375 64.125 M-97.7734375 64.125 C-97.7734375 52.249015190516715, -97.7734375 40.37303038103343, -97.7734375 21.375 M-97.7734375 64.125 C-97.7734375 49.61333290837132, -97.7734375 35.101665816742646, -97.7734375 21.375"></path></g><g class="row-rect-even" style=""><path fill="hsl(240, 100%, 97.2745098039%)" stroke-width="0" stroke="none" d="M-97.7734375 64.125 L97.7734375 64.125 L97.7734375 106.875 L-97.7734375 106.875"></path><path fill="none" stroke-width="1.3" stroke="#9370DB" d="M-97.7734375 64.125 C-32.898797285561386 64.125, 31.975842928877228 64.125, 97.7734375 64.125 M-97.7734375 64.125 C-29.531216163366594 64.125, 38.71100517326681 64.125, 97.7734375 64.125 M97.7734375 64.125 C97.7734375 78.65092968083569, 97.7734375 93.17685936167136, 97.7734375 106.875 M97.7734375 64.125 C97.7734375 73.98581669259666, 97.7734375 83.84663338519331, 97.7734375 106.875 M97.7734375 106.875 C39.40249007104926 106.875, -18.968457357901485 106.875, -97.7734375 106.875 M97.7734375 106.875 C26.518983647367378 106.875, -44.735470205265244 106.875, -97.7734375 106.875 M-97.7734375 106.875 C-97.7734375 92.67519442731958, -97.7734375 78.47538885463916, -97.7734375 64.125 M-97.7734375 106.875 C-97.7734375 89.98717963555356, -97.7734375 73.0993592711071, -97.7734375 64.125"></path></g><g class="row-rect-odd" style=""><path fill="hsl(240, 100%, 100%)" stroke-width="0" stroke="none" d="M-97.7734375 106.875 L97.7734375 106.875 L97.7734375 149.625 L-97.7734375 149.625"></path><path fill="none" stroke-width="1.3" stroke="#9370DB" d="M-97.7734375 106.875 C-39.906760709229346 106.875, 17.95991608154131 106.875, 97.7734375 106.875 M-97.7734375 106.875 C-24.17961837943082 106.875, 49.41420074113836 106.875, 97.7734375 106.875 M97.7734375 106.875 C97.7734375 122.33970389945937, 97.7734375 137.80440779891873, 97.7734375 149.625 M97.7734375 106.875 C97.7734375 123.9663772637709, 97.7734375 141.0577545275418, 97.7734375 149.625 M97.7734375 149.625 C41.09259644544307 149.625, -15.588244609113858 149.625, -97.7734375 149.625 M97.7734375 149.625 C58.217709763069614 149.625, 18.661982026139228 149.625, -97.7734375 149.625 M-97.7734375 149.625 C-97.7734375 136.11721174875493, -97.7734375 122.60942349750987, -97.7734375 106.875 M-97.7734375 149.625 C-97.7734375 133.80761730457513, -97.7734375 117.99023460915025, -97.7734375 106.875"></path></g><g class="row-rect-even" style=""><path fill="hsl(240, 100%, 97.2745098039%)" stroke-width="0" stroke="none" d="M-97.7734375 149.625 L97.7734375 149.625 L97.7734375 192.375 L-97.7734375 192.375"></path><path fill="none" stroke-width="1.3" stroke="#9370DB" d="M-97.7734375 149.625 C-37.78163844192324 149.625, 22.210160616153516 149.625, 97.7734375 149.625 M-97.7734375 149.625 C-47.87864598833255 149.625, 2.016145523334899 149.625, 97.7734375 149.625 M97.7734375 149.625 C97.7734375 158.4132830017326, 97.7734375 167.2015660034652, 97.7734375 192.375 M97.7734375 149.625 C97.7734375 166.21447054056563, 97.7734375 182.80394108113123, 97.7734375 192.375 M97.7734375 192.375 C46.38448719700306 192.375, -5.004463105993878 192.375, -97.7734375 192.375 M97.7734375 192.375 C36.52585299635674 192.375, -24.72173150728652 192.375, -97.7734375 192.375 M-97.7734375 192.375 C-97.7734375 183.73268991830628, -97.7734375 175.09037983661256, -97.7734375 149.625 M-97.7734375 192.375 C-97.7734375 181.06226859423666, -97.7734375 169.74953718847328, -97.7734375 149.625"></path></g><g class="row-rect-odd" style=""><path fill="hsl(240, 100%, 100%)" stroke-width="0" stroke="none" d="M-97.7734375 -149.625 L97.7734375 -149.625 L97.7734375 -106.875 L-97.7734375 -106.875"></path><path fill="none" stroke-width="1.3" stroke="#9370DB" d="M-97.7734375 -149.625 C-38.75592828277 -149.625, 20.26158093446 -149.625, 97.7734375 -149.625 M-97.7734375 -149.625 C-26.074012795144156 -149.625, 45.62541190971169 -149.625, 97.7734375 -149.625 M97.7734375 -149.625 C97.7734375 -136.21134434803602, 97.7734375 -122.79768869607202, 97.7734375 -106.875 M97.7734375 -149.625 C97.7734375 -140.99382896280196, 97.7734375 -132.3626579256039, 97.7734375 -106.875 M97.7734375 -106.875 C57.24604188192346 -106.875, 16.71864626384692 -106.875, -97.7734375 -106.875 M97.7734375 -106.875 C21.0286405455322 -106.875, -55.7161564089356 -106.875, -97.7734375 -106.875 M-97.7734375 -106.875 C-97.7734375 -123.43804857634233, -97.7734375 -140.00109715268465, -97.7734375 -149.625 M-97.7734375 -106.875 C-97.7734375 -115.90088795800496, -97.7734375 -124.92677591600992, -97.7734375 -149.625"></path></g><g style="" transform="translate(-18.7265625, -183)" class="label name"><foreignObject height="24" width="37.453125"><div style="display: table-cell; white-space: nowrap; line-height: 1.5; max-width: 138px; text-align: start;" xmlns="http://www.w3.org/1999/xhtml"><span class="nodeLabel"><p>USER</p></span></div></foreignObject></g><g style="" transform="translate(-85.2734375, -140.25)" class="label attribute-type"><foreignObject height="24" width="36.21875"><div style="display: table-cell; white-space: nowrap; line-height: 1.5; max-width: 136px; text-align: start;" xmlns="http://www.w3.org/1999/xhtml"><span class="nodeLabel"><p>UUID</p></span></div></foreignObject></g><g style="" transform="translate(8.0546875, -140.25)" class="label attribute-name"><foreignObject height="24" width="52.8125"><div style="display: table-cell; white-space: nowrap; line-height: 1.5; max-width: 153px; text-align: start;" xmlns="http://www.w3.org/1999/xhtml"><span class="nodeLabel"><p>user_id</p></span></div></foreignObject></g><g style="" transform="translate(110.2734375, -140.25)" class="label attribute-keys"><foreignObject height="0" width="0"><div style="display: table-cell; white-space: nowrap; line-height: 1.5; max-width: 100px; text-align: start;" xmlns="http://www.w3.org/1999/xhtml"><span class="nodeLabel"></span></div></foreignObject></g><g style="" transform="translate(110.2734375, -140.25)" class="label attribute-comment"><foreignObject height="0" width="0"><div style="display: table-cell; white-space: nowrap; line-height: 1.5; max-width: 100px; text-align: start;" xmlns="http://www.w3.org/1999/xhtml"><span class="nodeLabel"></span></div></foreignObject></g><g style="" transform="translate(-85.2734375, -97.5)" class="label attribute-type"><foreignObject height="24" width="42.890625"><div style="display: table-cell; white-space: nowrap; line-height: 1.5; max-width: 144px; text-align: start;" xmlns="http://www.w3.org/1999/xhtml"><span class="nodeLabel"><p>String</p></span></div></foreignObject></g><g style="" transform="translate(8.0546875, -97.5)" class="label attribute-name"><foreignObject height="24" width="72.203125"><div style="display: table-cell; white-space: nowrap; line-height: 1.5; max-width: 172px; text-align: start;" xmlns="http://www.w3.org/1999/xhtml"><span class="nodeLabel"><p>username</p></span></div></foreignObject></g><g style="" transform="translate(110.2734375, -97.5)" class="label attribute-keys"><foreignObject height="0" width="0"><div style="display: table-cell; white-space: nowrap; line-height: 1.5; max-width: 100px; text-align: start;" xmlns="http://www.w3.org/1999/xhtml"><span class="nodeLabel"></span></div></foreignObject></g><g style="" transform="translate(110.2734375, -97.5)" class="label attribute-comment"><foreignObject height="0" width="0"><div style="display: table-cell; white-space: nowrap; line-height: 1.5; max-width: 100px; text-align: start;" xmlns="http://www.w3.org/1999/xhtml"><span class="nodeLabel"></span></div></foreignObject></g><g style="" transform="translate(-85.2734375, -54.75)" class="label attribute-type"><foreignObject height="24" width="42.890625"><div style="display: table-cell; white-space: nowrap; line-height: 1.5; max-width: 144px; text-align: start;" xmlns="http://www.w3.org/1999/xhtml"><span class="nodeLabel"><p>String</p></span></div></foreignObject></g><g style="" transform="translate(8.0546875, -54.75)" class="label attribute-name"><foreignObject height="24" width="77.21875"><div style="display: table-cell; white-space: nowrap; line-height: 1.5; max-width: 177px; text-align: start;" xmlns="http://www.w3.org/1999/xhtml"><span class="nodeLabel"><p>first_name</p></span></div></foreignObject></g><g style="" transform="translate(110.2734375, -54.75)" class="label attribute-keys"><foreignObject height="0" width="0"><div style="display: table-cell; white-space: nowrap; line-height: 1.5; max-width: 100px; text-align: start;" xmlns="http://www.w3.org/1999/xhtml"><span class="nodeLabel"></span></div></foreignObject></g><g style="" transform="translate(110.2734375, -54.75)" class="label attribute-comment"><foreignObject height="0" width="0"><div style="display: table-cell; white-space: nowrap; line-height: 1.5; max-width: 100px; text-align: start;" xmlns="http://www.w3.org/1999/xhtml"><span class="nodeLabel"></span></div></foreignObject></g><g style="" transform="translate(-85.2734375, -12)" class="label attribute-type"><foreignObject height="24" width="42.890625"><div style="display: table-cell; white-space: nowrap; line-height: 1.5; max-width: 144px; text-align: start;" xmlns="http://www.w3.org/1999/xhtml"><span class="nodeLabel"><p>String</p></span></div></foreignObject></g><g style="" transform="translate(8.0546875, -12)" class="label attribute-name"><foreignObject height="24" width="75.234375"><div style="display: table-cell; white-space: nowrap; line-height: 1.5; max-width: 175px; text-align: start;" xmlns="http://www.w3.org/1999/xhtml"><span class="nodeLabel"><p>last_name</p></span></div></foreignObject></g><g style="" transform="translate(110.2734375, -12)" class="label attribute-keys"><foreignObject height="0" width="0"><div style="display: table-cell; white-space: nowrap; line-height: 1.5; max-width: 100px; text-align: start;" xmlns="http://www.w3.org/1999/xhtml"><span class="nodeLabel"></span></div></foreignObject></g><g style="" transform="translate(110.2734375, -12)" class="label attribute-comment"><foreignObject height="0" width="0"><div style="display: table-cell; white-space: nowrap; line-height: 1.5; max-width: 100px; text-align: start;" xmlns="http://www.w3.org/1999/xhtml"><span class="nodeLabel"></span></div></foreignObject></g><g style="" transform="translate(-85.2734375, 30.75)" class="label attribute-type"><foreignObject height="24" width="42.890625"><div style="display: table-cell; white-space: nowrap; line-height: 1.5; max-width: 144px; text-align: start;" xmlns="http://www.w3.org/1999/xhtml"><span class="nodeLabel"><p>String</p></span></div></foreignObject></g><g style="" transform="translate(8.0546875, 30.75)" class="label attribute-name"><foreignObject height="24" width="40.34375"><div style="display: table-cell; white-space: nowrap; line-height: 1.5; max-width: 141px; text-align: start;" xmlns="http://www.w3.org/1999/xhtml"><span class="nodeLabel"><p>email</p></span></div></foreignObject></g><g style="" transform="translate(110.2734375, 30.75)" class="label attribute-keys"><foreignObject height="0" width="0"><div style="display: table-cell; white-space: nowrap; line-height: 1.5; max-width: 100px; text-align: start;" xmlns="http://www.w3.org/1999/xhtml"><span class="nodeLabel"></span></div></foreignObject></g><g style="" transform="translate(110.2734375, 30.75)" class="label attribute-comment"><foreignObject height="0" width="0"><div style="display: table-cell; white-space: nowrap; line-height: 1.5; max-width: 100px; text-align: start;" xmlns="http://www.w3.org/1999/xhtml"><span class="nodeLabel"></span></div></foreignObject></g><g style="" transform="translate(-85.2734375, 73.5)" class="label attribute-type"><foreignObject height="24" width="42.890625"><div style="display: table-cell; white-space: nowrap; line-height: 1.5; max-width: 144px; text-align: start;" xmlns="http://www.w3.org/1999/xhtml"><span class="nodeLabel"><p>String</p></span></div></foreignObject></g><g style="" transform="translate(8.0546875, 73.5)" class="label attribute-name"><foreignObject height="24" width="46.328125"><div style="display: table-cell; white-space: nowrap; line-height: 1.5; max-width: 146px; text-align: start;" xmlns="http://www.w3.org/1999/xhtml"><span class="nodeLabel"><p>phone</p></span></div></foreignObject></g><g style="" transform="translate(110.2734375, 73.5)" class="label attribute-keys"><foreignObject height="0" width="0"><div style="display: table-cell; white-space: nowrap; line-height: 1.5; max-width: 100px; text-align: start;" xmlns="http://www.w3.org/1999/xhtml"><span class="nodeLabel"></span></div></foreignObject></g><g style="" transform="translate(110.2734375, 73.5)" class="label attribute-comment"><foreignObject height="0" width="0"><div style="display: table-cell; white-space: nowrap; line-height: 1.5; max-width: 100px; text-align: start;" xmlns="http://www.w3.org/1999/xhtml"><span class="nodeLabel"></span></div></foreignObject></g><g style="" transform="translate(-85.2734375, 116.25)" class="label attribute-type"><foreignObject height="24" width="40.8125"><div style="display: table-cell; white-space: nowrap; line-height: 1.5; max-width: 141px; text-align: start;" xmlns="http://www.w3.org/1999/xhtml"><span class="nodeLabel"><p>Enum</p></span></div></foreignObject></g><g style="" transform="translate(8.0546875, 116.25)" class="label attribute-name"><foreignObject height="24" width="44.40625"><div style="display: table-cell; white-space: nowrap; line-height: 1.5; max-width: 144px; text-align: start;" xmlns="http://www.w3.org/1999/xhtml"><span class="nodeLabel"><p>status</p></span></div></foreignObject></g><g style="" transform="translate(110.2734375, 116.25)" class="label attribute-keys"><foreignObject height="0" width="0"><div style="display: table-cell; white-space: nowrap; line-height: 1.5; max-width: 100px; text-align: start;" xmlns="http://www.w3.org/1999/xhtml"><span class="nodeLabel"></span></div></foreignObject></g><g style="" transform="translate(110.2734375, 116.25)" class="label attribute-comment"><foreignObject height="0" width="0"><div style="display: table-cell; white-space: nowrap; line-height: 1.5; max-width: 100px; text-align: start;" xmlns="http://www.w3.org/1999/xhtml"><span class="nodeLabel"></span></div></foreignObject></g><g style="" transform="translate(-85.2734375, 159)" class="label attribute-type"><foreignObject height="24" width="68.328125"><div style="display: table-cell; white-space: nowrap; line-height: 1.5; max-width: 168px; text-align: start;" xmlns="http://www.w3.org/1999/xhtml"><span class="nodeLabel"><p>DateTime</p></span></div></foreignObject></g><g style="" transform="translate(8.0546875, 159)" class="label attribute-name"><foreignObject height="24" width="76.921875"><div style="display: table-cell; white-space: nowrap; line-height: 1.5; max-width: 177px; text-align: start;" xmlns="http://www.w3.org/1999/xhtml"><span class="nodeLabel"><p>created_at</p></span></div></foreignObject></g><g style="" transform="translate(110.2734375, 159)" class="label attribute-keys"><foreignObject height="0" width="0"><div style="display: table-cell; white-space: nowrap; line-height: 1.5; max-width: 100px; text-align: start;" xmlns="http://www.w3.org/1999/xhtml"><span class="nodeLabel"></span></div></foreignObject></g><g style="" transform="translate(110.2734375, 159)" class="label attribute-comment"><foreignObject height="0" width="0"><div style="display: table-cell; white-space: nowrap; line-height: 1.5; max-width: 100px; text-align: start;" xmlns="http://www.w3.org/1999/xhtml"><span class="nodeLabel"></span></div></foreignObject></g><g class="divider"><path fill="none" stroke-width="1.3" stroke="#9370DB" d="M-97.7734375 -149.625 C-22.27811846688607 -149.625, 53.21720056622786 -149.625, 97.7734375 -149.625 M-97.7734375 -149.625 C-53.136677317173394 -149.625, -8.499917134346788 -149.625, 97.7734375 -149.625"></path></g><g class="divider"><path fill="none" stroke-width="1.3" stroke="#9370DB" d="M-4.4453125 -149.625 C-4.4453125 -58.760958664431854, -4.4453125 32.10308267113629, -4.4453125 192.375 M-4.4453125 -149.625 C-4.4453125 -33.929862738412766, -4.4453125 81.76527452317447, -4.4453125 192.375"></path></g><g class="divider"><path fill="none" stroke-width="1.3" stroke="#9370DB" d="M-97.7734375 -106.875 C-56.38563963173439 -106.875, -14.997841763468784 -106.875, 97.7734375 -106.875 M-97.7734375 -106.875 C-55.66352768183865 -106.875, -13.553617863677303 -106.875, 97.7734375 -106.875"></path></g><g class="divider"><path fill="none" stroke-width="1.3" stroke="#9370DB" d="M-97.7734375 -64.125 C-36.43110735521503 -64.125, 24.911222789569933 -64.125, 97.7734375 -64.125 M-97.7734375 -64.125 C-30.845208207734544 -64.125, 36.08302108453091 -64.125, 97.7734375 -64.125"></path></g><g class="divider"><path fill="none" stroke-width="1.3" stroke="#9370DB" d="M-97.7734375 -21.375 C-49.904242654484214 -21.375, -2.0350478089684287 -21.375, 97.7734375 -21.375 M-97.7734375 -21.375 C-34.04061340148373 -21.375, 29.692210697032536 -21.375, 97.7734375 -21.375"></path></g><g class="divider"><path fill="none" stroke-width="1.3" stroke="#9370DB" d="M-97.7734375 21.375 C-51.27441088597682 21.375, -4.775384271953641 21.375, 97.7734375 21.375 M-97.7734375 21.375 C-25.79330687769459 21.375, 46.18682374461082 21.375, 97.7734375 21.375"></path></g><g class="divider"><path fill="none" stroke-width="1.3" stroke="#9370DB" d="M-97.7734375 64.125 C-21.744863639415158 64.125, 54.283710221169684 64.125, 97.7734375 64.125 M-97.7734375 64.125 C-46.30634896330836 64.125, 5.160739573383282 64.125, 97.7734375 64.125"></path></g><g class="divider"><path fill="none" stroke-width="1.3" stroke="#9370DB" d="M-97.7734375 106.875 C-38.42008824007564 106.875, 20.933261019848715 106.875, 97.7734375 106.875 M-97.7734375 106.875 C-41.81131249352689 106.875, 14.150812512946217 106.875, 97.7734375 106.875"></path></g><g class="divider"><path fill="none" stroke-width="1.3" stroke="#9370DB" d="M-97.7734375 149.625 C-23.95179928396844 149.625, 49.86983893206312 149.625, 97.7734375 149.625 M-97.7734375 149.625 C-44.87559461088875 149.625, 8.022248278222506 149.625, 97.7734375 149.625"></path></g><g class="divider"><path fill="none" stroke-width="1.3" stroke="#9370DB" d="M-97.7734375 -149.625 C-54.87176093842357 -149.625, -11.97008437684714 -149.625, 97.7734375 -149.625 M-97.7734375 -149.625 C-42.641434806783266 -149.625, 12.490567886433467 -149.625, 97.7734375 -149.625"></path></g></g></g></g></g></svg>